<svg width="1278" height="170" xmlns="http://www.w3.org/2000/svg" xmlns:xlink="http://www.w3.org/1999/xlink" overflow="hidden"><defs><clipPath id="clip0"><rect x="-119" y="499" width="1278" height="170"/></clipPath></defs><g clip-path="url(#clip0)" transform="translate(119 -499)"><path d="M-118 555.63C-118 550.864-114.136 547-109.371 547L1149.37 547C1154.14 547 1158 550.864 1158 555.63L1158 659.37C1158 664.136 1154.14 668 1149.37 668L-109.371 668C-114.136 668-118 664.136-118 659.37Z" fill="#4A71A0" fill-rule="evenodd"/><path d="M13.2811 0.975564C11.8254 2.5542 13.4161 7.12978 12.3739 10.6446 9.97491 12.954 2.27537 14.1918 0.887728 16.8981-0.94703 19.1369 0.493523 23.102 1.36529 24.0772 1.37453 25.0525 1.14445 26.5672 4.04817 26.8829 6.95189 27.1986 15.5832 26.8697 18.7875 25.9715 22.8544 24.2123 25.5141 25.627 28.4492 24.5938 29.5987 23.5809 29.3536 24.3643 29.6702 20.8053 30.1413 15.4583 30.0774 4.64588 29.6703 1.17285 26.2782-1.78352 25.1255 1.86592 21.1083 1.1729 17.4109 1.68542 14.7369-0.603074 13.2811 0.975564Z" stroke="#352011" stroke-width="2.66667" stroke-linecap="round" stroke-linejoin="round" stroke-miterlimit="10" fill="#632D09" fill-rule="evenodd" transform="matrix(-1 0 0 1 1007.5 636.5)"/><path d="M978.5 657.5 986.474 658.587C991.542 659.985 1004.77 662.005 1006.5 658.743" stroke="#352011" stroke-width="2.66667" stroke-miterlimit="8" fill="none" fill-rule="evenodd"/><path d="M947.781 636.476C946.325 638.054 947.916 642.63 946.874 646.145 944.475 648.454 936.775 649.692 935.388 652.398 933.553 654.637 934.994 658.602 935.865 659.577 935.875 660.553 935.645 662.067 938.548 662.383 941.452 662.699 950.083 662.37 953.288 661.472 957.354 659.712 960.014 661.127 962.949 660.094 964.099 659.081 963.854 659.864 964.17 656.305 964.641 650.958 964.577 640.146 964.17 636.673 960.778 633.717 959.626 637.366 955.608 636.673 951.911 637.185 949.237 634.897 947.781 636.476Z" stroke="#352011" stroke-width="2.66667" stroke-linecap="round" stroke-linejoin="round" stroke-miterlimit="10" fill="#632D09" fill-rule="evenodd"/><path d="M0 0 6.54972 1.08735C10.7131 2.48542 21.5783 4.50485 23 1.24273" stroke="#352011" stroke-width="2.66667" stroke-miterlimit="8" fill="none" fill-rule="evenodd" transform="matrix(-1 0 0 1 959.5 657.5)"/><path d="M960.888 586.5C955.753 587.685 950.641 589.514 946.965 591.536 943.289 593.559 941.273 596.76 938.831 598.635 936.389 600.509 931.797 603.274 925.5 608.707 925.549 612.904 931.869 620.706 935.572 624.409 938.018 623.172 945.398 621.323 948.755 619.817 950.831 625.641 947.77 629.221 949.273 636.185 954.273 636.522 967.547 636.848 977.42 635.69 978.035 625.866 974.9 595.13 975.404 595.091 974.12 585.414 965.727 589.364 960.888 586.5Z" stroke="#2F528F" stroke-width="2.66667" stroke-miterlimit="8" fill="#9DC3E6" fill-rule="evenodd"/><path d="M986.591 586.722C980.502 588.374 973.421 599.586 968.542 608.341 969.119 617.293 967.264 633.946 970.311 637.295 976.146 637.778 990.005 639.747 993.901 637.295 998.001 634.362 992.628 618.444 992.797 613.986 995.502 613.337 1000.94 620.888 1002.98 618.295 1005.03 615.703 1008.45 607.087 1005.08 598.429 1002.91 593.012 992.681 585.07 986.591 586.722Z" stroke="#2F528F" stroke-width="2.66667" stroke-linecap="round" stroke-linejoin="round" stroke-miterlimit="10" fill="#9DC3E6" fill-rule="evenodd"/><path d="M999.5 593.634C996.77 588.101 993.332 588.671 987.365 588.5 982.612 593.862 974.624 620.615 972.5 629.571 975.23 629.856 980.185 631.511 984.332 629.571 989.034 621.756 997.68 599.738 999.5 593.634Z" stroke="#7F6000" stroke-width="2.66667" stroke-miterlimit="8" fill="#FFFF00" fill-rule="evenodd"/><path d="M21 4.52271C18.8764-0.351751 16.2023 0.150757 11.5618 0 7.86522 4.7237 1.65169 28.2921 0 36.1817 2.1236 36.433 5.97754 37.8902 9.20225 36.1817 12.8596 29.2971 19.5843 9.89973 21 4.52271Z" stroke="#7F6000" stroke-width="2.66667" stroke-miterlimit="8" fill="#FFFF00" fill-rule="evenodd" transform="matrix(-1 0 0 1 966.5 593.5)"/><path d="M988.525 633.038C993.456 630.623 994.689 632.972 988.803 627.125 979.114 627.321 962.281 628.116 952.171 626.358 944.353 633.241 949.178 630.819 953.688 632.974 962.799 634.176 982.827 635.901 988.525 633.038Z" stroke="#7F6000" stroke-width="2.66667" stroke-miterlimit="8" fill="#FFFF00" fill-rule="evenodd"/><path d="M970.088 607.365C962.889 606.179 957.778 609.256 955.019 609.24 952.26 609.224 953.125 609.186 953.537 607.268 953.948 605.35 958.78 597.898 956.831 597.569 954.622 597.309 943.389 606.502 942.5 603.651 942.505 598.925 948.847 584.328 951.496 580.464 954.146 576.599 958.396 580.464 958.396 580.464 963.111 580.521 974.955 580.923 979.785 580.808 984.614 580.693 984.26 576.438 987.374 579.775 990.488 583.113 999.092 599.536 998.468 600.834 997.843 602.132 986.671 597.788 984.614 599.399 982.558 601.01 987.562 606.372 986.13 610.5 981.842 610.172 976.279 606.096 970.088 607.365Z" stroke="#2F528F" stroke-width="2.66667" stroke-miterlimit="8" fill="#9DC3E6" fill-rule="evenodd"/><path d="M979.056 583.976C972.943 583.08 962.858 583.704 958.551 583.813 955.078 586.61 956.884 596.033 957.718 598.477 958.662 603.692 963.107 602.519 970.516 607.5 978.317 603.916 983.14 605.239 985.224 599.944 986.085 592.15 985.168 584.872 979.056 583.976Z" stroke="#2F528F" stroke-width="2.66667" stroke-miterlimit="8" fill="#FFECD9" fill-rule="evenodd"/><path d="M933 561.5C933 535.76 949.342 523 969.5 523 989.658 523 1006 540.237 1006 561.5 1005.15 589.03 989.658 600 969.5 600 949.342 600 933 587.24 933 561.5Z" stroke="#2F5597" stroke-width="4" stroke-miterlimit="8" fill="#FFECD9" fill-rule="evenodd"/><path d="M959.5 568.5C959.5 566.291 960.396 564.5 961.5 564.5 962.605 564.5 963.5 566.291 963.5 568.5 963.5 570.709 962.605 572.5 961.5 572.5 960.396 572.5 959.5 570.709 959.5 568.5Z" stroke="#2F528F" stroke-width="1.33333" stroke-miterlimit="8" fill="#2F5597" fill-rule="evenodd"/><path d="M973.5 568.5C973.5 566.291 974.396 564.5 975.5 564.5 976.605 564.5 977.5 566.291 977.5 568.5 977.5 570.709 976.605 572.5 975.5 572.5 974.396 572.5 973.5 570.709 973.5 568.5Z" stroke="#2F528F" stroke-width="1.33333" stroke-miterlimit="8" fill="#2F5597" fill-rule="evenodd"/><path d="M959 556.608C959.019 554.141 962.128 554.704 961.996 557" stroke="#2F528F" stroke-width="2" stroke-miterlimit="8" fill="none" fill-rule="evenodd"/><path d="M0 1.60807C0.0189821-0.859455 3.12792-0.295748 2.99629 2" stroke="#2F528F" stroke-width="2" stroke-miterlimit="8" fill="none" fill-rule="evenodd" transform="matrix(-1 0 0 1 976 555)"/><path d="M948.5 579.9C949.823 578.8 951.145 577.701 951.544 577.801 951.942 577.901 950.602 580.5 950.891 580.5 951.181 580.5 952.92 577.826 953.283 577.801 953.645 577.776 952.667 580.4 953.065 580.35 953.464 580.3 955.239 577.551 955.674 577.501 956.109 577.451 955.203 579.875 955.674 580.05 956.145 580.225 958.5 578.551 958.5 578.551L958.5 578.551 958.283 578.401" stroke="#C55A11" stroke-width="0.666667" stroke-miterlimit="8" fill="none" fill-rule="evenodd"/><path d="M979.5 579.9C980.823 578.8 982.145 577.701 982.544 577.801 982.942 577.901 981.602 580.5 981.891 580.5 982.181 580.5 983.92 577.826 984.283 577.801 984.645 577.776 983.667 580.4 984.065 580.35 984.464 580.3 986.239 577.551 986.674 577.501 987.109 577.451 986.203 579.875 986.674 580.05 987.145 580.225 989.5 578.551 989.5 578.551L989.5 578.551 989.283 578.401" stroke="#C55A11" stroke-width="0.666667" stroke-miterlimit="8" fill="none" fill-rule="evenodd"/><path d="M973 585C972.932 589.988 963.157 590.594 963 585.205" stroke="#2F528F" stroke-width="2" stroke-miterlimit="8" fill="none" fill-rule="evenodd"/><path d="M974.61 584.926C974.168 585.753 973.08 585.155 973.042 583.931" stroke="#2F528F" stroke-width="2" stroke-miterlimit="8" fill="none" fill-rule="evenodd"/><path d="M1002.5 547.451C1002.51 547.49 1003.11 551.275 1004.32 550.357 1004.99 549.844 1005.29 548.742 1005.77 547.935 1005.89 547.451 1005.89 546.874 1006.14 546.482 1006.65 545.661 1007.81 544.69 1008.68 544.545 1009.28 544.444 1009.89 544.545 1010.5 544.545" stroke="#2F528F" stroke-width="1.33333" stroke-linecap="round" stroke-linejoin="round" stroke-miterlimit="10" fill="none" fill-rule="evenodd"/><path d="M1002.5 550.451C1002.51 550.49 1003.11 554.275 1004.32 553.357 1004.99 552.844 1005.29 551.742 1005.77 550.935 1005.89 550.451 1005.89 549.874 1006.14 549.482 1006.65 548.661 1007.81 547.69 1008.68 547.545 1009.28 547.444 1009.89 547.545 1010.5 547.545" stroke="#2F528F" stroke-width="1.33333" stroke-linecap="round" stroke-linejoin="round" stroke-miterlimit="10" fill="none" fill-rule="evenodd"/><path d="M1004.5 551.451C1004.51 551.49 1005.19 555.275 1006.55 554.357 1007.3 553.844 1007.64 552.742 1008.18 551.935 1008.32 551.451 1008.31 550.874 1008.59 550.482 1009.17 549.661 1010.47 548.69 1011.45 548.545 1012.13 548.444 1012.82 548.545 1013.5 548.545" stroke="#2F528F" stroke-width="1.33333" stroke-linecap="round" stroke-linejoin="round" stroke-miterlimit="10" fill="none" fill-rule="evenodd"/><path d="M1002 545.459C1002.01 545.491 1002.61 548.646 1003.82 547.88 1004.49 547.453 1004.79 546.535 1005.27 545.862 1005.39 545.459 1005.39 544.978 1005.64 544.651 1006.15 543.968 1007.31 543.159 1008.18 543.037 1008.78 542.954 1009.39 543.037 1010 543.037" stroke="#2F528F" stroke-width="2" stroke-linecap="round" stroke-linejoin="round" stroke-miterlimit="10" fill="none" fill-rule="evenodd"/><path d="M928.909 541.017C928.91 541.045 928.417 543.438 930.064 543.755 930.984 543.932 931.66 543.548 932.457 543.445 932.744 543.27 932.919 542.965 933.318 542.921 934.152 542.829 935.758 543.085 936.794 543.59 937.505 543.937 938.164 544.395 938.849 544.798" stroke="#2F528F" stroke-width="1.33333" stroke-linecap="round" stroke-linejoin="round" stroke-miterlimit="10" fill="none" fill-rule="evenodd"/><path d="M927.807 543.305C927.808 543.334 927.314 545.726 928.962 546.043 929.882 546.221 930.557 545.837 931.355 545.733 931.642 545.559 931.817 545.253 932.216 545.209 933.05 545.118 934.656 545.373 935.692 545.879 936.403 546.225 937.062 546.684 937.747 547.086" stroke="#2F528F" stroke-width="1.33333" stroke-linecap="round" stroke-linejoin="round" stroke-miterlimit="10" fill="none" fill-rule="evenodd"/><path d="M933.883 538.371C933.85 538.392 930.458 540.007 931.62 540.662 932.27 541.028 933.375 540.922 934.253 541.052 934.736 540.999 935.275 540.821 935.704 540.892 936.601 541.04 937.8 541.639 938.157 542.273 938.402 542.709 938.462 543.212 938.614 543.681" stroke="#2F528F" stroke-width="2" stroke-linecap="round" stroke-linejoin="round" stroke-miterlimit="10" fill="none" fill-rule="evenodd"/><path d="M880.978 530.247C887.299 526.019 894.578 523.819 901.378 520.606 924.727 564.763 943.836 607.822 963.904 652.91 958.062 658.151 950.303 659.337 943.503 662.551 922.154 618.689 899.792 575.306 880.978 530.247Z" stroke="#2F5597" stroke-width="4" stroke-miterlimit="8" fill="#FFFFFF" fill-rule="evenodd"/><path d="M933.179 634.886 949.857 627.004 958.15 644.551 941.471 652.433C936.501 645.037 935.782 642.624 933.179 634.886Z" fill="#F4B183" fill-rule="evenodd"/><path d="M917.302 603.159 935.294 594.656 943.587 612.203 925.595 620.706C920.529 613.355 919.837 610.929 917.302 603.159Z" fill="#F4B183" fill-rule="evenodd"/><path d="M898.996 566.19 917.836 557.287 926.128 574.833 907.289 583.737C902.162 576.415 901.488 573.981 898.996 566.19Z" fill="#F4B183" fill-rule="evenodd"/><path d="M884.033 530.752 900.828 522.815 909.121 540.362 892.326 548.299C887.347 540.907 886.63 538.493 884.033 530.752Z" fill="#F4B183" fill-rule="evenodd"/><path d="M883.516 534.879C884.326 533.71 885.759 533.598 887.16 532.641" stroke="#2F528F" stroke-width="2" stroke-miterlimit="8" fill="none" fill-rule="evenodd"/><path d="M886.531 541.258C887.341 540.09 888.774 539.977 890.175 539.02" stroke="#2F528F" stroke-width="2" stroke-miterlimit="8" fill="none" fill-rule="evenodd"/><path d="M889.54 547.691C890.35 546.523 891.783 546.41 893.185 545.453" stroke="#2F528F" stroke-width="2" stroke-miterlimit="8" fill="none" fill-rule="evenodd"/><path d="M892.661 554.295C893.471 553.126 894.904 553.014 896.305 552.057" stroke="#2F528F" stroke-width="2" stroke-miterlimit="8" fill="none" fill-rule="evenodd"/><path d="M895.682 560.688C896.492 559.519 897.925 559.407 899.327 558.45" stroke="#2F528F" stroke-width="2" stroke-miterlimit="8" fill="none" fill-rule="evenodd"/><path d="M898.703 567.081C899.513 565.912 900.946 565.8 902.348 564.843" stroke="#2F528F" stroke-width="2" stroke-miterlimit="8" fill="none" fill-rule="evenodd"/><path d="M901.834 573.705C902.644 572.536 904.077 572.424 905.478 571.467" stroke="#2F528F" stroke-width="2" stroke-miterlimit="8" fill="none" fill-rule="evenodd"/><path d="M904.964 580.329C905.775 579.161 907.208 579.048 908.609 578.091" stroke="#2F528F" stroke-width="2" stroke-miterlimit="8" fill="none" fill-rule="evenodd"/><path d="M908.095 586.954C908.905 585.785 910.338 585.673 911.739 584.716" stroke="#2F528F" stroke-width="2" stroke-miterlimit="8" fill="none" fill-rule="evenodd"/><path d="M911.126 593.367C911.936 592.198 913.369 592.086 914.77 591.129" stroke="#2F528F" stroke-width="2" stroke-miterlimit="8" fill="none" fill-rule="evenodd"/><path d="M913.952 599.619C914.762 598.451 916.195 598.338 917.597 597.381" stroke="#2F528F" stroke-width="2" stroke-miterlimit="8" fill="none" fill-rule="evenodd"/><path d="M917.073 606.223C917.883 605.055 919.316 604.942 920.718 603.985" stroke="#2F528F" stroke-width="2" stroke-miterlimit="8" fill="none" fill-rule="evenodd"/><path d="M920.094 612.616C920.904 611.448 922.337 611.335 923.739 610.378" stroke="#2F528F" stroke-width="2" stroke-miterlimit="8" fill="none" fill-rule="evenodd"/><path d="M923.135 619.05C923.945 617.881 925.378 617.769 926.779 616.812" stroke="#2F528F" stroke-width="2" stroke-miterlimit="8" fill="none" fill-rule="evenodd"/><path d="M926.166 625.464C926.976 624.295 928.409 624.183 929.81 623.226" stroke="#2F528F" stroke-width="2" stroke-miterlimit="8" fill="none" fill-rule="evenodd"/><path d="M929.195 631.249C930.005 630.081 931.438 629.968 932.839 629.011" stroke="#2F528F" stroke-width="2" stroke-miterlimit="8" fill="none" fill-rule="evenodd"/><path d="M931.63 637.027C932.441 635.858 933.874 635.746 935.275 634.789" stroke="#2F528F" stroke-width="2" stroke-miterlimit="8" fill="none" fill-rule="evenodd"/><path d="M934.661 643.441C935.472 642.272 936.905 642.16 938.306 641.203" stroke="#2F528F" stroke-width="2" stroke-miterlimit="8" fill="none" fill-rule="evenodd"/><path d="M937.593 649.643C938.403 648.475 939.836 648.362 941.237 647.405" stroke="#2F528F" stroke-width="2" stroke-miterlimit="8" fill="none" fill-rule="evenodd"/><path d="M940.524 655.846C941.334 654.677 942.767 654.565 944.169 653.608" stroke="#2F528F" stroke-width="2" stroke-miterlimit="8" fill="none" fill-rule="evenodd"/><path d="M900.383 527.477C901.194 526.309 902.627 526.196 904.028 525.24" stroke="#2F528F" stroke-width="2" stroke-miterlimit="8" fill="none" fill-rule="evenodd"/><path d="M903.398 533.857C904.209 532.688 905.641 532.576 907.043 531.619" stroke="#2F528F" stroke-width="2" stroke-miterlimit="8" fill="none" fill-rule="evenodd"/><path d="M906.408 540.29C907.218 539.121 908.651 539.009 910.052 538.052" stroke="#2F528F" stroke-width="2" stroke-miterlimit="8" fill="none" fill-rule="evenodd"/><path d="M909.528 546.894C910.339 545.725 911.772 545.613 913.173 544.656" stroke="#2F528F" stroke-width="2" stroke-miterlimit="8" fill="none" fill-rule="evenodd"/><path d="M912.55 553.287C913.36 552.118 914.793 552.006 916.194 551.049" stroke="#2F528F" stroke-width="2" stroke-miterlimit="8" fill="none" fill-rule="evenodd"/><path d="M915.571 559.68C916.381 558.511 917.814 558.399 919.216 557.442" stroke="#2F528F" stroke-width="2" stroke-miterlimit="8" fill="none" fill-rule="evenodd"/><path d="M918.702 566.304C919.512 565.135 920.945 565.023 922.346 564.066" stroke="#2F528F" stroke-width="2" stroke-miterlimit="8" fill="none" fill-rule="evenodd"/><path d="M921.832 572.928C922.642 571.759 924.075 571.647 925.477 570.69" stroke="#2F528F" stroke-width="2" stroke-miterlimit="8" fill="none" fill-rule="evenodd"/><path d="M924.963 579.552C925.773 578.384 927.206 578.271 928.607 577.314" stroke="#2F528F" stroke-width="2" stroke-miterlimit="8" fill="none" fill-rule="evenodd"/><path d="M927.994 585.966C928.804 584.797 930.237 584.685 931.638 583.728" stroke="#2F528F" stroke-width="2" stroke-miterlimit="8" fill="none" fill-rule="evenodd"/><path d="M930.82 592.218C931.63 591.05 933.063 590.937 934.464 589.98" stroke="#2F528F" stroke-width="2" stroke-miterlimit="8" fill="none" fill-rule="evenodd"/><path d="M933.941 598.822C934.751 597.653 936.184 597.541 937.585 596.584" stroke="#2F528F" stroke-width="2" stroke-miterlimit="8" fill="none" fill-rule="evenodd"/><path d="M936.962 605.215C937.772 604.046 939.205 603.934 940.607 602.977" stroke="#2F528F" stroke-width="2" stroke-miterlimit="8" fill="none" fill-rule="evenodd"/><path d="M940.003 611.649C940.813 610.48 942.246 610.368 943.647 609.411" stroke="#2F528F" stroke-width="2" stroke-miterlimit="8" fill="none" fill-rule="evenodd"/><path d="M943.033 618.062C943.844 616.894 945.277 616.781 946.678 615.824" stroke="#2F528F" stroke-width="2" stroke-miterlimit="8" fill="none" fill-rule="evenodd"/><path d="M946.062 623.848C946.873 622.679 948.305 622.567 949.707 621.61" stroke="#2F528F" stroke-width="2" stroke-miterlimit="8" fill="none" fill-rule="evenodd"/><path d="M948.498 629.626C949.308 628.457 950.741 628.345 952.143 627.388" stroke="#2F528F" stroke-width="2" stroke-miterlimit="8" fill="none" fill-rule="evenodd"/><path d="M951.529 636.039C952.339 634.871 953.772 634.758 955.174 633.801" stroke="#2F528F" stroke-width="2" stroke-miterlimit="8" fill="none" fill-rule="evenodd"/><path d="M954.461 642.242C955.271 641.073 956.704 640.961 958.105 640.004" stroke="#2F528F" stroke-width="2" stroke-miterlimit="8" fill="none" fill-rule="evenodd"/><path d="M957.392 648.445C958.202 647.276 959.635 647.164 961.036 646.207" stroke="#2F528F" stroke-width="2" stroke-miterlimit="8" fill="none" fill-rule="evenodd"/><path d="M905.089 601.337C904.416 599.653 903.743 597.969 904.411 596.393 905.079 594.818 907.367 592.68 909.096 591.886 910.825 591.091 913.873 591.218 914.785 591.624 915.697 592.03 914.984 593.602 914.566 594.322 914.147 595.043 913.211 595.495 912.274 595.946" stroke="#2F5597" stroke-width="3.33333" stroke-linecap="round" stroke-linejoin="round" stroke-miterlimit="10" fill="#FFECD9" fill-rule="evenodd"/><path d="M907.162 604.419C906.762 602.706 906.362 600.993 907.198 599.553 908.034 598.112 910.456 596.328 912.176 595.775 913.896 595.221 916.721 595.723 917.517 596.229 918.312 596.735 917.435 598.167 916.948 598.812 916.46 599.457 915.526 599.777 914.592 600.098" stroke="#2F5597" stroke-width="3.33333" stroke-linecap="round" stroke-linejoin="round" stroke-miterlimit="10" fill="#FFECD9" fill-rule="evenodd"/><path d="M909.777 609.745C909.377 608.032 908.977 606.319 909.812 604.878 910.648 603.437 913.07 601.654 914.79 601.1 916.51 600.546 919.336 601.048 920.131 601.555 920.926 602.061 920.05 603.493 919.562 604.137 919.075 604.782 918.14 605.103 917.206 605.424" stroke="#2F5597" stroke-width="3.33333" stroke-linecap="round" stroke-linejoin="round" stroke-miterlimit="10" fill="#FFECD9" fill-rule="evenodd"/><path d="M917.556 614.221C909.407 613.834 911.653 611.285 912.041 609.433 912.429 607.58 914.873 606.984 916.397 606.593 917.92 606.202 920.46 606.667 921.184 607.085 921.908 607.502 921.16 608.604 920.74 609.098 920.321 609.592 919.493 609.82 918.666 610.048" stroke="#2F5597" stroke-width="3.33333" stroke-linecap="round" stroke-linejoin="round" stroke-miterlimit="10" fill="#FFECD9" fill-rule="evenodd"/><path d="M927.064 546.502C927.073 546.529 927.278 548.963 928.948 548.8 929.881 548.709 930.419 548.149 931.155 547.824 931.381 547.575 931.462 547.232 931.832 547.077 932.606 546.753 934.218 546.543 935.355 546.733 936.135 546.864 936.897 547.117 937.668 547.308" stroke="#2F528F" stroke-width="1.33333" stroke-linecap="round" stroke-linejoin="round" stroke-miterlimit="10" fill="none" fill-rule="evenodd"/><path d="M926.656 549.009C926.665 549.036 926.87 551.47 928.54 551.307 929.473 551.216 930.011 550.656 930.747 550.331 930.973 550.082 931.054 549.739 931.424 549.584 932.198 549.26 933.811 549.05 934.947 549.24 935.727 549.371 936.489 549.624 937.26 549.815" stroke="#2F528F" stroke-width="1.33333" stroke-linecap="round" stroke-linejoin="round" stroke-miterlimit="10" fill="none" fill-rule="evenodd"/><path d="M931.084 542.554C931.057 542.584 928.263 545.094 929.563 545.393 930.29 545.559 931.32 545.144 932.198 545.02 932.647 544.832 933.113 544.509 933.544 544.455 934.447 544.342 935.766 544.577 936.288 545.084 936.647 545.432 936.847 545.897 937.126 546.304" stroke="#2F528F" stroke-width="2" stroke-linecap="round" stroke-linejoin="round" stroke-miterlimit="10" fill="none" fill-rule="evenodd"/><path d="M0 1.80285C0.0104971 1.82676 0.547027 4.13958 1.62577 3.57853 2.22835 3.26516 2.49283 2.59203 2.92639 2.0988 3.03479 1.80285 3.03212 1.45061 3.25154 1.21096 3.7107 0.70948 4.74366 0.116375 5.52762 0.0271712 6.06537-0.0340222 6.61148 0.0271712 7.15339 0.0271712" stroke="#2F528F" stroke-width="1.33333" stroke-linecap="round" stroke-linejoin="round" stroke-miterlimit="10" fill="none" fill-rule="evenodd" transform="matrix(-0.862196 0.506575 0.506575 0.862196 1010.21 549.09)"/><path d="M0 1.80285C0.0104971 1.82676 0.547027 4.13958 1.62577 3.57853 2.22835 3.26516 2.49283 2.59203 2.92639 2.0988 3.03479 1.80285 3.03212 1.45061 3.25154 1.21096 3.7107 0.70948 4.74366 0.116375 5.52762 0.0271712 6.06537-0.0340222 6.61148 0.0271712 7.15339 0.0271712" stroke="#2F528F" stroke-width="2" stroke-linecap="round" stroke-linejoin="round" stroke-miterlimit="10" fill="none" fill-rule="evenodd" transform="matrix(-0.862196 0.506575 0.506575 0.862196 1010.96 551.378)"/><path d="M0 1.98076C0.00955409 2.00703 0.497884 4.54807 1.47972 3.93166 2.02817 3.58736 2.26889 2.84781 2.66349 2.30591 2.76216 1.98076 2.75973 1.59375 2.95944 1.33046 3.37735 0.779492 4.31752 0.127859 5.03104 0.0298524 5.52049-0.0373796 6.01754 0.0298524 6.51076 0.0298524" stroke="#2F528F" stroke-width="1.33333" stroke-linecap="round" stroke-linejoin="round" stroke-miterlimit="10" fill="none" fill-rule="evenodd" transform="matrix(-0.308809 0.951124 0.951124 0.308809 1006.17 546.548)"/><path d="M948.169 623.453C966.609 621.943 983.526 622.446 1002.73 623.453 1004 636.701 1003.49 649.447 1002.73 662.444 986.318 664.205 966.609 663.45 948.169 662.444 947.154 648.944 947.408 637.456 948.169 623.453Z" stroke="#7F7F7F" stroke-width="2.66667" stroke-miterlimit="8" fill="#385723" fill-rule="evenodd"/><path d="M948.5 630.5C966.816 627.984 984.06 627.688 1000.5 630.5" stroke="#FFFFFF" stroke-width="1.33333" stroke-miterlimit="8" fill="none" fill-rule="evenodd"/><path d="M948.5 641.5C967.62 638.41 984.596 639.293 1000.5 641.5" stroke="#FFFFFF" stroke-width="1.33333" stroke-miterlimit="8" fill="none" fill-rule="evenodd"/><path d="M958.5 652.343C962.066 648.039 965.631 643.735 966.28 644.616 966.928 645.497 962.629 655.359 962.39 657.63 962.151 659.9 963.175 660.104 964.847 658.24 966.519 656.376 970.818 648.411 972.421 646.446 974.025 644.48 974.639 645.192 974.469 646.446 974.298 647.7 971.739 652.478 971.398 653.969 971.057 655.461 971.023 656.342 972.421 655.393 973.82 654.444 978.768 648.513 979.792 648.276 980.815 648.039 978.393 652.919 978.563 653.969 978.734 655.02 978.973 655.495 980.815 654.579 982.658 653.664 988.254 648.073 989.618 648.479 990.335 649.598 987.947 656.647 989.004 657.02 990.335 656.613 993.952 651.462 995.965 650.716 1000.43 647.734 999.838 652.071 998.626 653.969" stroke="#FFFFFF" stroke-width="0.666667" stroke-miterlimit="8" fill="none" fill-rule="evenodd"/><path d="M963.5 640.5C960.062 638.092 961.733 630.635 963.5 624.5" stroke="#FFFFFF" stroke-width="1.33333" stroke-miterlimit="8" fill="none" fill-rule="evenodd"/><path d="M999.5 608.215C998.082 606.627 997.879 604.741 997.069 603.099 996.258 601.456 994.84 600.355 994.637 598.361 994.434 596.367 996.41 592.777 995.853 591.135 995.296 589.493 992.712 588.581 991.294 588.508 989.875 588.435 988.305 588.872 987.343 590.697 986.38 592.522 985.671 596.792 985.519 599.456 985.367 602.12 986.177 605.332 986.431 606.682 986.684 608.032 987.039 607.558 987.039 607.558L994.029 620.5" stroke="#2F528F" stroke-width="3.33333" stroke-linecap="round" stroke-linejoin="round" stroke-miterlimit="10" fill="#FFECD9" fill-rule="evenodd"/><path d="M997.485 604.5C1000.55 605.728 1003.61 606.956 1005.28 609.089 1006.94 611.223 1007.67 613.839 1007.47 617.301 1007.26 620.763 1005.88 627.083 1004.06 629.86 1002.23 632.638 998.783 633.201 996.511 633.966 994.239 634.731 990.424 634.449 990.424 634.449L990.424 634.449C989.532 633.765 985.961 631.551 985.068 630.343 984.175 629.136 984.459 627.807 985.068 627.204 985.677 626.6 987.827 626.721 988.72 626.721 989.613 626.721 990.018 626.962 990.424 627.204" stroke="#2F5597" stroke-width="3.33333" stroke-linecap="round" stroke-linejoin="round" stroke-miterlimit="10" fill="#FFECD9" fill-rule="evenodd"/><path d="M998.5 628.09C995.904 629 993.307 629.91 990.711 629.304 988.114 628.697 984.412 626.319 982.921 624.448 981.431 622.577 981.238 619.138 981.767 618.075 982.296 617.013 984.893 617.671 986.095 618.075 987.297 618.48 988.138 619.492 988.98 620.503" stroke="#2F5597" stroke-width="3.33333" stroke-linecap="round" stroke-linejoin="round" stroke-miterlimit="10" fill="#FFECD9" fill-rule="evenodd"/><path d="M998.5 623.09C995.904 624 993.307 624.91 990.711 624.304 988.114 623.697 984.412 621.319 982.921 619.448 981.431 617.577 981.238 614.138 981.767 613.075 982.296 612.013 984.893 612.671 986.095 613.075 987.297 613.48 988.138 614.492 988.98 615.503" stroke="#2F5597" stroke-width="3.33333" stroke-linecap="round" stroke-linejoin="round" stroke-miterlimit="10" fill="#FFECD9" fill-rule="evenodd"/><path d="M998.5 617.83C995.232 619.934 993.037 619.686 990.452 619.045 987.867 618.404 984.27 615.76 982.99 613.987 981.71 612.213 980.503 610.759 982.773 608.404 985.043 606.049 986.002 608.993 987.244 609.398 988.486 609.803 989.881 610.136 990.75 611.148" stroke="#2F5597" stroke-width="3.33333" stroke-linecap="round" stroke-linejoin="round" stroke-miterlimit="10" fill="#FFECD9" fill-rule="evenodd"/><path d="M942.047 542.802C947.984 543.72 962.732 546.806 972.739 546.989 982.745 547.173 996.897 544.969 1002.09 543.904 1007.28 542.838 1003.97 541.941 1003.88 540.597 1003.79 539.254 1002.41 537.073 1001.54 535.844 1000.68 534.615 1001.5 535.823 1000.01 531.903 998.513 527.983 997.536 517.776 992.58 512.323 987.625 506.87 982.38 502.479 970.274 502.027 958.169 501.574 952.816 506.949 947.872 511.504 942.927 516.059 940.719 524.141 940.607 529.357 939.375 531.928 940.276 530.9 939.359 532.443 938.441 533.985 935.587 537.292 935.102 538.614 934.617 539.936 935.961 540.781 937.118 541.479 938.276 542.177 936.11 541.883 942.047 542.802Z" stroke="#7F6000" stroke-width="4" stroke-linecap="round" stroke-linejoin="round" stroke-miterlimit="10" fill="#FFCC00" fill-rule="evenodd"/><path d="M954.901 522.762C953.877 525.597 952.853 528.432 953.465 529.459 954.076 530.486 958.57 528.922 958.57 528.922L958.57 528.922 958.57 528.922" stroke="#2F528F" stroke-width="1.33333" stroke-linecap="round" stroke-linejoin="round" stroke-miterlimit="10" fill="none" fill-rule="evenodd"/><path d="M965.281 524.051C963.166 525.147 961.051 526.244 960.96 527.375 960.87 528.507 962.803 529.675 964.736 530.843" stroke="#2F528F" stroke-width="1.33333" stroke-linecap="round" stroke-linejoin="round" stroke-miterlimit="10" fill="none" fill-rule="evenodd"/><path d="M967.532 525.504C970.876 525.275 974.22 525.046 975.055 525.947 975.891 526.847 974.217 528.877 972.543 530.906" stroke="#2F528F" stroke-width="1.33333" stroke-linecap="round" stroke-linejoin="round" stroke-miterlimit="10" fill="none" fill-rule="evenodd"/><path d="M979.917 524.269C982.417 523.92 984.918 523.572 985.874 524.185 986.83 524.797 986.534 527.289 985.653 527.946 984.771 528.603 982.679 528.365 980.586 528.126" stroke="#2F528F" stroke-width="1.33333" stroke-linecap="round" stroke-linejoin="round" stroke-miterlimit="10" fill="none" fill-rule="evenodd"/><path d="M977.492 526.714 984.023 526.33C985.923 526.263 987.407 526.286 988.892 526.309" stroke="#2F528F" stroke-width="1.33333" stroke-linecap="round" stroke-linejoin="round" stroke-miterlimit="10" fill="none" fill-rule="evenodd"/><path d="M981.953 523.766C981.815 526.605 981.677 529.445 981.37 530.914 981.063 532.383 980.587 532.483 980.11 532.582" stroke="#2F528F" stroke-width="1.33333" stroke-linecap="round" stroke-linejoin="round" stroke-miterlimit="10" fill="none" fill-rule="evenodd"/><path d="M982.092 529.852C982.743 529.381 985.949 529.182 986.624 529.615 987.299 530.047 986.793 531.976 986.141 532.447 985.49 532.919 983.319 532.717 982.717 532.442 982.115 532.168 981.441 530.323 982.092 529.852Z" stroke="#2F528F" stroke-width="1.33333" stroke-linecap="round" stroke-linejoin="round" stroke-miterlimit="10" fill="none" fill-rule="evenodd"/><path d="M958.757 538.659 953.523 538.261 948.735 537.074 944.829 535.564 941.99 534.119 943.079 531.98 945.808 533.37 949.459 534.781 953.906 535.883 958.939 536.266ZM959 535.469 954.033 535.091 949.7 534.017 946.135 532.639 943.442 531.267 943.805 530.554 946.462 531.907 949.942 533.252 954.161 534.298 959.06 534.671Z" fill="#2F528F"/><path d="M999.002 535.766 996.651 537.201 994.074 538.306 989.226 539.531 984.85 539.784 981.477 539.505 981.675 537.114 984.879 537.379 988.859 537.148 993.302 536.026 995.547 535.062 997.751 533.717ZM997.335 533.035 995.179 534.35 993.045 535.265 988.737 536.354 984.889 536.577 981.741 536.316 981.807 535.519 984.899 535.775 988.615 535.56 992.787 534.505 994.811 533.637 996.918 532.352Z" fill="#2F528F"/><path d="M983.5 544.497C985.161 541.998 986.822 539.5 987.408 539.5 987.994 539.5 986.529 544.358 987.017 544.497 987.506 544.635 989.72 540.506 990.339 540.333 990.958 540.159 990.013 543.49 990.73 543.456 991.446 543.421 993.954 540.194 994.638 540.125 995.322 540.055 994.312 542.97 994.833 543.039 995.354 543.109 997.081 540.68 997.764 540.541 998.448 540.402 998.481 542.172 998.937 542.207 999.393 542.241 1000.5 540.749 1000.5 540.749L1000.5 540.749" stroke="#7F6000" stroke-width="0.666667" stroke-miterlimit="8" fill="none" fill-rule="evenodd"/><text fill="#FFFFFF" font-family="Meiryo,Meiryo_MSFontService,sans-serif" font-weight="700" font-size="43" transform="translate(-82.19 609)">掘削状況3D<tspan font-size="43" x="233.167" y="0">化アプリ</tspan><tspan font-size="43" x="446.5" y="0">しくつ君（投稿・閲覧）</tspan><tspan font-family="Arial,Arial_MSFontService,sans-serif" font-weight="400" font-size="21" x="730.011" y="39">GEO SEARCH CO.,LTD</tspan></text></g></svg>