<?xml version="1.0" encoding="UTF-8"?>
<!DOCTYPE svg PUBLIC "-//W3C//DTD SVG 1.1//EN" "http://www.w3.org/Graphics/SVG/1.1/DTD/svg11.dtd">
<svg xmlns="http://www.w3.org/2000/svg" version="1.1" width="2827px" height="762px" style="shape-rendering:geometricPrecision; text-rendering:geometricPrecision; image-rendering:optimizeQuality; fill-rule:evenodd; clip-rule:evenodd" xmlns:xlink="http://www.w3.org/1999/xlink">
<g><path style="opacity:1" fill="#806101" d="M 2478.5,-0.5 C 2488.5,-0.5 2498.5,-0.5 2508.5,-0.5C 2538.83,2.64505 2563.33,16.3117 2582,40.5C 2586.45,47.0583 2590.11,54.0583 2593,61.5C 2598.34,80.1833 2603.67,98.8499 2609,117.5C 2614.94,126.165 2619.44,135.499 2622.5,145.5C 2622.22,149.178 2620.56,152.012 2617.5,154C 2612.33,156.125 2607,157.625 2601.5,158.5C 2556.5,168.039 2511.17,170.206 2465.5,165C 2440.45,161.048 2415.45,156.881 2390.5,152.5C 2380.1,150.263 2373.43,144.096 2370.5,134C 2370.48,131.59 2371.15,129.423 2372.5,127.5C 2377.06,120.052 2381.9,112.719 2387,105.5C 2389.14,92.0049 2392.14,78.6716 2396,65.5C 2399.89,54.7147 2405.55,45.0481 2413,36.5C 2424.87,23.6304 2438.7,13.4638 2454.5,6C 2462.46,3.17941 2470.46,1.01274 2478.5,-0.5 Z"/></g>
<g><path style="opacity:1" fill="#fcc901" d="M 2593.5,119.5 C 2592.93,118.027 2592.09,116.693 2591,115.5C 2574,125.977 2555.5,129.977 2535.5,127.5C 2535.5,130.167 2535.5,132.833 2535.5,135.5C 2536.5,135.5 2537.5,135.5 2538.5,135.5C 2541.64,136.321 2544.97,136.821 2548.5,137C 2545.33,140.833 2542.17,144.667 2539,148.5C 2538.41,149.483 2538.74,150.15 2540,150.5C 2543.64,146.187 2547.31,141.853 2551,137.5C 2550.44,142.17 2550.6,146.837 2551.5,151.5C 2555.7,148.102 2559.2,144.102 2562,139.5C 2562.33,142.167 2562.67,144.833 2563,147.5C 2563.41,147.957 2563.91,148.291 2564.5,148.5C 2568.79,145.543 2572.79,142.21 2576.5,138.5C 2576.95,141.044 2576.95,143.71 2576.5,146.5C 2580.68,145.855 2584.01,143.688 2586.5,140C 2587.45,139.517 2588.45,139.351 2589.5,139.5C 2589.24,141.912 2590.24,143.579 2592.5,144.5C 2595.34,143.079 2596.68,141.079 2596.5,138.5C 2595.17,139.5 2593.83,140.5 2592.5,141.5C 2591.87,139.263 2590.53,137.597 2588.5,136.5C 2585.23,138.267 2582.4,140.6 2580,143.5C 2579.67,141.167 2579.33,138.833 2579,136.5C 2578.44,135.978 2577.77,135.645 2577,135.5C 2573.01,138.82 2569.01,142.153 2565,145.5C 2564.5,142.518 2564.34,139.518 2564.5,136.5C 2563.45,136.351 2562.45,136.517 2561.5,137C 2558.55,140.408 2555.71,143.908 2553,147.5C 2552.48,142.903 2553.64,138.903 2556.5,135.5C 2570.54,134.154 2583.54,129.821 2595.5,122.5C 2599.62,128.401 2602.95,134.734 2605.5,141.5C 2605.17,142.167 2604.83,142.833 2604.5,143.5C 2558.31,154.742 2511.64,157.242 2464.5,151C 2440.53,146.814 2416.53,142.814 2392.5,139C 2389.57,137.729 2386.9,136.062 2384.5,134C 2392.77,124.733 2398.93,114.233 2403,102.5C 2403.7,75.6082 2414.2,53.4415 2434.5,36C 2459.14,14.4668 2487.47,7.8001 2519.5,16C 2546.06,22.5586 2565.56,38.0586 2578,62.5C 2583.76,80.9065 2589.26,99.4065 2594.5,118C 2594.43,118.765 2594.1,119.265 2593.5,119.5 Z"/></g>
<g><path style="opacity:1" fill="#325696" d="M 2364.5,263.5 C 2373.9,284.629 2383.56,305.629 2393.5,326.5C 2397.17,323.5 2400.5,320.167 2403.5,316.5C 2388.36,301.215 2377.03,283.548 2369.5,263.5C 2362.94,239.935 2360.77,215.935 2363,191.5C 2363.96,185.148 2364.62,178.815 2365,172.5C 2360.45,177.537 2354.95,179.204 2348.5,177.5C 2344.24,173.507 2343.57,169.007 2346.5,164C 2344.75,160.385 2345.42,157.385 2348.5,155C 2347.51,152.547 2347.34,150.047 2348,147.5C 2348.71,146.027 2349.88,145.36 2351.5,145.5C 2351.29,143.08 2351.63,140.747 2352.5,138.5C 2353.72,137.386 2355.06,137.219 2356.5,138C 2357.25,139.734 2357.75,141.567 2358,143.5C 2358.92,142.953 2359.76,142.287 2360.5,141.5C 2358.58,137.155 2359.58,133.655 2363.5,131C 2366.31,129.259 2369.31,128.092 2372.5,127.5C 2371.15,129.423 2370.48,131.59 2370.5,134C 2373.43,144.096 2380.1,150.263 2390.5,152.5C 2390.5,153.5 2390.5,154.5 2390.5,155.5C 2388.67,154.948 2387,154.948 2385.5,155.5C 2386.17,157.5 2386.83,159.5 2387.5,161.5C 2386.58,163.756 2384.91,164.756 2382.5,164.5C 2383.22,167.323 2384.22,169.99 2385.5,172.5C 2383.53,172.261 2381.7,172.594 2380,173.5C 2372.33,209.421 2375.99,244.088 2391,277.5C 2408.62,308.411 2435.12,326.911 2470.5,333C 2494.93,336.2 2518.93,334.366 2542.5,327.5C 2543.78,332.39 2543.61,337.39 2542,342.5C 2541.02,341.226 2540.19,341.226 2539.5,342.5C 2516.42,348.629 2493.09,349.962 2469.5,346.5C 2462.07,344.731 2454.4,343.065 2446.5,341.5C 2445.4,340.402 2444.07,340.235 2442.5,341C 2434.94,345.274 2427.6,349.774 2420.5,354.5C 2417.52,355.326 2414.85,356.659 2412.5,358.5C 2410.65,358.222 2409.32,358.889 2408.5,360.5C 2413.88,371.924 2419.21,383.258 2424.5,394.5C 2427.87,401.596 2430.87,408.93 2433.5,416.5C 2428.4,416.966 2423.4,416.966 2418.5,416.5C 2417.37,411.608 2415.21,407.275 2412,403.5C 2409.84,404.244 2407.84,405.244 2406,406.5C 2403.76,405.964 2401.93,404.797 2400.5,403C 2403.35,400.416 2406.35,398.083 2409.5,396C 2408.1,391.942 2406.43,388.108 2404.5,384.5C 2404.37,382.91 2403.71,381.577 2402.5,380.5C 2400.12,382.051 2397.62,383.385 2395,384.5C 2393.04,383.708 2391.54,382.375 2390.5,380.5C 2393.56,377.985 2396.56,375.485 2399.5,373C 2397.3,368.097 2394.96,363.263 2392.5,358.5C 2389.9,359.713 2387.4,361.047 2385,362.5C 2383.1,361.464 2381.27,360.298 2379.5,359C 2382.37,355.747 2385.7,353.247 2389.5,351.5C 2387.53,346.221 2385.03,341.221 2382,336.5C 2379.39,337.599 2376.89,338.932 2374.5,340.5C 2372.25,339.876 2370.58,338.543 2369.5,336.5C 2372.45,333.687 2375.78,331.354 2379.5,329.5C 2378.82,328.14 2378.15,326.807 2377.5,325.5C 2376.04,321.248 2374.04,317.248 2371.5,313.5C 2368.57,314.547 2366.07,316.213 2364,318.5C 2362.07,317.12 2360.24,315.62 2358.5,314C 2361.93,311.307 2365.26,308.64 2368.5,306C 2366.53,301.214 2364.19,296.714 2361.5,292.5C 2358.64,293.196 2356.14,294.529 2354,296.5C 2352.17,295.333 2350.33,294.167 2348.5,293C 2351.85,290.309 2355.19,287.642 2358.5,285C 2356.75,279.709 2354.25,274.875 2351,270.5C 2348.28,271.444 2345.78,272.777 2343.5,274.5C 2341.61,273.396 2339.94,272.063 2338.5,270.5C 2341.45,267.687 2344.78,265.354 2348.5,263.5C 2347.66,260.493 2346.33,257.826 2344.5,255.5C 2343.7,252.577 2342.37,249.91 2340.5,247.5C 2337.9,248.713 2335.4,250.047 2333,251.5C 2331.1,250.464 2329.27,249.298 2327.5,248C 2330.6,244.816 2333.93,242.149 2337.5,240C 2335.22,234.614 2332.56,229.447 2329.5,224.5C 2327.04,225.929 2324.54,227.262 2322,228.5C 2320.21,227.705 2318.71,226.538 2317.5,225C 2320.31,222.099 2323.31,219.432 2326.5,217C 2324.47,212.439 2322.3,207.939 2320,203.5C 2318.95,202.483 2317.78,202.316 2316.5,203C 2314.7,203.972 2313.03,205.139 2311.5,206.5C 2309.05,205.476 2307.39,203.809 2306.5,201.5C 2309.5,199.333 2312.5,197.166 2315.5,195C 2313.43,190.194 2311.1,185.527 2308.5,181C 2305.65,181.172 2303.15,182.339 2301,184.5C 2299.85,183.257 2298.51,182.257 2297,181.5C 2296.33,180.5 2296.33,179.5 2297,178.5C 2299.62,176.779 2302.12,174.946 2304.5,173C 2302.07,168.306 2300.07,163.473 2298.5,158.5C 2295.31,158.762 2292.64,160.095 2290.5,162.5C 2288.83,161.167 2287.17,159.833 2285.5,158.5C 2287.75,155.366 2290.75,153.2 2294.5,152C 2291.93,147.024 2289.27,142.191 2286.5,137.5C 2286.26,136.903 2285.76,136.57 2285,136.5C 2283.26,137.62 2281.43,138.62 2279.5,139.5C 2277.83,138.333 2276.17,137.167 2274.5,136C 2276.89,133.271 2279.56,130.937 2282.5,129C 2280.43,124.194 2278.1,119.527 2275.5,115C 2273.24,114.956 2271.24,115.789 2269.5,117.5C 2268.09,116.376 2266.59,115.376 2265,114.5C 2264.33,113.833 2264.33,113.167 2265,112.5C 2267.48,111.015 2269.64,109.181 2271.5,107C 2269.83,101.831 2267.5,96.9972 2264.5,92.5C 2262.67,93.2485 2261,94.2485 2259.5,95.5C 2256.63,94.8078 2255.13,93.1411 2255,90.5C 2257.11,88.5397 2259.27,86.7064 2261.5,85C 2260.84,82.1459 2259.34,79.9792 2257,78.5C 2245.25,83.8611 2233.42,89.0278 2221.5,94C 2213.51,97.6584 2205.85,101.825 2198.5,106.5C 2199.5,108.51 2200.5,110.51 2201.5,112.5C 2204.08,111.294 2206.58,109.961 2209,108.5C 2210.17,110.167 2211.33,111.833 2212.5,113.5C 2209.92,115.932 2207.26,118.098 2204.5,120C 2206.17,125.169 2208.5,130.003 2211.5,134.5C 2214.04,133.598 2216.54,132.598 2219,131.5C 2220.82,132.604 2222.32,134.104 2223.5,136C 2221,137.753 2218.33,139.253 2215.5,140.5C 2214.22,141.958 2214.22,143.292 2215.5,144.5C 2216.7,148.578 2218.2,152.578 2220,156.5C 2220.77,157.598 2221.6,157.598 2222.5,156.5C 2224.95,154.767 2227.61,153.933 2230.5,154C 2234.45,157.984 2233.45,160.484 2227.5,161.5C 2225.8,162.016 2224.47,163.016 2223.5,164.5C 2225.73,169.954 2228.23,175.287 2231,180.5C 2233.64,178.762 2236.48,177.429 2239.5,176.5C 2241.69,177.322 2243.35,178.822 2244.5,181C 2240.52,182.707 2236.86,184.874 2233.5,187.5C 2235.93,192.693 2238.59,197.693 2241.5,202.5C 2244.59,201.023 2247.59,199.356 2250.5,197.5C 2252.06,198.945 2253.4,200.611 2254.5,202.5C 2251.87,204.821 2248.87,206.654 2245.5,208C 2244.94,208.725 2244.61,209.558 2244.5,210.5C 2246.3,215.44 2248.64,220.107 2251.5,224.5C 2254.75,222.961 2257.91,221.294 2261,219.5C 2261.71,220.381 2262.54,221.047 2263.5,221.5C 2264.03,222.847 2264.19,224.181 2264,225.5C 2260.03,227.226 2256.53,229.56 2253.5,232.5C 2255.38,238.317 2257.55,243.984 2260,249.5C 2263.42,246.539 2267.25,244.206 2271.5,242.5C 2273.54,243.579 2274.88,245.246 2275.5,247.5C 2271.68,249.733 2267.85,252.066 2264,254.5C 2263.03,252.74 2261.87,252.406 2260.5,253.5C 2263.33,259.822 2266.66,265.822 2270.5,271.5C 2274.22,268.973 2278.22,266.973 2282.5,265.5C 2283.89,266.605 2285.06,267.939 2286,269.5C 2286.69,270.332 2286.52,270.998 2285.5,271.5C 2281.11,273.694 2277.11,275.694 2273.5,277.5C 2275.76,280.357 2277.76,283.357 2279.5,286.5C 2280.29,289.103 2281.79,291.103 2284,292.5C 2287,291.167 2290,289.833 2293,288.5C 2294.82,289.604 2296.32,291.104 2297.5,293C 2293.45,295.018 2289.78,297.518 2286.5,300.5C 2287.5,302.5 2288.5,304.5 2289.5,306.5C 2296.33,306.96 2302.99,308.127 2309.5,310C 2313.62,313.755 2314.62,318.255 2312.5,323.5C 2322.78,325.729 2325.11,331.396 2319.5,340.5C 2323.85,341.382 2327.51,343.382 2330.5,346.5C 2331.97,351.606 2330.97,356.272 2327.5,360.5C 2335.22,364.336 2336.55,369.836 2331.5,377C 2332.83,377 2334.17,377 2335.5,377C 2336.38,378.586 2337.38,380.086 2338.5,381.5C 2334.63,383.597 2330.96,385.931 2327.5,388.5C 2330.04,393.082 2332.71,397.582 2335.5,402C 2338.61,401.457 2341.61,400.29 2344.5,398.5C 2347.74,399.845 2348.74,402.012 2347.5,405C 2344.9,405.977 2342.4,407.144 2340,408.5C 2339.23,410.352 2339.73,411.686 2341.5,412.5C 2343.05,416.598 2344.88,420.598 2347,424.5C 2349.88,423.311 2352.71,421.978 2355.5,420.5C 2357.06,421.945 2358.4,423.611 2359.5,425.5C 2357,427.253 2354.33,428.753 2351.5,430C 2350.98,430.561 2350.64,431.228 2350.5,432C 2352.21,436.59 2354.54,440.757 2357.5,444.5C 2360.17,443.167 2362.83,441.833 2365.5,440.5C 2367.54,441.579 2368.88,443.246 2369.5,445.5C 2367,447.253 2364.33,448.753 2361.5,450C 2360.98,450.561 2360.64,451.228 2360.5,452C 2362.04,456.251 2364.21,460.085 2367,463.5C 2369.7,462.061 2372.54,461.061 2375.5,460.5C 2376.29,461.915 2376.96,463.415 2377.5,465C 2375.64,466.755 2373.64,468.255 2371.5,469.5C 2370.62,469.369 2369.96,469.702 2369.5,470.5C 2370.94,473.724 2372.61,476.724 2374.5,479.5C 2374.96,481.757 2375.96,483.757 2377.5,485.5C 2382.39,481.114 2386.06,481.781 2388.5,487.5C 2385.63,489.097 2382.96,490.93 2380.5,493C 2382.37,497.915 2384.87,502.415 2388,506.5C 2390.23,505.637 2392.39,504.637 2394.5,503.5C 2395.89,504.605 2397.06,505.939 2398,507.5C 2398.62,508.449 2398.45,509.282 2397.5,510C 2395,510.885 2392.67,512.052 2390.5,513.5C 2390.94,514.739 2391.61,515.739 2392.5,516.5C 2393.75,520.176 2395.42,523.676 2397.5,527C 2400.27,527.21 2402.77,526.377 2405,524.5C 2406.17,526.167 2407.33,527.833 2408.5,529.5C 2406.17,531.331 2403.84,533.165 2401.5,535C 2403.47,539.108 2405.3,543.275 2407,547.5C 2409.37,548.543 2411.54,548.21 2413.5,546.5C 2414.16,548.81 2414.5,551.31 2414.5,554C 2414.39,557.105 2413.72,559.938 2412.5,562.5C 2409.3,563.683 2406.13,565.016 2403,566.5C 2400.56,565.57 2399.06,563.903 2398.5,561.5C 2396.01,555.187 2393.01,549.187 2389.5,543.5C 2387.1,537.708 2384.44,532.041 2381.5,526.5C 2379.89,523.622 2378.56,520.622 2377.5,517.5C 2357.65,477.951 2337.98,438.284 2318.5,398.5C 2310.65,397.831 2302.99,396.331 2295.5,394C 2291.09,391.425 2289.09,387.592 2289.5,382.5C 2286.36,382.201 2284.19,380.534 2283,377.5C 2282.26,373.187 2281.76,368.853 2281.5,364.5C 2275.31,363.595 2272.65,359.929 2273.5,353.5C 2271.52,353.617 2269.85,352.95 2268.5,351.5C 2266.12,346.535 2264.46,341.368 2263.5,336C 2263.52,332.617 2264.35,329.45 2266,326.5C 2268.96,321.373 2272.8,317.04 2277.5,313.5C 2269.65,296.463 2261.31,279.796 2252.5,263.5C 2227.82,209.634 2203.82,155.467 2180.5,101C 2191.35,93.0689 2203.02,86.4022 2215.5,81C 2231.4,74.7167 2247.07,67.8834 2262.5,60.5C 2298.33,127.166 2332.33,194.832 2364.5,263.5 Z M 2365.5,143.5 C 2368,143.511 2368.17,144.178 2366,145.5C 2365.54,144.906 2365.37,144.239 2365.5,143.5 Z M 2360.5,160.5 C 2358.91,162.306 2356.91,163.639 2354.5,164.5C 2352.05,163.573 2351.22,161.906 2352,159.5C 2354.72,160.444 2357.55,160.777 2360.5,160.5 Z M 2365.5,163.5 C 2368.01,164.216 2368.01,165.216 2365.5,166.5C 2364.91,165.767 2364.91,164.767 2365.5,163.5 Z M 2350.5,169.5 C 2353.17,169.5 2355.83,169.5 2358.5,169.5C 2356.81,172.005 2354.48,172.838 2351.5,172C 2350.75,171.329 2350.41,170.496 2350.5,169.5 Z"/></g>
<g><path style="opacity:1" fill="#f3b184" d="M 2286.5,137.5 C 2267.59,147.203 2248.43,156.536 2229,165.5C 2227.81,164.437 2227.31,163.103 2227.5,161.5C 2233.45,160.484 2234.45,157.984 2230.5,154C 2227.61,153.933 2224.95,154.767 2222.5,156.5C 2220.67,152.164 2218.33,148.164 2215.5,144.5C 2214.22,143.292 2214.22,141.958 2215.5,140.5C 2218.33,139.253 2221,137.753 2223.5,136C 2222.32,134.104 2220.82,132.604 2219,131.5C 2216.54,132.598 2214.04,133.598 2211.5,134.5C 2208.5,130.003 2206.17,125.169 2204.5,120C 2207.26,118.098 2209.92,115.932 2212.5,113.5C 2211.33,111.833 2210.17,110.167 2209,108.5C 2206.58,109.961 2204.08,111.294 2201.5,112.5C 2200.5,110.51 2199.5,108.51 2198.5,106.5C 2205.85,101.825 2213.51,97.6584 2221.5,94C 2233.42,89.0278 2245.25,83.8611 2257,78.5C 2259.34,79.9792 2260.84,82.1459 2261.5,85C 2259.27,86.7064 2257.11,88.5397 2255,90.5C 2255.13,93.1411 2256.63,94.8078 2259.5,95.5C 2261,94.2485 2262.67,93.2485 2264.5,92.5C 2267.5,96.9972 2269.83,101.831 2271.5,107C 2269.64,109.181 2267.48,111.015 2265,112.5C 2264.33,113.167 2264.33,113.833 2265,114.5C 2266.59,115.376 2268.09,116.376 2269.5,117.5C 2271.24,115.789 2273.24,114.956 2275.5,115C 2278.1,119.527 2280.43,124.194 2282.5,129C 2279.56,130.937 2276.89,133.271 2274.5,136C 2276.17,137.167 2277.83,138.333 2279.5,139.5C 2281.43,138.62 2283.26,137.62 2285,136.5C 2285.76,136.57 2286.26,136.903 2286.5,137.5 Z"/></g>
<g><path style="opacity:1" fill="#315089" d="M 2524.5,85.5 C 2525.83,85.5 2527.17,85.5 2528.5,85.5C 2528.33,89.1817 2528.5,92.8484 2529,96.5C 2531.17,94.3333 2533.33,92.1667 2535.5,90C 2536.97,89.3987 2537.97,89.8987 2538.5,91.5C 2536.63,93.5351 2534.96,95.7017 2533.5,98C 2534.76,100.922 2536.42,103.589 2538.5,106C 2537.24,106.982 2535.91,107.315 2534.5,107C 2532.54,104.252 2530.71,101.418 2529,98.5C 2528.5,101.817 2528.33,105.15 2528.5,108.5C 2526.83,108.5 2525.17,108.5 2523.5,108.5C 2524.26,100.858 2524.6,93.1912 2524.5,85.5 Z"/></g>
<g><path style="opacity:1" fill="#30508b" d="M 2475.5,87.5 C 2475.5,94.5 2475.5,101.5 2475.5,108.5C 2474.17,108.5 2472.83,108.5 2471.5,108.5C 2471.67,104.818 2471.5,101.152 2471,97.5C 2470.21,98.745 2469.71,100.078 2469.5,101.5C 2468.66,102.641 2467.99,103.974 2467.5,105.5C 2466.68,106.386 2465.68,106.719 2464.5,106.5C 2463.98,103.432 2463.14,100.432 2462,97.5C 2461.51,99.1341 2461.34,100.801 2461.5,102.5C 2460.54,104.265 2460.21,106.265 2460.5,108.5C 2459.17,108.5 2457.83,108.5 2456.5,108.5C 2457.25,101.191 2457.58,93.8578 2457.5,86.5C 2459.14,86.2865 2460.64,86.6198 2462,87.5C 2463.05,91.3794 2464.55,95.046 2466.5,98.5C 2468.36,94.9273 2470.02,91.2607 2471.5,87.5C 2472.81,86.3744 2474.14,86.3744 2475.5,87.5 Z"/></g>
<g><path style="opacity:1" fill="#2f528f" d="M 2503.5,109.5 C 2503.5,103.167 2503.5,96.8333 2503.5,90.5C 2501.9,90.2322 2500.57,90.5655 2499.5,91.5C 2497.74,90.4479 2497.08,88.7812 2497.5,86.5C 2502.83,86.5 2508.17,86.5 2513.5,86.5C 2513.5,87.5 2513.5,88.5 2513.5,89.5C 2511.5,89.5 2509.5,89.5 2507.5,89.5C 2507.71,96.2105 2507.38,102.877 2506.5,109.5C 2505.5,109.5 2504.5,109.5 2503.5,109.5 Z"/></g>
<g><path style="opacity:1" fill="#3d476c" d="M 2517.5,86.5 C 2521.16,86.3501 2522.16,87.8501 2520.5,91C 2519.21,91.49 2517.87,91.6567 2516.5,91.5C 2516.37,89.7085 2516.7,88.0418 2517.5,86.5 Z"/></g>
<g><path style="opacity:1" fill="#324d83" d="M 2553.5,100.5 C 2552.53,102.607 2552.2,104.941 2552.5,107.5C 2551.04,107.567 2549.71,107.234 2548.5,106.5C 2544.19,109.84 2541.52,108.84 2540.5,103.5C 2541.93,98.119 2545.26,96.4523 2550.5,98.5C 2550.68,94.8421 2549.18,93.8421 2546,95.5C 2544.94,95.3699 2544.11,94.8699 2543.5,94C 2550.57,90.453 2553.9,92.6197 2553.5,100.5 Z"/></g>
<g><path style="opacity:1" fill="#334b7f" d="M 2479.5,93.5 C 2480.5,93.5 2481.5,93.5 2482.5,93.5C 2482.44,97.1331 2483.44,97.2998 2485.5,94C 2490.08,93.0663 2491.58,94.8996 2490,99.5C 2488.99,100.337 2487.82,100.67 2486.5,100.5C 2486.72,99.325 2486.39,98.325 2485.5,97.5C 2481.92,100.623 2480.59,104.623 2481.5,109.5C 2480.17,109.5 2478.83,109.5 2477.5,109.5C 2477.99,104.103 2478.66,98.7695 2479.5,93.5 Z"/></g>
<g><path style="opacity:1" fill="#2e518e" d="M 2516.5,93.5 C 2517.83,93.5 2519.17,93.5 2520.5,93.5C 2520.67,98.1785 2520.5,102.845 2520,107.5C 2518.95,109.107 2517.45,109.773 2515.5,109.5C 2516.19,104.195 2516.53,98.8617 2516.5,93.5 Z"/></g>
<g><path style="opacity:1" fill="#d1a700" d="M 2545.5,100.5 C 2546.83,100.5 2548.17,100.5 2549.5,100.5C 2549.5,103.833 2547.83,105.5 2544.5,105.5C 2544.37,103.708 2544.7,102.042 2545.5,100.5 Z"/></g>
<g><path style="opacity:1" fill="#816501" d="M 2499.5,91.5 C 2500.57,90.5655 2501.9,90.2322 2503.5,90.5C 2503.5,96.8333 2503.5,103.167 2503.5,109.5C 2502.51,103.69 2502.18,97.69 2502.5,91.5C 2501.5,91.5 2500.5,91.5 2499.5,91.5 Z"/></g>
<g><path style="opacity:1" fill="#b08c02" d="M 2475.5,87.5 C 2476.49,94.6476 2476.82,101.981 2476.5,109.5C 2474.5,109.5 2472.5,109.5 2470.5,109.5C 2470.81,106.615 2470.47,103.948 2469.5,101.5C 2469.71,100.078 2470.21,98.745 2471,97.5C 2471.5,101.152 2471.67,104.818 2471.5,108.5C 2472.83,108.5 2474.17,108.5 2475.5,108.5C 2475.5,101.5 2475.5,94.5 2475.5,87.5 Z"/></g>
<g><path style="opacity:1" fill="#475b84" d="M 2405.5,105.5 C 2417.91,111.36 2430.91,115.527 2444.5,118C 2448.82,118.499 2453.15,118.666 2457.5,118.5C 2457.5,119.5 2457.5,120.5 2457.5,121.5C 2439.38,121.221 2422.38,116.721 2406.5,108C 2405.75,107.329 2405.41,106.496 2405.5,105.5 Z"/></g>
<g><path style="opacity:1" fill="#775e02" d="M 2553.5,100.5 C 2553.5,103.167 2553.5,105.833 2553.5,108.5C 2551.22,108.923 2549.55,108.256 2548.5,106.5C 2549.71,107.234 2551.04,107.567 2552.5,107.5C 2552.2,104.941 2552.53,102.607 2553.5,100.5 Z"/></g>
<g><path style="opacity:1" fill="#4b3a02" d="M 2461.5,102.5 C 2461.5,104.833 2461.5,107.167 2461.5,109.5C 2459.59,109.784 2457.92,109.451 2456.5,108.5C 2457.83,108.5 2459.17,108.5 2460.5,108.5C 2460.21,106.265 2460.54,104.265 2461.5,102.5 Z"/></g>
<g><path style="opacity:1" fill="#2f528f" d="M 2493.5,108.5 C 2495.97,109.36 2496.14,110.694 2494,112.5C 2492.23,111.318 2492.07,109.985 2493.5,108.5 Z"/></g>
<g><path style="opacity:1" fill="#3a558a" d="M 2403.5,109.5 C 2420.07,119.477 2438.07,124.144 2457.5,123.5C 2457.5,126.5 2457.5,129.5 2457.5,132.5C 2437.56,132.183 2418.9,127.183 2401.5,117.5C 2401.17,116.833 2400.83,116.167 2400.5,115.5C 2401.49,113.506 2402.49,111.506 2403.5,109.5 Z"/></g>
<g><path style="opacity:1" fill="#475b83" d="M 2587.5,110.5 C 2589.33,111.14 2589.67,112.14 2588.5,113.5C 2572.42,123.049 2555.09,126.715 2536.5,124.5C 2536.5,123.5 2536.5,122.5 2536.5,121.5C 2555.12,124.565 2572.12,120.898 2587.5,110.5 Z"/></g>
<g><path style="opacity:1" fill="#39558b" d="M 2593.5,119.5 C 2594.17,120.5 2594.83,121.5 2595.5,122.5C 2583.54,129.821 2570.54,134.154 2556.5,135.5C 2555.24,135.096 2554.08,134.429 2553,133.5C 2548.35,135.273 2543.52,135.939 2538.5,135.5C 2537.5,135.5 2536.5,135.5 2535.5,135.5C 2535.5,132.833 2535.5,130.167 2535.5,127.5C 2555.5,129.977 2574,125.977 2591,115.5C 2592.09,116.693 2592.93,118.027 2593.5,119.5 Z"/></g>
<g><path style="opacity:1" fill="#886905" d="M 2556.5,135.5 C 2553.64,138.903 2552.48,142.903 2553,147.5C 2555.71,143.908 2558.55,140.408 2561.5,137C 2562.45,136.517 2563.45,136.351 2564.5,136.5C 2564.34,139.518 2564.5,142.518 2565,145.5C 2569.01,142.153 2573.01,138.82 2577,135.5C 2577.77,135.645 2578.44,135.978 2579,136.5C 2579.33,138.833 2579.67,141.167 2580,143.5C 2582.4,140.6 2585.23,138.267 2588.5,136.5C 2590.53,137.597 2591.87,139.263 2592.5,141.5C 2593.83,140.5 2595.17,139.5 2596.5,138.5C 2596.68,141.079 2595.34,143.079 2592.5,144.5C 2590.24,143.579 2589.24,141.912 2589.5,139.5C 2588.45,139.351 2587.45,139.517 2586.5,140C 2584.01,143.688 2580.68,145.855 2576.5,146.5C 2576.95,143.71 2576.95,141.044 2576.5,138.5C 2572.79,142.21 2568.79,145.543 2564.5,148.5C 2563.91,148.291 2563.41,147.957 2563,147.5C 2562.67,144.833 2562.33,142.167 2562,139.5C 2559.2,144.102 2555.7,148.102 2551.5,151.5C 2550.6,146.837 2550.44,142.17 2551,137.5C 2547.31,141.853 2543.64,146.187 2540,150.5C 2538.74,150.15 2538.41,149.483 2539,148.5C 2542.17,144.667 2545.33,140.833 2548.5,137C 2544.97,136.821 2541.64,136.321 2538.5,135.5C 2543.52,135.939 2548.35,135.273 2553,133.5C 2554.08,134.429 2555.24,135.096 2556.5,135.5 Z"/></g>
<g><path style="opacity:1" fill="#fdfdfd" d="M 2286.5,137.5 C 2289.27,142.191 2291.93,147.024 2294.5,152C 2290.75,153.2 2287.75,155.366 2285.5,158.5C 2287.17,159.833 2288.83,161.167 2290.5,162.5C 2292.64,160.095 2295.31,158.762 2298.5,158.5C 2300.07,163.473 2302.07,168.306 2304.5,173C 2302.12,174.946 2299.62,176.779 2297,178.5C 2296.33,179.5 2296.33,180.5 2297,181.5C 2298.51,182.257 2299.85,183.257 2301,184.5C 2303.15,182.339 2305.65,181.172 2308.5,181C 2311.1,185.527 2313.43,190.194 2315.5,195C 2312.5,197.166 2309.5,199.333 2306.5,201.5C 2292.04,207.896 2277.71,214.562 2263.5,221.5C 2262.54,221.047 2261.71,220.381 2261,219.5C 2257.91,221.294 2254.75,222.961 2251.5,224.5C 2248.64,220.107 2246.3,215.44 2244.5,210.5C 2244.61,209.558 2244.94,208.725 2245.5,208C 2248.87,206.654 2251.87,204.821 2254.5,202.5C 2253.4,200.611 2252.06,198.945 2250.5,197.5C 2247.59,199.356 2244.59,201.023 2241.5,202.5C 2238.59,197.693 2235.93,192.693 2233.5,187.5C 2236.86,184.874 2240.52,182.707 2244.5,181C 2243.35,178.822 2241.69,177.322 2239.5,176.5C 2236.48,177.429 2233.64,178.762 2231,180.5C 2228.23,175.287 2225.73,169.954 2223.5,164.5C 2224.47,163.016 2225.8,162.016 2227.5,161.5C 2227.31,163.103 2227.81,164.437 2229,165.5C 2248.43,156.536 2267.59,147.203 2286.5,137.5 Z"/></g>
<g><path style="opacity:1" fill="#feebd8" d="M 2390.5,152.5 C 2415.45,156.881 2440.45,161.048 2465.5,165C 2511.17,170.206 2556.5,168.039 2601.5,158.5C 2602.73,161.561 2603.73,164.728 2604.5,168C 2604.05,169.285 2603.38,170.452 2602.5,171.5C 2603.26,176.681 2605.76,180.681 2610,183.5C 2615.02,215.986 2611.02,247.319 2598,277.5C 2593.06,286.258 2587.56,294.591 2581.5,302.5C 2573.78,298.572 2565.78,297.738 2557.5,300C 2554,302.167 2551.17,305 2549,308.5C 2546.66,314.905 2544.49,321.238 2542.5,327.5C 2518.93,334.366 2494.93,336.2 2470.5,333C 2435.12,326.911 2408.62,308.411 2391,277.5C 2375.99,244.088 2372.33,209.421 2380,173.5C 2381.7,172.594 2383.53,172.261 2385.5,172.5C 2384.22,169.99 2383.22,167.323 2382.5,164.5C 2384.91,164.756 2386.58,163.756 2387.5,161.5C 2386.83,159.5 2386.17,157.5 2385.5,155.5C 2387,154.948 2388.67,154.948 2390.5,155.5C 2390.5,154.5 2390.5,153.5 2390.5,152.5 Z"/></g>
<g><path style="opacity:1" fill="#efeef0" d="M 2215.5,144.5 C 2218.33,148.164 2220.67,152.164 2222.5,156.5C 2221.6,157.598 2220.77,157.598 2220,156.5C 2218.2,152.578 2216.7,148.578 2215.5,144.5 Z"/></g>
<g><path style="opacity:1" fill="#395892" d="M 2461.5,185.5 C 2468.87,184.876 2472.87,188.209 2473.5,195.5C 2469.93,195.959 2466.93,194.959 2464.5,192.5C 2462.13,194.223 2459.47,194.89 2456.5,194.5C 2456.86,190.778 2458.53,187.778 2461.5,185.5 Z"/></g>
<g><path style="opacity:1" fill="#375791" d="M 2510.5,185.5 C 2517.4,184.743 2521.4,187.743 2522.5,194.5C 2519.43,194.813 2516.6,194.146 2514,192.5C 2512.72,192.613 2511.89,193.28 2511.5,194.5C 2509.26,195.474 2506.92,195.808 2504.5,195.5C 2504.97,191.221 2506.97,187.888 2510.5,185.5 Z"/></g>
<g><path style="opacity:1" fill="#f2b083" d="M 2306.5,201.5 C 2307.39,203.809 2309.05,205.476 2311.5,206.5C 2313.03,205.139 2314.7,203.972 2316.5,203C 2317.78,202.316 2318.95,202.483 2320,203.5C 2322.3,207.939 2324.47,212.439 2326.5,217C 2323.31,219.432 2320.31,222.099 2317.5,225C 2318.71,226.538 2320.21,227.705 2322,228.5C 2324.54,227.262 2327.04,225.929 2329.5,224.5C 2332.56,229.447 2335.22,234.614 2337.5,240C 2333.93,242.149 2330.6,244.816 2327.5,248C 2329.27,249.298 2331.1,250.464 2333,251.5C 2335.4,250.047 2337.9,248.713 2340.5,247.5C 2342.37,249.91 2343.7,252.577 2344.5,255.5C 2337.95,259.781 2330.95,263.614 2323.5,267C 2308.92,273.793 2294.25,280.293 2279.5,286.5C 2277.76,283.357 2275.76,280.357 2273.5,277.5C 2277.11,275.694 2281.11,273.694 2285.5,271.5C 2286.52,270.998 2286.69,270.332 2286,269.5C 2285.06,267.939 2283.89,266.605 2282.5,265.5C 2278.22,266.973 2274.22,268.973 2270.5,271.5C 2266.66,265.822 2263.33,259.822 2260.5,253.5C 2261.87,252.406 2263.03,252.74 2264,254.5C 2267.85,252.066 2271.68,249.733 2275.5,247.5C 2274.88,245.246 2273.54,243.579 2271.5,242.5C 2267.25,244.206 2263.42,246.539 2260,249.5C 2257.55,243.984 2255.38,238.317 2253.5,232.5C 2256.53,229.56 2260.03,227.226 2264,225.5C 2264.19,224.181 2264.03,222.847 2263.5,221.5C 2277.71,214.562 2292.04,207.896 2306.5,201.5 Z"/></g>
<g><path style="opacity:1" fill="#395894" d="M 2462.5,216.5 C 2466.17,216.658 2469,218.325 2471,221.5C 2474.33,228.833 2474.33,236.167 2471,243.5C 2466.67,250.167 2462.33,250.167 2458,243.5C 2455.12,236.973 2454.79,230.307 2457,223.5C 2458.38,220.695 2460.22,218.361 2462.5,216.5 Z"/></g>
<g><path style="opacity:1" fill="#395894" d="M 2511.5,216.5 C 2515.17,216.658 2518,218.325 2520,221.5C 2523.33,228.833 2523.33,236.167 2520,243.5C 2515.67,250.167 2511.33,250.167 2507,243.5C 2504.12,236.973 2503.79,230.307 2506,223.5C 2507.38,220.695 2509.22,218.361 2511.5,216.5 Z"/></g>
<g><path style="opacity:1" fill="#fdfdfd" d="M 2344.5,255.5 C 2346.33,257.826 2347.66,260.493 2348.5,263.5C 2344.78,265.354 2341.45,267.687 2338.5,270.5C 2339.94,272.063 2341.61,273.396 2343.5,274.5C 2345.78,272.777 2348.28,271.444 2351,270.5C 2354.25,274.875 2356.75,279.709 2358.5,285C 2355.19,287.642 2351.85,290.309 2348.5,293C 2350.33,294.167 2352.17,295.333 2354,296.5C 2356.14,294.529 2358.64,293.196 2361.5,292.5C 2364.19,296.714 2366.53,301.214 2368.5,306C 2365.26,308.64 2361.93,311.307 2358.5,314C 2360.24,315.62 2362.07,317.12 2364,318.5C 2366.07,316.213 2368.57,314.547 2371.5,313.5C 2374.04,317.248 2376.04,321.248 2377.5,325.5C 2361.49,331.673 2345.82,338.673 2330.5,346.5C 2327.51,343.382 2323.85,341.382 2319.5,340.5C 2325.11,331.396 2322.78,325.729 2312.5,323.5C 2314.62,318.255 2313.62,313.755 2309.5,310C 2302.99,308.127 2296.33,306.96 2289.5,306.5C 2288.5,304.5 2287.5,302.5 2286.5,300.5C 2289.78,297.518 2293.45,295.018 2297.5,293C 2296.32,291.104 2294.82,289.604 2293,288.5C 2290,289.833 2287,291.167 2284,292.5C 2281.79,291.103 2280.29,289.103 2279.5,286.5C 2294.25,280.293 2308.92,273.793 2323.5,267C 2330.95,263.614 2337.95,259.781 2344.5,255.5 Z"/></g>
<g><path style="opacity:1" fill="#4a71a0" d="M 2252.5,263.5 C 2261.31,279.796 2269.65,296.463 2277.5,313.5C 2272.8,317.04 2268.96,321.373 2266,326.5C 2264.35,329.45 2263.52,332.617 2263.5,336C 2264.46,341.368 2266.12,346.535 2268.5,351.5C 2269.85,352.95 2271.52,353.617 2273.5,353.5C 2272.65,359.929 2275.31,363.595 2281.5,364.5C 2281.76,368.853 2282.26,373.187 2283,377.5C 2284.19,380.534 2286.36,382.201 2289.5,382.5C 2289.09,387.592 2291.09,391.425 2295.5,394C 2302.99,396.331 2310.65,397.831 2318.5,398.5C 2337.98,438.284 2357.65,477.951 2377.5,517.5C 2374.91,518.254 2373.08,519.921 2372,522.5C 2370.38,525.979 2369.55,529.646 2369.5,533.5C 2370.42,540.754 2372.25,547.754 2375,554.5C 2376.99,558.49 2380.16,560.99 2384.5,562C 2389.35,562.815 2394.02,562.648 2398.5,561.5C 2399.06,563.903 2400.56,565.57 2403,566.5C 2406.13,565.016 2409.3,563.683 2412.5,562.5C 2449.14,564.143 2485.81,565.143 2522.5,565.5C 2545.86,565.583 2569.19,564.916 2592.5,563.5C 2600.24,563.856 2607.9,563.356 2615.5,562C 2618.94,560.895 2621.44,558.728 2623,555.5C 2624.66,550.181 2626.32,544.847 2628,539.5C 2630.08,527.332 2625.58,518.665 2614.5,513.5C 2614.83,492.327 2614.5,471.327 2613.5,450.5C 2627.93,426.212 2631.6,400.378 2624.5,373C 2628.08,352.717 2623.58,334.55 2611,318.5C 2606.47,313.633 2601.63,309.133 2596.5,305C 2606.09,292.325 2613.42,278.492 2618.5,263.5C 2632.28,260.972 2642.11,265.972 2648,278.5C 2648.67,371.833 2648.67,465.167 2648,558.5C 2645.17,565.333 2640.33,570.167 2633.5,573C 1760.5,573.667 887.5,573.667 14.5,573C 7.64677,569.979 2.64677,565.145 -0.5,558.5C -0.5,465.167 -0.5,371.833 -0.5,278.5C 2.64677,271.855 7.64677,267.021 14.5,264C 760.5,263.5 1506.5,263.333 2252.5,263.5 Z"/></g>
<g><path style="opacity:1" fill="#496f9f" d="M 2364.5,263.5 C 2366.17,263.5 2367.83,263.5 2369.5,263.5C 2377.03,283.548 2388.36,301.215 2403.5,316.5C 2400.5,320.167 2397.17,323.5 2393.5,326.5C 2383.56,305.629 2373.9,284.629 2364.5,263.5 Z"/></g>
<g><path style="opacity:1" fill="#ca6623" d="M 2442.5,264.5 C 2444.06,266.372 2445.06,268.705 2445.5,271.5C 2448.17,270.167 2450.83,268.833 2453.5,267.5C 2453.83,267.833 2454.17,268.167 2454.5,268.5C 2451.06,271.554 2447.06,273.554 2442.5,274.5C 2442.66,272.473 2442.5,270.473 2442,268.5C 2439.65,271.017 2437.15,273.35 2434.5,275.5C 2433.7,273.922 2433.2,272.256 2433,270.5C 2431.11,273.242 2428.61,274.909 2425.5,275.5C 2425.59,273.323 2426.25,271.323 2427.5,269.5C 2427.17,269.167 2426.83,268.833 2426.5,268.5C 2424.34,270.412 2422.01,272.079 2419.5,273.5C 2419.17,273 2418.83,272.5 2418.5,272C 2421.69,268.303 2425.69,266.136 2430.5,265.5C 2430.35,266.552 2430.52,267.552 2431,268.5C 2432.26,266.393 2434.1,265.393 2436.5,265.5C 2436.34,267.199 2436.51,268.866 2437,270.5C 2439.04,268.63 2440.87,266.63 2442.5,264.5 Z"/></g>
<g><path style="opacity:1" fill="#ca6623" d="M 2551.5,264.5 C 2553.06,266.372 2554.06,268.705 2554.5,271.5C 2557.17,270.167 2559.83,268.833 2562.5,267.5C 2562.83,267.833 2563.17,268.167 2563.5,268.5C 2560.06,271.554 2556.06,273.554 2551.5,274.5C 2551.66,272.473 2551.5,270.473 2551,268.5C 2548.65,271.017 2546.15,273.35 2543.5,275.5C 2542.7,273.922 2542.2,272.256 2542,270.5C 2540.11,273.242 2537.61,274.909 2534.5,275.5C 2534.59,273.323 2535.25,271.323 2536.5,269.5C 2536.17,269.167 2535.83,268.833 2535.5,268.5C 2533.34,270.412 2531.01,272.079 2528.5,273.5C 2528.17,273 2527.83,272.5 2527.5,272C 2530.69,268.303 2534.69,266.136 2539.5,265.5C 2539.35,266.552 2539.52,267.552 2540,268.5C 2541.26,266.393 2543.1,265.393 2545.5,265.5C 2545.34,267.199 2545.51,268.866 2546,270.5C 2548.04,268.63 2549.87,266.63 2551.5,264.5 Z"/></g>
<g><path style="opacity:1" fill="#3b5992" d="M 2502.5,287.5 C 2504.83,287.5 2507.17,287.5 2509.5,287.5C 2510.1,290.168 2511.77,292.002 2514.5,293C 2511.26,296.821 2508.26,300.821 2505.5,305C 2495.72,311.87 2485.72,312.204 2475.5,306C 2471.72,302.276 2469.72,297.776 2469.5,292.5C 2471.83,292.5 2474.17,292.5 2476.5,292.5C 2476.68,297.853 2479.35,301.353 2484.5,303C 2491.69,304.381 2497.85,302.547 2503,297.5C 2503.64,296.391 2504.14,295.225 2504.5,294C 2503.39,291.953 2502.72,289.787 2502.5,287.5 Z"/></g>
<g><path style="opacity:1" fill="#335490" d="M 2581.5,302.5 C 2584.63,305.773 2586.96,309.44 2588.5,313.5C 2589.97,320.12 2592.31,326.454 2595.5,332.5C 2597.45,336.634 2598.28,340.967 2598,345.5C 2595.56,347.447 2593.06,349.114 2590.5,350.5C 2588.63,351.165 2586.63,351.831 2584.5,352.5C 2582.9,354.179 2582.23,356.179 2582.5,358.5C 2578.56,352.963 2575.4,346.963 2573,340.5C 2571.97,333.22 2572.97,326.22 2576,319.5C 2576.67,317.5 2576.67,315.5 2576,313.5C 2566.69,306.619 2560.36,308.619 2557,319.5C 2551.76,336.583 2552.59,353.25 2559.5,369.5C 2554.98,366.071 2549.98,363.404 2544.5,361.5C 2544.61,358.941 2543.94,356.608 2542.5,354.5C 2535.89,358.204 2528.89,361.038 2521.5,363C 2524.74,364.47 2528.08,365.637 2531.5,366.5C 2529.82,368.887 2528.49,371.554 2527.5,374.5C 2524.83,373.833 2522.17,373.167 2519.5,372.5C 2511.76,369.95 2504.1,369.95 2496.5,372.5C 2495.57,386.49 2494.9,400.49 2494.5,414.5C 2491.5,414.5 2488.5,414.5 2485.5,414.5C 2485.5,399.5 2485.5,384.5 2485.5,369.5C 2478.91,369.678 2472.57,370.678 2466.5,372.5C 2463.73,372.858 2461.07,373.525 2458.5,374.5C 2451.98,376.631 2445.32,377.464 2438.5,377C 2436.71,376.215 2435.21,375.049 2434,373.5C 2434.01,369.775 2434.68,366.108 2436,362.5C 2439.55,355.408 2443.05,348.408 2446.5,341.5C 2454.4,343.065 2462.07,344.731 2469.5,346.5C 2468.76,346.369 2468.09,346.536 2467.5,347C 2477.55,351.441 2487.38,356.275 2497,361.5C 2509.83,357 2522.67,352.5 2535.5,348C 2537.46,346.549 2538.8,344.716 2539.5,342.5C 2540.19,341.226 2541.02,341.226 2542,342.5C 2543.61,337.39 2543.78,332.39 2542.5,327.5C 2544.49,321.238 2546.66,314.905 2549,308.5C 2551.17,305 2554,302.167 2557.5,300C 2565.78,297.738 2573.78,298.572 2581.5,302.5 Z"/></g>
<g><path style="opacity:1" fill="#fae8d7" d="M 2582.5,358.5 C 2582.83,361.311 2583.66,363.978 2585,366.5C 2585.29,364.956 2585.96,363.623 2587,362.5C 2593.78,365.093 2600.28,368.259 2606.5,372C 2616.01,381.205 2619.51,392.372 2617,405.5C 2615.14,418.07 2611.48,430.07 2606,441.5C 2603.62,444.273 2600.78,446.439 2597.5,448C 2587.25,452.536 2576.58,454.536 2565.5,454C 2559.75,450.748 2554.41,446.915 2549.5,442.5C 2549.83,442.167 2550.17,441.833 2550.5,441.5C 2558.88,447.681 2568.22,449.848 2578.5,448C 2584.93,446.809 2591.26,445.142 2597.5,443C 2601.05,437.585 2599.72,434.085 2593.5,432.5C 2588.44,433.847 2583.44,435.347 2578.5,437C 2568.92,438.14 2560.25,435.807 2552.5,430C 2549.17,427.333 2545.83,424.667 2542.5,422C 2547.87,424.847 2553.54,427.514 2559.5,430C 2571.88,432.422 2583.88,431.089 2595.5,426C 2599.05,420.514 2597.71,417.014 2591.5,415.5C 2585.84,417.108 2580.18,418.608 2574.5,420C 2561.22,419.613 2550.05,414.446 2541,404.5C 2539.7,402.598 2539.03,400.598 2539,398.5C 2550.78,410.303 2564.94,415.136 2581.5,413C 2586.2,411.234 2590.7,409.067 2595,406.5C 2597.96,399.8 2595.8,396.633 2588.5,397C 2578.46,403.971 2568.12,404.304 2557.5,398C 2549.15,393.654 2542.82,387.321 2538.5,379C 2541.03,372.054 2544.37,371.721 2548.5,378C 2553.68,379.387 2558.34,381.72 2562.5,385C 2569.39,385.102 2571.56,381.935 2569,375.5C 2566.22,372.881 2563.05,370.881 2559.5,369.5C 2552.59,353.25 2551.76,336.583 2557,319.5C 2560.36,308.619 2566.69,306.619 2576,313.5C 2576.67,315.5 2576.67,317.5 2576,319.5C 2572.97,326.22 2571.97,333.22 2573,340.5C 2575.4,346.963 2578.56,352.963 2582.5,358.5 Z"/></g>
<g><path style="opacity:1" fill="#7c6008" d="M 2599.5,320.5 C 2598.74,324.784 2597.41,328.784 2595.5,332.5C 2592.31,326.454 2589.97,320.12 2588.5,313.5C 2590.13,312.375 2591.63,311.041 2593,309.5C 2595.68,312.865 2597.85,316.531 2599.5,320.5 Z"/></g>
<g><path style="opacity:1" fill="#f0e0d4" d="M 2292.5,318.5 C 2295.17,318.5 2297.83,318.5 2300.5,318.5C 2300.72,319.675 2300.39,320.675 2299.5,321.5C 2289.84,324.24 2282.01,329.573 2276,337.5C 2275.29,335.029 2275.63,332.695 2277,330.5C 2281.23,325.077 2286.4,321.077 2292.5,318.5 Z"/></g>
<g><path style="opacity:1" fill="#99bfe2" d="M 2599.5,320.5 C 2612.58,332.549 2618.08,347.549 2616,365.5C 2614.44,363.641 2612.61,362.141 2610.5,361C 2603.58,357.711 2596.92,354.211 2590.5,350.5C 2593.06,349.114 2595.56,347.447 2598,345.5C 2598.28,340.967 2597.45,336.634 2595.5,332.5C 2597.41,328.784 2598.74,324.784 2599.5,320.5 Z"/></g>
<g><path style="opacity:1" fill="#f2b083" d="M 2377.5,325.5 C 2378.15,326.807 2378.82,328.14 2379.5,329.5C 2375.78,331.354 2372.45,333.687 2369.5,336.5C 2370.58,338.543 2372.25,339.876 2374.5,340.5C 2376.89,338.932 2379.39,337.599 2382,336.5C 2385.03,341.221 2387.53,346.221 2389.5,351.5C 2385.7,353.247 2382.37,355.747 2379.5,359C 2381.27,360.298 2383.1,361.464 2385,362.5C 2387.4,361.047 2389.9,359.713 2392.5,358.5C 2394.96,363.263 2397.3,368.097 2399.5,373C 2396.56,375.485 2393.56,377.985 2390.5,380.5C 2391.54,382.375 2393.04,383.708 2395,384.5C 2397.62,383.385 2400.12,382.051 2402.5,380.5C 2403.71,381.577 2404.37,382.91 2404.5,384.5C 2384.76,394.785 2364.59,404.451 2344,413.5C 2343.1,413.257 2342.26,412.923 2341.5,412.5C 2339.73,411.686 2339.23,410.352 2340,408.5C 2342.4,407.144 2344.9,405.977 2347.5,405C 2348.74,402.012 2347.74,399.845 2344.5,398.5C 2341.61,400.29 2338.61,401.457 2335.5,402C 2332.71,397.582 2330.04,393.082 2327.5,388.5C 2330.96,385.931 2334.63,383.597 2338.5,381.5C 2337.38,380.086 2336.38,378.586 2335.5,377C 2334.17,377 2332.83,377 2331.5,377C 2336.55,369.836 2335.22,364.336 2327.5,360.5C 2330.97,356.272 2331.97,351.606 2330.5,346.5C 2345.82,338.673 2361.49,331.673 2377.5,325.5 Z"/></g>
<g><path style="opacity:1" fill="#99bfe3" d="M 2413.5,325.5 C 2414.55,325.351 2415.55,325.517 2416.5,326C 2421.83,329.333 2427.17,332.667 2432.5,336C 2424.71,341.562 2416.37,346.062 2407.5,349.5C 2408.47,341.25 2410.47,333.25 2413.5,325.5 Z"/></g>
<g><path style="opacity:1" fill="#f4e4d5" d="M 2298.5,333.5 C 2302.23,333.177 2305.89,333.511 2309.5,334.5C 2307.27,336.645 2304.6,338.145 2301.5,339C 2300.54,340.419 2299.71,341.919 2299,343.5C 2293.72,346.781 2289.05,350.781 2285,355.5C 2284.13,351.044 2284.47,346.711 2286,342.5C 2289.79,338.862 2293.96,335.862 2298.5,333.5 Z"/></g>
<g><path style="opacity:1" fill="#8db2d9" d="M 2584.5,331.5 C 2586.2,333.731 2587.53,336.231 2588.5,339C 2586.89,339.72 2585.39,339.554 2584,338.5C 2583.3,336.071 2583.46,333.738 2584.5,331.5 Z"/></g>
<g><path style="opacity:1" fill="#fbfb05" d="M 2446.5,341.5 C 2443.05,348.408 2439.55,355.408 2436,362.5C 2434.68,366.108 2434.01,369.775 2434,373.5C 2435.21,375.049 2436.71,376.215 2438.5,377C 2445.32,377.464 2451.98,376.631 2458.5,374.5C 2462.79,387.658 2466.46,400.991 2469.5,414.5C 2463.69,415.49 2457.69,415.823 2451.5,415.5C 2448.5,415.5 2445.5,415.5 2442.5,415.5C 2435.17,395.174 2427.84,374.84 2420.5,354.5C 2427.6,349.774 2434.94,345.274 2442.5,341C 2444.07,340.235 2445.4,340.402 2446.5,341.5 Z"/></g>
<g><path style="opacity:1" fill="#f8e7d6" d="M 2539.5,342.5 C 2538.8,344.716 2537.46,346.549 2535.5,348C 2522.67,352.5 2509.83,357 2497,361.5C 2487.38,356.275 2477.55,351.441 2467.5,347C 2468.09,346.536 2468.76,346.369 2469.5,346.5C 2493.09,349.962 2516.42,348.629 2539.5,342.5 Z"/></g>
<g><path style="opacity:1" fill="#99bfe3" d="M 2452.5,348.5 C 2459.54,353.687 2467.2,357.854 2475.5,361C 2465.18,363.331 2454.85,365.498 2444.5,367.5C 2446.88,361.062 2449.55,354.729 2452.5,348.5 Z"/></g>
<g><path style="opacity:1" fill="#315696" d="M 2618.5,263.5 C 2613.42,278.492 2606.09,292.325 2596.5,305C 2601.63,309.133 2606.47,313.633 2611,318.5C 2623.58,334.55 2628.08,352.717 2624.5,373C 2631.6,400.378 2627.93,426.212 2613.5,450.5C 2610.64,453.086 2607.64,455.42 2604.5,457.5C 2596.4,460.699 2588.07,463.199 2579.5,465C 2573.5,465.667 2567.5,465.667 2561.5,465C 2553.48,460.649 2546.31,455.149 2540,448.5C 2539.15,446.807 2538.32,445.14 2537.5,443.5C 2537.5,441.833 2537.5,440.167 2537.5,438.5C 2537.42,437.07 2537.75,435.736 2538.5,434.5C 2535.57,430.943 2532.9,427.276 2530.5,423.5C 2529.99,420.461 2529.32,417.461 2528.5,414.5C 2528.58,406.932 2527.91,399.432 2526.5,392C 2526.36,388.958 2527.03,386.125 2528.5,383.5C 2527.75,382.264 2527.42,380.93 2527.5,379.5C 2527.5,377.833 2527.5,376.167 2527.5,374.5C 2528.49,371.554 2529.82,368.887 2531.5,366.5C 2533.93,365.25 2536.27,363.75 2538.5,362C 2540.47,361.505 2542.47,361.338 2544.5,361.5C 2549.98,363.404 2554.98,366.071 2559.5,369.5C 2563.05,370.881 2566.22,372.881 2569,375.5C 2571.56,381.935 2569.39,385.102 2562.5,385C 2558.34,381.72 2553.68,379.387 2548.5,378C 2544.37,371.721 2541.03,372.054 2538.5,379C 2542.82,387.321 2549.15,393.654 2557.5,398C 2568.12,404.304 2578.46,403.971 2588.5,397C 2595.8,396.633 2597.96,399.8 2595,406.5C 2590.7,409.067 2586.2,411.234 2581.5,413C 2564.94,415.136 2550.78,410.303 2539,398.5C 2539.03,400.598 2539.7,402.598 2541,404.5C 2550.05,414.446 2561.22,419.613 2574.5,420C 2580.18,418.608 2585.84,417.108 2591.5,415.5C 2597.71,417.014 2599.05,420.514 2595.5,426C 2583.88,431.089 2571.88,432.422 2559.5,430C 2553.54,427.514 2547.87,424.847 2542.5,422C 2545.83,424.667 2549.17,427.333 2552.5,430C 2560.25,435.807 2568.92,438.14 2578.5,437C 2583.44,435.347 2588.44,433.847 2593.5,432.5C 2599.72,434.085 2601.05,437.585 2597.5,443C 2591.26,445.142 2584.93,446.809 2578.5,448C 2568.22,449.848 2558.88,447.681 2550.5,441.5C 2550.17,441.833 2549.83,442.167 2549.5,442.5C 2554.41,446.915 2559.75,450.748 2565.5,454C 2576.58,454.536 2587.25,452.536 2597.5,448C 2600.78,446.439 2603.62,444.273 2606,441.5C 2611.48,430.07 2615.14,418.07 2617,405.5C 2619.51,392.372 2616.01,381.205 2606.5,372C 2600.28,368.259 2593.78,365.093 2587,362.5C 2585.96,363.623 2585.29,364.956 2585,366.5C 2583.66,363.978 2582.83,361.311 2582.5,358.5C 2582.23,356.179 2582.9,354.179 2584.5,352.5C 2586.63,351.831 2588.63,351.165 2590.5,350.5C 2596.92,354.211 2603.58,357.711 2610.5,361C 2612.61,362.141 2614.44,363.641 2616,365.5C 2618.08,347.549 2612.58,332.549 2599.5,320.5C 2597.85,316.531 2595.68,312.865 2593,309.5C 2591.63,311.041 2590.13,312.375 2588.5,313.5C 2586.96,309.44 2584.63,305.773 2581.5,302.5C 2587.56,294.591 2593.06,286.258 2598,277.5C 2611.02,247.319 2615.02,215.986 2610,183.5C 2605.76,180.681 2603.26,176.681 2602.5,171.5C 2603.38,170.452 2604.05,169.285 2604.5,168C 2603.73,164.728 2602.73,161.561 2601.5,158.5C 2607,157.625 2612.33,156.125 2617.5,154C 2620.56,152.012 2622.22,149.178 2622.5,145.5C 2627.45,144.441 2632.45,144.274 2637.5,145C 2638.27,148.418 2638.27,151.918 2637.5,155.5C 2630.61,154.351 2624.94,156.351 2620.5,161.5C 2620.67,161.833 2620.83,162.167 2621,162.5C 2623.01,161.152 2625.01,159.818 2627,158.5C 2630.44,159.382 2633.94,159.716 2637.5,159.5C 2637.5,160.5 2637.5,161.5 2637.5,162.5C 2640.17,162.5 2642.83,162.5 2645.5,162.5C 2645.5,164.167 2645.5,165.833 2645.5,167.5C 2638.31,166.267 2632.64,168.6 2628.5,174.5C 2629.85,176.738 2631.85,178.071 2634.5,178.5C 2634.55,176.43 2634.72,174.097 2635,171.5C 2636.05,170.483 2637.22,170.316 2638.5,171C 2639.64,173.725 2641.14,176.225 2643,178.5C 2645.68,194.26 2640.18,197.593 2626.5,188.5C 2626.17,189.5 2625.83,190.5 2625.5,191.5C 2628.05,216.017 2625.71,240.017 2618.5,263.5 Z"/></g>
<g><path style="opacity:1" fill="#f3e3d5" d="M 2308.5,351.5 C 2312.05,351.095 2315.38,351.595 2318.5,353C 2314.82,354.841 2311.48,357.174 2308.5,360C 2302.96,361.685 2298.13,364.518 2294,368.5C 2293.33,366.5 2293.33,364.5 2294,362.5C 2297.95,357.466 2302.78,353.799 2308.5,351.5 Z"/></g>
<g><path style="opacity:1" fill="#816405" d="M 2420.5,354.5 C 2427.84,374.84 2435.17,395.174 2442.5,415.5C 2445.5,415.5 2448.5,415.5 2451.5,415.5C 2445.69,416.49 2439.69,416.823 2433.5,416.5C 2430.87,408.93 2427.87,401.596 2424.5,394.5C 2420.7,382.438 2416.7,370.438 2412.5,358.5C 2414.85,356.659 2417.52,355.326 2420.5,354.5 Z"/></g>
<g><path style="opacity:1" fill="#94badf" d="M 2544.5,361.5 C 2542.47,361.338 2540.47,361.505 2538.5,362C 2536.27,363.75 2533.93,365.25 2531.5,366.5C 2528.08,365.637 2524.74,364.47 2521.5,363C 2528.89,361.038 2535.89,358.204 2542.5,354.5C 2543.94,356.608 2544.61,358.941 2544.5,361.5 Z"/></g>
<g><path style="opacity:1" fill="#96b7d5" d="M 2412.5,358.5 C 2416.7,370.438 2420.7,382.438 2424.5,394.5C 2419.21,383.258 2413.88,371.924 2408.5,360.5C 2409.32,358.889 2410.65,358.222 2412.5,358.5 Z"/></g>
<g><path style="opacity:1" fill="#fcfcfd" d="M 1577.5,365.5 C 1582.83,365.5 1588.17,365.5 1593.5,365.5C 1593.33,392.502 1593.5,419.502 1594,446.5C 1608.86,431.971 1623.36,417.138 1637.5,402C 1644.17,401.333 1650.83,401.333 1657.5,402C 1643.32,416.014 1629.32,430.181 1615.5,444.5C 1630.32,461.15 1645.32,477.65 1660.5,494C 1653.5,494.667 1646.5,494.667 1639.5,494C 1627.66,480.658 1615.66,467.491 1603.5,454.5C 1600.24,457.048 1597.07,459.714 1594,462.5C 1593.5,473.161 1593.33,483.828 1593.5,494.5C 1588.17,494.5 1582.83,494.5 1577.5,494.5C 1577.5,451.5 1577.5,408.5 1577.5,365.5 Z"/></g>
<g><path style="opacity:1" fill="#fcfdfd" d="M 1409.5,370.5 C 1444.5,370.5 1479.5,370.5 1514.5,370.5C 1514.5,375.5 1514.5,380.5 1514.5,385.5C 1499.83,385.5 1485.17,385.5 1470.5,385.5C 1470.5,421.833 1470.5,458.167 1470.5,494.5C 1464.83,494.5 1459.17,494.5 1453.5,494.5C 1453.5,458.167 1453.5,421.833 1453.5,385.5C 1438.83,385.5 1424.17,385.5 1409.5,385.5C 1409.5,380.5 1409.5,375.5 1409.5,370.5 Z"/></g>
<g><path style="opacity:1" fill="#fbfbfc" d="M 1528.5,370.5 C 1534.5,370.5 1540.5,370.5 1546.5,370.5C 1546.5,375.833 1546.5,381.167 1546.5,386.5C 1540.5,386.5 1534.5,386.5 1528.5,386.5C 1528.5,381.167 1528.5,375.833 1528.5,370.5 Z"/></g>
<g><path style="opacity:1" fill="#fbfbfc" d="M 1780.5,370.5 C 1796.5,370.333 1812.5,370.5 1828.5,371C 1864.8,375.295 1883.8,395.629 1885.5,432C 1884.46,468.043 1866.12,488.71 1830.5,494C 1813.84,494.5 1797.17,494.667 1780.5,494.5C 1780.5,453.167 1780.5,411.833 1780.5,370.5 Z"/></g>
<g><path style="opacity:1" fill="#fbfbfc" d="M 1909.5,370.5 C 1915.5,370.5 1921.5,370.5 1927.5,370.5C 1927.5,375.833 1927.5,381.167 1927.5,386.5C 1921.5,386.5 1915.5,386.5 1909.5,386.5C 1909.5,381.167 1909.5,375.833 1909.5,370.5 Z"/></g>
<g><path style="opacity:1" fill="#fbfbfc" d="M 2062.5,370.5 C 2068.5,370.5 2074.5,370.5 2080.5,370.5C 2080.5,375.833 2080.5,381.167 2080.5,386.5C 2074.5,386.5 2068.5,386.5 2062.5,386.5C 2062.5,381.167 2062.5,375.833 2062.5,370.5 Z"/></g>
<g><path style="opacity:1" fill="#9bc1e3" d="M 2485.5,414.5 C 2483.05,414.702 2480.72,414.369 2478.5,413.5C 2475.52,400.066 2472.02,386.732 2468,373.5C 2467.62,372.944 2467.12,372.611 2466.5,372.5C 2472.57,370.678 2478.91,369.678 2485.5,369.5C 2485.5,384.5 2485.5,399.5 2485.5,414.5 Z"/></g>
<g><path style="opacity:1" fill="#9cc1e4" d="M 2519.5,372.5 C 2515.03,386.038 2511.03,399.704 2507.5,413.5C 2503.26,414.436 2498.93,414.769 2494.5,414.5C 2494.9,400.49 2495.57,386.49 2496.5,372.5C 2504.1,369.95 2511.76,369.95 2519.5,372.5 Z"/></g>
<g><path style="opacity:1" fill="#f2e2d5" d="M 2309.5,371.5 C 2312.19,371.336 2314.85,371.503 2317.5,372C 2315.55,373.439 2314.22,375.272 2313.5,377.5C 2315.01,380.522 2316.34,383.522 2317.5,386.5C 2311.7,386.914 2306.2,385.914 2301,383.5C 2300.51,377.152 2303.35,373.152 2309.5,371.5 Z"/></g>
<g><path style="opacity:1" fill="#806207" d="M 2466.5,372.5 C 2467.12,372.611 2467.62,372.944 2468,373.5C 2472.02,386.732 2475.52,400.066 2478.5,413.5C 2475.71,414.477 2472.71,414.81 2469.5,414.5C 2466.46,400.991 2462.79,387.658 2458.5,374.5C 2461.07,373.525 2463.73,372.858 2466.5,372.5 Z"/></g>
<g><path style="opacity:1" fill="#806206" d="M 2519.5,372.5 C 2522.17,373.167 2524.83,373.833 2527.5,374.5C 2527.5,376.167 2527.5,377.833 2527.5,379.5C 2523.08,390.833 2519.41,402.5 2516.5,414.5C 2513.29,414.81 2510.29,414.477 2507.5,413.5C 2511.03,399.704 2515.03,386.038 2519.5,372.5 Z"/></g>
<g><path style="opacity:1" fill="#f5f40c" d="M 2527.5,379.5 C 2527.42,380.93 2527.75,382.264 2528.5,383.5C 2527.03,386.125 2526.36,388.958 2526.5,392C 2527.91,399.432 2528.58,406.932 2528.5,414.5C 2524.5,414.5 2520.5,414.5 2516.5,414.5C 2519.41,402.5 2523.08,390.833 2527.5,379.5 Z"/></g>
<g><path style="opacity:1" fill="#4a71a0" d="M 1797.5,384.5 C 1812.43,383.692 1827.09,385.192 1841.5,389C 1859.77,396.954 1868.77,410.954 1868.5,431C 1868.95,445.656 1864.28,458.323 1854.5,469C 1848.82,473.338 1842.49,476.338 1835.5,478C 1822.91,480.012 1810.25,480.845 1797.5,480.5C 1797.5,448.5 1797.5,416.5 1797.5,384.5 Z"/></g>
<g><path style="opacity:1" fill="#fdfdfd" d="M 2404.5,384.5 C 2406.43,388.108 2408.1,391.942 2409.5,396C 2406.35,398.083 2403.35,400.416 2400.5,403C 2401.93,404.797 2403.76,405.964 2406,406.5C 2407.84,405.244 2409.84,404.244 2412,403.5C 2415.21,407.275 2417.37,411.608 2418.5,416.5C 2415.47,418.017 2412.8,420.183 2410.5,423C 2411.58,423.956 2412.75,424.789 2414,425.5C 2414.78,431.249 2414.62,436.916 2413.5,442.5C 2400.52,447.991 2387.86,453.991 2375.5,460.5C 2372.54,461.061 2369.7,462.061 2367,463.5C 2364.21,460.085 2362.04,456.251 2360.5,452C 2360.64,451.228 2360.98,450.561 2361.5,450C 2364.33,448.753 2367,447.253 2369.5,445.5C 2368.88,443.246 2367.54,441.579 2365.5,440.5C 2362.83,441.833 2360.17,443.167 2357.5,444.5C 2354.54,440.757 2352.21,436.59 2350.5,432C 2350.64,431.228 2350.98,430.561 2351.5,430C 2354.33,428.753 2357,427.253 2359.5,425.5C 2358.4,423.611 2357.06,421.945 2355.5,420.5C 2352.71,421.978 2349.88,423.311 2347,424.5C 2344.88,420.598 2343.05,416.598 2341.5,412.5C 2342.26,412.923 2343.1,413.257 2344,413.5C 2364.59,404.451 2384.76,394.785 2404.5,384.5 Z"/></g>
<g><path style="opacity:1" fill="#fbfbfc" d="M 1696.5,398.5 C 1706.89,398.13 1717.22,398.63 1727.5,400C 1740.43,403.7 1747.93,412.2 1750,425.5C 1750.5,448.498 1750.67,471.498 1750.5,494.5C 1745.17,494.5 1739.83,494.5 1734.5,494.5C 1734.82,491.428 1734.48,488.428 1733.5,485.5C 1717.32,499.164 1699.99,500.997 1681.5,491C 1674.27,484.639 1670.93,476.639 1671.5,467C 1670.67,456.332 1674.67,447.999 1683.5,442C 1699.69,434.745 1716.69,431.578 1734.5,432.5C 1734.34,419.505 1727.67,413.005 1714.5,413C 1702.78,412.31 1691.44,414.144 1680.5,418.5C 1679.34,413.198 1679.17,407.864 1680,402.5C 1685.58,401.088 1691.08,399.755 1696.5,398.5 Z"/></g>
<g><path style="opacity:1" fill="#fbfbfc" d="M 1984.5,398.5 C 1995.82,397.274 2006.48,399.274 2016.5,404.5C 2017.39,403.675 2017.72,402.675 2017.5,401.5C 2022.83,401.5 2028.17,401.5 2033.5,401.5C 2033.67,431.835 2033.5,462.168 2033,492.5C 2031.85,510.675 2022.68,522.508 2005.5,528C 1990.43,530.571 1975.6,529.738 1961,525.5C 1960.5,520.177 1960.33,514.844 1960.5,509.5C 1967.76,511.52 1975.1,513.354 1982.5,515C 2008.33,519.165 2019.83,508.332 2017,482.5C 2004.99,493.293 1991.16,496.46 1975.5,492C 1963.39,486.626 1955.89,477.459 1953,464.5C 1947.48,443.072 1951.98,424.239 1966.5,408C 1972.15,404.01 1978.15,400.843 1984.5,398.5 Z"/></g>
<g><path style="opacity:1" fill="#fbfbfc" d="M 1529.5,401.5 C 1534.83,401.5 1540.17,401.5 1545.5,401.5C 1545.5,432.5 1545.5,463.5 1545.5,494.5C 1540.17,494.5 1534.83,494.5 1529.5,494.5C 1529.5,463.5 1529.5,432.5 1529.5,401.5 Z"/></g>
<g><path style="opacity:1" fill="#fbfbfc" d="M 1910.5,401.5 C 1915.83,401.5 1921.17,401.5 1926.5,401.5C 1926.5,432.5 1926.5,463.5 1926.5,494.5C 1921.17,494.5 1915.83,494.5 1910.5,494.5C 1910.5,463.5 1910.5,432.5 1910.5,401.5 Z"/></g>
<g><path style="opacity:1" fill="#fbfbfc" d="M 2063.5,401.5 C 2068.83,401.5 2074.17,401.5 2079.5,401.5C 2079.5,432.5 2079.5,463.5 2079.5,494.5C 2074.17,494.5 2068.83,494.5 2063.5,494.5C 2063.5,463.5 2063.5,432.5 2063.5,401.5 Z"/></g>
<g><path style="opacity:1" fill="#4b72a0" d="M 1988.5,412.5 C 1998.5,412.404 2008.17,414.071 2017.5,417.5C 2017.67,434.837 2017.5,452.17 2017,469.5C 2004.47,479.815 1990.97,481.649 1976.5,475C 1971.75,469.425 1968.91,462.925 1968,455.5C 1965.11,440.551 1968.94,427.718 1979.5,417C 1982.59,415.454 1985.59,413.954 1988.5,412.5 Z"/></g>
<g><path style="opacity:1" fill="#7e7e7e" d="M 2478.5,413.5 C 2480.72,414.369 2483.05,414.702 2485.5,414.5C 2488.5,414.5 2491.5,414.5 2494.5,414.5C 2498.93,414.769 2503.26,414.436 2507.5,413.5C 2510.29,414.477 2513.29,414.81 2516.5,414.5C 2520.5,414.5 2524.5,414.5 2528.5,414.5C 2529.32,417.461 2529.99,420.461 2530.5,423.5C 2509.66,423.169 2488.99,423.503 2468.5,424.5C 2453.45,424.24 2438.45,424.907 2423.5,426.5C 2423.1,432.829 2422.77,439.162 2422.5,445.5C 2421.17,447.167 2421.17,448.833 2422.5,450.5C 2421.63,460.806 2421.3,471.14 2421.5,481.5C 2420.96,481.56 2420.62,481.893 2420.5,482.5C 2420.88,484.213 2421.88,485.213 2423.5,485.5C 2422.2,492.431 2421.54,499.598 2421.5,507C 2421.81,522.519 2422.47,538.019 2423.5,553.5C 2483.51,557.375 2543.51,557.375 2603.5,553.5C 2604.33,531.007 2605,508.507 2605.5,486C 2605.5,476.327 2605.17,466.827 2604.5,457.5C 2607.64,455.42 2610.64,453.086 2613.5,450.5C 2614.5,471.327 2614.83,492.327 2614.5,513.5C 2613.52,516.625 2613.19,519.958 2613.5,523.5C 2613.5,529.833 2613.5,536.167 2613.5,542.5C 2612.69,548.775 2612.03,555.108 2611.5,561.5C 2605,561.936 2598.67,562.602 2592.5,563.5C 2569.19,564.916 2545.86,565.583 2522.5,565.5C 2485.81,565.143 2449.14,564.143 2412.5,562.5C 2413.72,559.938 2414.39,557.105 2414.5,554C 2414.5,551.31 2414.16,548.81 2413.5,546.5C 2413.83,536.319 2413.49,526.319 2412.5,516.5C 2412.28,491.821 2412.62,467.155 2413.5,442.5C 2414.62,436.916 2414.78,431.249 2414,425.5C 2412.75,424.789 2411.58,423.956 2410.5,423C 2412.8,420.183 2415.47,418.017 2418.5,416.5C 2423.4,416.966 2428.4,416.966 2433.5,416.5C 2439.69,416.823 2445.69,416.49 2451.5,415.5C 2457.69,415.823 2463.69,415.49 2469.5,414.5C 2472.71,414.81 2475.71,414.477 2478.5,413.5 Z"/></g>
<g><path style="opacity:1" fill="#3a5825" d="M 2468.5,424.5 C 2467.4,429.773 2466.73,435.106 2466.5,440.5C 2451.79,441.91 2437.12,443.576 2422.5,445.5C 2422.77,439.162 2423.1,432.829 2423.5,426.5C 2438.45,424.907 2453.45,424.24 2468.5,424.5 Z"/></g>
<g><path style="opacity:1" fill="#395825" d="M 2468.5,424.5 C 2488.99,423.503 2509.66,423.169 2530.5,423.5C 2532.9,427.276 2535.57,430.943 2538.5,434.5C 2537.75,435.736 2537.42,437.07 2537.5,438.5C 2515.49,438.363 2493.49,438.696 2471.5,439.5C 2471.84,434.814 2472,430.147 2472,425.5C 2470.99,424.663 2469.82,424.33 2468.5,424.5 Z"/></g>
<g><path style="opacity:1" fill="#eef1ec" d="M 2468.5,424.5 C 2469.82,424.33 2470.99,424.663 2472,425.5C 2472,430.147 2471.84,434.814 2471.5,439.5C 2493.49,438.696 2515.49,438.363 2537.5,438.5C 2537.5,440.167 2537.5,441.833 2537.5,443.5C 2515.14,443.146 2492.81,443.646 2470.5,445C 2469.26,454.784 2469.26,464.617 2470.5,474.5C 2513.77,472.026 2556.77,474.359 2599.5,481.5C 2599.62,483.484 2598.95,485.15 2597.5,486.5C 2539.56,476.295 2481.56,475.962 2423.5,485.5C 2421.88,485.213 2420.88,484.213 2420.5,482.5C 2420.62,481.893 2420.96,481.56 2421.5,481.5C 2436.45,478.868 2451.45,476.535 2466.5,474.5C 2464.27,464.91 2463.94,455.243 2465.5,445.5C 2450.97,446.609 2436.63,448.276 2422.5,450.5C 2421.17,448.833 2421.17,447.167 2422.5,445.5C 2437.12,443.576 2451.79,441.91 2466.5,440.5C 2466.73,435.106 2467.4,429.773 2468.5,424.5 Z"/></g>
<g><path style="opacity:1" fill="#f7f8fa" d="M 255.5,435.5 C 258.167,435.5 260.833,435.5 263.5,435.5C 263.5,456.167 263.5,476.833 263.5,497.5C 260.833,497.5 258.167,497.5 255.5,497.5C 255.5,476.833 255.5,456.167 255.5,435.5 Z"/></g>
<g><path style="opacity:1" fill="#f7f8fa" d="M 277.5,435.5 C 280.167,435.5 282.833,435.5 285.5,435.5C 285.5,456.167 285.5,476.833 285.5,497.5C 282.833,497.5 280.167,497.5 277.5,497.5C 277.5,476.833 277.5,456.167 277.5,435.5 Z"/></g>
<g><path style="opacity:1" fill="#f7f7f9" d="M 463.5,437.5 C 473.196,436.616 482.529,437.949 491.5,441.5C 492.833,444.5 492.833,447.5 491.5,450.5C 483.39,445.982 474.724,444.149 465.5,445C 456.58,448.547 455.246,453.881 461.5,461C 467.729,462.713 474.062,464.046 480.5,465C 494.155,469.294 497.655,477.794 491,490.5C 487.547,494.145 483.38,496.645 478.5,498C 472.5,498.667 466.5,498.667 460.5,498C 456.345,497.282 452.512,495.782 449,493.5C 448.176,490.118 448.343,486.784 449.5,483.5C 459.072,491.691 469.738,493.524 481.5,489C 486.381,484.625 486.715,479.958 482.5,475C 474.519,473.002 466.519,471.002 458.5,469C 449.529,463.802 447.029,456.302 451,446.5C 454.299,442.118 458.466,439.118 463.5,437.5 Z"/></g>
<g><path style="opacity:1" fill="#f7f8fa" d="M 749.5,437.5 C 754.844,437.334 760.177,437.501 765.5,438C 775.848,441.529 779.015,448.362 775,458.5C 772.736,461.433 769.902,463.6 766.5,465C 776.626,468.824 780.126,475.99 777,486.5C 772.72,495.143 765.72,499.143 756,498.5C 749.937,498.734 744.271,497.401 739,494.5C 738.182,491.773 738.348,489.106 739.5,486.5C 746.98,491.423 754.98,492.59 763.5,490C 767.823,487.894 769.823,484.394 769.5,479.5C 769.751,475.497 768.084,472.664 764.5,471C 760.56,469.985 756.56,469.485 752.5,469.5C 752.5,467.167 752.5,464.833 752.5,462.5C 756.702,462.616 760.702,461.783 764.5,460C 769.743,455.255 769.743,450.588 764.5,446C 756.283,443.356 748.616,444.523 741.5,449.5C 740.516,446.572 740.183,443.572 740.5,440.5C 743.67,439.735 746.67,438.735 749.5,437.5 Z"/></g>
<g><path style="opacity:1" fill="#f9fafb" d="M 86.5,438.5 C 95.1731,438.334 103.84,438.5 112.5,439C 130.17,443.688 138.003,455.188 136,473.5C 133.5,486.667 125.667,494.5 112.5,497C 103.84,497.5 95.1731,497.666 86.5,497.5C 86.5,477.833 86.5,458.167 86.5,438.5 Z"/></g>
<g><path style="opacity:1" fill="#fefffe" d="M 182.5,438.5 C 185.167,438.5 187.833,438.5 190.5,438.5C 190.5,441.167 190.5,443.833 190.5,446.5C 187.833,446.5 185.167,446.5 182.5,446.5C 182.5,443.833 182.5,441.167 182.5,438.5 Z"/></g>
<g><path style="opacity:1" fill="#fefffe" d="M 299.5,438.5 C 302.167,438.5 304.833,438.5 307.5,438.5C 307.5,441.167 307.5,443.833 307.5,446.5C 304.833,446.5 302.167,446.5 299.5,446.5C 299.5,443.833 299.5,441.167 299.5,438.5 Z"/></g>
<g><path style="opacity:1" fill="#f9fafb" d="M 791.5,438.5 C 800.173,438.334 808.84,438.5 817.5,439C 835.17,443.688 843.003,455.188 841,473.5C 838.5,486.667 830.667,494.5 817.5,497C 808.84,497.5 800.173,497.666 791.5,497.5C 791.5,477.833 791.5,458.167 791.5,438.5 Z"/></g>
<g><path style="opacity:1" fill="#f7f8f9" d="M 881.5,438.5 C 885.437,438.207 889.27,438.54 893,439.5C 897.744,449.986 902.744,460.32 908,470.5C 912.833,460.167 917.667,449.833 922.5,439.5C 926.445,438.509 930.445,438.176 934.5,438.5C 934.5,458.167 934.5,477.833 934.5,497.5C 931.5,497.5 928.5,497.5 925.5,497.5C 925.667,481.497 925.5,465.497 925,449.5C 919.875,460.08 915.041,470.747 910.5,481.5C 908.396,481.799 906.396,481.466 904.5,480.5C 899.333,469.5 894.167,458.5 889,447.5C 888.5,464.163 888.333,480.83 888.5,497.5C 886.167,497.5 883.833,497.5 881.5,497.5C 881.5,477.833 881.5,458.167 881.5,438.5 Z"/></g>
<g><path style="opacity:1" fill="#f9fafb" d="M 1152.5,438.5 C 1156.44,438.207 1160.27,438.54 1164,439.5C 1171.34,458.68 1178.17,478.013 1184.5,497.5C 1181.55,497.777 1178.72,497.444 1176,496.5C 1174.3,491.597 1172.46,486.763 1170.5,482C 1162.17,481.333 1153.83,481.333 1145.5,482C 1143.54,486.763 1141.7,491.597 1140,496.5C 1137.21,497.783 1134.37,497.783 1131.5,496.5C 1138.51,477.146 1145.51,457.812 1152.5,438.5 Z"/></g>
<g><path style="opacity:1" fill="#f8f9fa" d="M 505.5,440.5 C 508.167,440.5 510.833,440.5 513.5,440.5C 513.5,444.833 513.5,449.167 513.5,453.5C 518.5,453.5 523.5,453.5 528.5,453.5C 528.5,455.5 528.5,457.5 528.5,459.5C 523.5,459.5 518.5,459.5 513.5,459.5C 513.334,468.839 513.5,478.173 514,487.5C 514.785,489.286 515.951,490.786 517.5,492C 521.17,492.279 524.837,492.112 528.5,491.5C 528.756,493.792 528.423,495.959 527.5,498C 523.167,498.667 518.833,498.667 514.5,498C 509.901,496.402 507.068,493.235 506,488.5C 505.5,478.839 505.334,469.172 505.5,459.5C 503.833,459.5 502.167,459.5 500.5,459.5C 500.5,457.5 500.5,455.5 500.5,453.5C 502.167,453.5 503.833,453.5 505.5,453.5C 505.5,449.167 505.5,444.833 505.5,440.5 Z"/></g>
<g><path style="opacity:1" fill="#f8f9fa" d="M 586.5,440.5 C 589.167,440.5 591.833,440.5 594.5,440.5C 594.5,444.833 594.5,449.167 594.5,453.5C 599.5,453.5 604.5,453.5 609.5,453.5C 609.5,455.5 609.5,457.5 609.5,459.5C 604.5,459.5 599.5,459.5 594.5,459.5C 594.334,468.839 594.5,478.173 595,487.5C 595.785,489.286 596.951,490.786 598.5,492C 602.17,492.279 605.837,492.112 609.5,491.5C 609.756,493.792 609.423,495.959 608.5,498C 604.167,498.667 599.833,498.667 595.5,498C 590.901,496.402 588.068,493.235 587,488.5C 586.5,478.839 586.334,469.172 586.5,459.5C 584.833,459.5 583.167,459.5 581.5,459.5C 581.5,457.5 581.5,455.5 581.5,453.5C 583.167,453.5 584.833,453.5 586.5,453.5C 586.5,449.167 586.5,444.833 586.5,440.5 Z"/></g>
<g><path style="opacity:1" fill="#f8f9fa" d="M 1077.5,440.5 C 1080.17,440.5 1082.83,440.5 1085.5,440.5C 1085.5,444.833 1085.5,449.167 1085.5,453.5C 1090.5,453.5 1095.5,453.5 1100.5,453.5C 1100.5,455.5 1100.5,457.5 1100.5,459.5C 1095.5,459.5 1090.5,459.5 1085.5,459.5C 1085.33,468.839 1085.5,478.173 1086,487.5C 1086.78,489.286 1087.95,490.786 1089.5,492C 1093.17,492.279 1096.84,492.112 1100.5,491.5C 1100.76,493.792 1100.42,495.959 1099.5,498C 1095.17,498.667 1090.83,498.667 1086.5,498C 1081.9,496.402 1079.07,493.235 1078,488.5C 1077.5,478.839 1077.33,469.172 1077.5,459.5C 1075.83,459.5 1074.17,459.5 1072.5,459.5C 1072.5,457.5 1072.5,455.5 1072.5,453.5C 1074.17,453.5 1075.83,453.5 1077.5,453.5C 1077.5,449.167 1077.5,444.833 1077.5,440.5 Z"/></g>
<g><path style="opacity:1" fill="#f3b183" d="M 2413.5,442.5 C 2412.62,467.155 2412.28,491.821 2412.5,516.5C 2407.49,518.419 2402.66,520.752 2398,523.5C 2396.3,520.98 2394.47,518.647 2392.5,516.5C 2391.61,515.739 2390.94,514.739 2390.5,513.5C 2392.67,512.052 2395,510.885 2397.5,510C 2398.45,509.282 2398.62,508.449 2398,507.5C 2397.06,505.939 2395.89,504.605 2394.5,503.5C 2392.39,504.637 2390.23,505.637 2388,506.5C 2384.87,502.415 2382.37,497.915 2380.5,493C 2382.96,490.93 2385.63,489.097 2388.5,487.5C 2386.06,481.781 2382.39,481.114 2377.5,485.5C 2375.96,483.757 2374.96,481.757 2374.5,479.5C 2373.9,476.032 2372.9,472.699 2371.5,469.5C 2373.64,468.255 2375.64,466.755 2377.5,465C 2376.96,463.415 2376.29,461.915 2375.5,460.5C 2387.86,453.991 2400.52,447.991 2413.5,442.5 Z"/></g>
<g><path style="opacity:1" fill="#395824" d="M 2537.5,443.5 C 2538.32,445.14 2539.15,446.807 2540,448.5C 2546.31,455.149 2553.48,460.649 2561.5,465C 2567.5,465.667 2573.5,465.667 2579.5,465C 2588.07,463.199 2596.4,460.699 2604.5,457.5C 2605.17,466.827 2605.5,476.327 2605.5,486C 2605,508.507 2604.33,531.007 2603.5,553.5C 2543.51,557.375 2483.51,557.375 2423.5,553.5C 2422.47,538.019 2421.81,522.519 2421.5,507C 2421.54,499.598 2422.2,492.431 2423.5,485.5C 2481.56,475.962 2539.56,476.295 2597.5,486.5C 2598.95,485.15 2599.62,483.484 2599.5,481.5C 2556.77,474.359 2513.77,472.026 2470.5,474.5C 2469.26,464.617 2469.26,454.784 2470.5,445C 2492.81,443.646 2515.14,443.146 2537.5,443.5 Z"/></g>
<g><path style="opacity:1" fill="#4b71a0" d="M 94.5,445.5 C 104.132,444.328 113.132,446.162 121.5,451C 125.942,455.749 127.942,461.416 127.5,468C 127.917,481.168 121.584,488.501 108.5,490C 103.845,490.499 99.1785,490.666 94.5,490.5C 94.5,475.5 94.5,460.5 94.5,445.5 Z"/></g>
<g><path style="opacity:1" fill="#4b71a0" d="M 799.5,445.5 C 809.132,444.328 818.132,446.162 826.5,451C 830.942,455.749 832.942,461.416 832.5,468C 832.917,481.168 826.584,488.501 813.5,490C 808.845,490.499 804.179,490.666 799.5,490.5C 799.5,475.5 799.5,460.5 799.5,445.5 Z"/></g>
<g><path style="opacity:1" fill="#3a5825" d="M 2421.5,481.5 C 2421.3,471.14 2421.63,460.806 2422.5,450.5C 2436.63,448.276 2450.97,446.609 2465.5,445.5C 2463.94,455.243 2464.27,464.91 2466.5,474.5C 2451.45,476.535 2436.45,478.868 2421.5,481.5 Z"/></g>
<g><path style="opacity:1" fill="#4c72a0" d="M 1726.5,445.5 C 1729.17,445.5 1731.83,445.5 1734.5,445.5C 1734.67,454.506 1734.5,463.506 1734,472.5C 1723,481.708 1710.5,484.875 1696.5,482C 1687.28,475.891 1685.12,467.724 1690,457.5C 1692.71,453.896 1696.21,451.396 1700.5,450C 1709.22,448 1717.89,446.5 1726.5,445.5 Z"/></g>
<g><path style="opacity:1" fill="#4e73a1" d="M 1157.5,446.5 C 1161.8,455.39 1165.13,464.724 1167.5,474.5C 1160.83,474.666 1154.16,474.5 1147.5,474C 1151.13,464.941 1154.46,455.775 1157.5,446.5 Z"/></g>
<g><path style="opacity:1" fill="#f9fafb" d="M 221.5,452.5 C 230.437,450.555 236.937,453.555 241,461.5C 241.5,473.495 241.667,485.495 241.5,497.5C 239.167,497.5 236.833,497.5 234.5,497.5C 234.667,486.495 234.5,475.495 234,464.5C 232.203,460.394 229.037,458.394 224.5,458.5C 220.38,459.476 216.547,461.142 213,463.5C 212.5,474.828 212.333,486.162 212.5,497.5C 209.833,497.5 207.167,497.5 204.5,497.5C 204.5,482.833 204.5,468.167 204.5,453.5C 207.167,453.5 209.833,453.5 212.5,453.5C 212.238,454.978 212.571,456.311 213.5,457.5C 216.231,455.808 218.898,454.142 221.5,452.5 Z"/></g>
<g><path style="opacity:1" fill="#f9fafb" d="M 338.5,452.5 C 347.437,450.555 353.937,453.555 358,461.5C 358.5,473.495 358.667,485.495 358.5,497.5C 356.167,497.5 353.833,497.5 351.5,497.5C 351.667,486.495 351.5,475.495 351,464.5C 349.203,460.394 346.037,458.394 341.5,458.5C 337.38,459.476 333.547,461.142 330,463.5C 329.5,474.828 329.333,486.162 329.5,497.5C 326.833,497.5 324.167,497.5 321.5,497.5C 321.5,482.833 321.5,468.167 321.5,453.5C 324.167,453.5 326.833,453.5 329.5,453.5C 329.238,454.978 329.571,456.311 330.5,457.5C 333.231,455.808 335.898,454.142 338.5,452.5 Z"/></g>
<g><path style="opacity:1" fill="#f9f9fb" d="M 384.5,452.5 C 390.224,451.832 395.557,452.832 400.5,455.5C 402.868,453.777 405.534,453.11 408.5,453.5C 408.667,469.17 408.5,484.837 408,500.5C 406.167,507 402,511.167 395.5,513C 388.472,513.675 381.472,513.508 374.5,512.5C 374.187,509.753 374.52,507.086 375.5,504.5C 382.771,508.195 390.105,508.362 397.5,505C 400.36,501.319 401.193,497.152 400,492.5C 385.446,500.864 375.446,497.197 370,481.5C 367.481,467.869 372.315,458.202 384.5,452.5 Z"/></g>
<g><path style="opacity:1" fill="#f7f8fa" d="M 544.5,452.5 C 550.176,452.334 555.843,452.501 561.5,453C 567.026,454.526 570.526,458.026 572,463.5C 572.5,474.828 572.667,486.162 572.5,497.5C 569.833,497.5 567.167,497.5 564.5,497.5C 564.657,496.127 564.49,494.793 564,493.5C 557.845,498.031 551.012,499.531 543.5,498C 535.074,493.394 532.574,486.56 536,477.5C 540.282,472.442 545.782,469.608 552.5,469C 556.486,468.501 560.486,468.334 564.5,468.5C 565.199,463.056 562.866,459.889 557.5,459C 551.148,458.254 545.148,459.42 539.5,462.5C 538.348,459.894 538.182,457.227 539,454.5C 540.948,453.891 542.782,453.224 544.5,452.5 Z"/></g>
<g><path style="opacity:1" fill="#f6f7f9" d="M 678.5,452.5 C 685.646,451.827 692.479,452.827 699,455.5C 699.667,458.167 699.667,460.833 699,463.5C 692.999,459.833 686.499,458.333 679.5,459C 674.33,461.213 673.33,464.546 676.5,469C 683.192,470.817 689.859,472.817 696.5,475C 702.116,480.086 702.949,485.919 699,492.5C 696.374,495.231 693.207,497.064 689.5,498C 681.91,499.173 674.577,498.34 667.5,495.5C 666.167,492.5 666.167,489.5 667.5,486.5C 674.342,492.282 682.009,493.782 690.5,491C 694.035,488.162 694.368,484.995 691.5,481.5C 685.915,479.789 680.249,478.289 674.5,477C 665.725,471.791 664.392,465.125 670.5,457C 673.099,455.205 675.766,453.705 678.5,452.5 Z"/></g>
<g><path style="opacity:1" fill="#f9f9fb" d="M 960.5,452.5 C 966.224,451.832 971.557,452.832 976.5,455.5C 978.868,453.777 981.534,453.11 984.5,453.5C 984.667,469.17 984.5,484.837 984,500.5C 982.167,507 978,511.167 971.5,513C 964.472,513.675 957.472,513.508 950.5,512.5C 950.187,509.753 950.52,507.086 951.5,504.5C 958.771,508.195 966.105,508.362 973.5,505C 976.36,501.319 977.193,497.152 976,492.5C 961.446,500.864 951.446,497.197 946,481.5C 943.481,467.869 948.315,458.202 960.5,452.5 Z"/></g>
<g><path style="opacity:1" fill="#f9f9fb" d="M 1015.5,452.5 C 1022.67,451.141 1028.67,453.141 1033.5,458.5C 1041.11,452.097 1049.44,450.93 1058.5,455C 1060.65,457.469 1062.15,460.302 1063,463.5C 1063.5,474.828 1063.67,486.162 1063.5,497.5C 1060.83,497.5 1058.17,497.5 1055.5,497.5C 1055.67,486.162 1055.5,474.828 1055,463.5C 1053.28,460.08 1050.45,458.414 1046.5,458.5C 1042.47,459.35 1038.8,461.017 1035.5,463.5C 1034.5,474.814 1034.17,486.147 1034.5,497.5C 1032.17,497.5 1029.83,497.5 1027.5,497.5C 1027.67,486.495 1027.5,475.495 1027,464.5C 1024.6,458.908 1020.43,457.075 1014.5,459C 1011.75,460.123 1009.25,461.623 1007,463.5C 1006.5,474.828 1006.33,486.162 1006.5,497.5C 1003.83,497.5 1001.17,497.5 998.5,497.5C 998.5,482.833 998.5,468.167 998.5,453.5C 1001.17,453.5 1003.83,453.5 1006.5,453.5C 1006.34,454.873 1006.51,456.207 1007,457.5C 1009.68,455.415 1012.52,453.748 1015.5,452.5 Z"/></g>
<g><path style="opacity:1" fill="#f7f8fa" d="M 1209.5,452.5 C 1220.36,450.874 1227.52,455.208 1231,465.5C 1232.68,474.712 1231.35,483.379 1227,491.5C 1219.67,498.77 1211.17,500.437 1201.5,496.5C 1200.5,502.128 1200.17,507.794 1200.5,513.5C 1197.83,513.5 1195.17,513.5 1192.5,513.5C 1192.5,493.5 1192.5,473.5 1192.5,453.5C 1195.17,453.5 1197.83,453.5 1200.5,453.5C 1200.34,454.873 1200.51,456.207 1201,457.5C 1203.68,455.415 1206.52,453.748 1209.5,452.5 Z"/></g>
<g><path style="opacity:1" fill="#f7f8fa" d="M 1259.5,452.5 C 1270.36,450.874 1277.52,455.208 1281,465.5C 1282.68,474.712 1281.35,483.379 1277,491.5C 1269.67,498.77 1261.17,500.437 1251.5,496.5C 1250.5,502.128 1250.17,507.794 1250.5,513.5C 1247.83,513.5 1245.17,513.5 1242.5,513.5C 1242.5,493.5 1242.5,473.5 1242.5,453.5C 1245.17,453.5 1247.83,453.5 1250.5,453.5C 1250.34,454.873 1250.51,456.207 1251,457.5C 1253.68,455.415 1256.52,453.748 1259.5,452.5 Z"/></g>
<g><path style="opacity:1" fill="#f8f8fa" d="M 147.5,453.5 C 150.167,453.5 152.833,453.5 155.5,453.5C 155.338,455.527 155.505,457.527 156,459.5C 161.397,454.105 167.897,452.105 175.5,453.5C 175.5,456.167 175.5,458.833 175.5,461.5C 168.208,459.182 161.708,460.516 156,465.5C 155.5,476.161 155.333,486.828 155.5,497.5C 152.833,497.5 150.167,497.5 147.5,497.5C 147.5,482.833 147.5,468.167 147.5,453.5 Z"/></g>
<g><path style="opacity:1" fill="#f7f8fa" d="M 182.5,453.5 C 185.167,453.5 187.833,453.5 190.5,453.5C 190.5,468.167 190.5,482.833 190.5,497.5C 187.833,497.5 185.167,497.5 182.5,497.5C 182.5,482.833 182.5,468.167 182.5,453.5 Z"/></g>
<g><path style="opacity:1" fill="#f7f8fa" d="M 299.5,453.5 C 302.167,453.5 304.833,453.5 307.5,453.5C 307.5,468.167 307.5,482.833 307.5,497.5C 304.833,497.5 302.167,497.5 299.5,497.5C 299.5,482.833 299.5,468.167 299.5,453.5 Z"/></g>
<g><path style="opacity:1" fill="#f7f8f9" d="M 618.5,453.5 C 621.167,453.5 623.833,453.5 626.5,453.5C 626.333,464.838 626.5,476.172 627,487.5C 629.435,492.224 633.269,493.724 638.5,492C 641.656,491.063 644.489,489.563 647,487.5C 647.5,476.172 647.667,464.838 647.5,453.5C 650.167,453.5 652.833,453.5 655.5,453.5C 655.5,468.167 655.5,482.833 655.5,497.5C 652.833,497.5 650.167,497.5 647.5,497.5C 647.657,496.127 647.49,494.793 647,493.5C 638.825,499.64 630.492,499.974 622,494.5C 621,492.5 620,490.5 619,488.5C 618.5,476.838 618.333,465.171 618.5,453.5 Z"/></g>
<g><path style="opacity:1" fill="#4f74a2" d="M 386.5,458.5 C 391.412,458.063 396.078,458.896 400.5,461C 401.648,469.088 401.815,477.254 401,485.5C 386.733,495.115 378.9,491.448 377.5,474.5C 377.447,467.257 380.447,461.923 386.5,458.5 Z"/></g>
<g><path style="opacity:1" fill="#4f74a2" d="M 962.5,458.5 C 967.412,458.063 972.078,458.896 976.5,461C 977.648,469.088 977.815,477.254 977,485.5C 962.733,495.115 954.9,491.448 953.5,474.5C 953.447,467.257 956.447,461.923 962.5,458.5 Z"/></g>
<g><path style="opacity:1" fill="#4c72a0" d="M 1208.5,458.5 C 1215.62,457.14 1220.45,459.807 1223,466.5C 1223.82,472.902 1223.48,479.235 1222,485.5C 1216.68,492.754 1209.85,494.42 1201.5,490.5C 1200.33,481.518 1200.17,472.518 1201,463.5C 1203.48,461.686 1205.98,460.019 1208.5,458.5 Z"/></g>
<g><path style="opacity:1" fill="#4c72a0" d="M 1258.5,458.5 C 1265.62,457.14 1270.45,459.807 1273,466.5C 1273.82,472.902 1273.48,479.235 1272,485.5C 1266.68,492.754 1259.85,494.42 1251.5,490.5C 1250.33,481.518 1250.17,472.518 1251,463.5C 1253.48,461.686 1255.98,460.019 1258.5,458.5 Z"/></g>
<g><path style="opacity:1" fill="#f4f0ef" d="M 2371.5,469.5 C 2372.9,472.699 2373.9,476.032 2374.5,479.5C 2372.61,476.724 2370.94,473.724 2369.5,470.5C 2369.96,469.702 2370.62,469.369 2371.5,469.5 Z"/></g>
<g><path style="opacity:1" fill="#4d73a1" d="M 558.5,474.5 C 560.5,474.5 562.5,474.5 564.5,474.5C 564.666,478.846 564.499,483.179 564,487.5C 560.018,490.44 555.518,492.106 550.5,492.5C 544.041,491.592 541.541,487.926 543,481.5C 543.93,479.448 545.43,477.948 547.5,477C 551.312,476.205 554.979,475.371 558.5,474.5 Z"/></g>
<g><path style="opacity:1" fill="#362214" d="M 2614.5,513.5 C 2625.58,518.665 2630.08,527.332 2628,539.5C 2626.32,544.847 2624.66,550.181 2623,555.5C 2621.44,558.728 2618.94,560.895 2615.5,562C 2607.9,563.356 2600.24,563.856 2592.5,563.5C 2598.67,562.602 2605,561.936 2611.5,561.5C 2612.03,555.108 2612.69,548.775 2613.5,542.5C 2618.33,542.237 2620.33,539.57 2619.5,534.5C 2619.34,529.84 2617.34,526.173 2613.5,523.5C 2613.19,519.958 2613.52,516.625 2614.5,513.5 Z"/></g>
<g><path style="opacity:1" fill="#f8f8f9" d="M 2392.5,516.5 C 2394.47,518.647 2396.3,520.98 2398,523.5C 2402.66,520.752 2407.49,518.419 2412.5,516.5C 2413.49,526.319 2413.83,536.319 2413.5,546.5C 2411.54,548.21 2409.37,548.543 2407,547.5C 2405.3,543.275 2403.47,539.108 2401.5,535C 2403.84,533.165 2406.17,531.331 2408.5,529.5C 2407.33,527.833 2406.17,526.167 2405,524.5C 2402.77,526.377 2400.27,527.21 2397.5,527C 2395.42,523.676 2393.75,520.176 2392.5,516.5 Z"/></g>
<g><path style="opacity:1" fill="#352113" d="M 2377.5,517.5 C 2378.56,520.622 2379.89,523.622 2381.5,526.5C 2380.54,526.953 2379.71,527.619 2379,528.5C 2377.96,533.44 2378.63,538.106 2381,542.5C 2381.72,541.941 2382.56,541.608 2383.5,541.5C 2385.33,542.651 2387.33,543.318 2389.5,543.5C 2393.01,549.187 2396.01,555.187 2398.5,561.5C 2394.02,562.648 2389.35,562.815 2384.5,562C 2380.16,560.99 2376.99,558.49 2375,554.5C 2372.25,547.754 2370.42,540.754 2369.5,533.5C 2369.55,529.646 2370.38,525.979 2372,522.5C 2373.08,519.921 2374.91,518.254 2377.5,517.5 Z"/></g>
<g><path style="opacity:1" fill="#e7ebe5" d="M 2479.5,492.5 C 2482.49,492.155 2483.82,493.488 2483.5,496.5C 2479.64,508.911 2475.47,521.245 2471,533.5C 2470.18,536.882 2470.34,540.216 2471.5,543.5C 2474.15,541.35 2476.65,539.017 2479,536.5C 2487.21,522.573 2496.04,509.073 2505.5,496C 2508.97,493.784 2510.97,494.784 2511.5,499C 2509.03,507.104 2505.87,514.937 2502,522.5C 2500.75,525.077 2500.42,527.743 2501,530.5C 2509.8,522.698 2518.3,514.531 2526.5,506C 2527.79,505.51 2529.13,505.343 2530.5,505.5C 2529.35,512.109 2527.69,518.609 2525.5,525C 2525.39,526.662 2526.05,527.829 2527.5,528.5C 2538.87,520.622 2550.37,512.955 2562,505.5C 2563.86,506.609 2564.69,508.275 2564.5,510.5C 2562.61,518.446 2561.44,526.446 2561,534.5C 2567.17,528.333 2573.33,522.167 2579.5,516C 2584.16,511.995 2589.49,510.328 2595.5,511C 2597.87,515.354 2597.87,519.854 2595.5,524.5C 2594.5,525.833 2593.5,525.833 2592.5,524.5C 2594.69,521.1 2595.53,517.434 2595,513.5C 2593.27,512.424 2591.44,512.257 2589.5,513C 2585.66,515.084 2582,517.417 2578.5,520C 2573.27,526.645 2567.27,532.479 2560.5,537.5C 2559.91,537.291 2559.41,536.957 2559,536.5C 2558.58,528.066 2559.42,519.732 2561.5,511.5C 2561.17,510.5 2560.83,509.5 2560.5,508.5C 2551.65,514.757 2542.99,521.257 2534.5,528C 2530.93,530.631 2527.43,530.798 2524,528.5C 2523.46,522.378 2524.63,516.545 2527.5,511C 2527.17,510.5 2526.83,510 2526.5,509.5C 2518.63,516.873 2510.96,524.373 2503.5,532C 2501.87,532.494 2500.2,532.66 2498.5,532.5C 2498.34,529.482 2498.5,526.482 2499,523.5C 2502.91,515.507 2506.41,507.341 2509.5,499C 2509.17,498.5 2508.83,498 2508.5,497.5C 2506.24,498.682 2504.41,500.349 2503,502.5C 2495.42,513.998 2488.08,525.665 2481,537.5C 2479.17,540.667 2476.67,543.167 2473.5,545C 2471.3,545.825 2469.47,545.325 2468,543.5C 2467.33,540.833 2467.33,538.167 2468,535.5C 2473.17,522.002 2477.5,508.335 2481,494.5C 2472.49,502.347 2464.65,510.847 2457.5,520C 2456.52,520.591 2455.85,520.257 2455.5,519C 2462.27,509.061 2470.27,500.227 2479.5,492.5 Z"/></g>
<g><path style="opacity:1" fill="#602c09" d="M 2613.5,523.5 C 2617.34,526.173 2619.34,529.84 2619.5,534.5C 2620.33,539.57 2618.33,542.237 2613.5,542.5C 2613.5,536.167 2613.5,529.833 2613.5,523.5 Z"/></g>
<g><path style="opacity:1" fill="#5f2d0c" d="M 2381.5,526.5 C 2384.44,532.041 2387.1,537.708 2389.5,543.5C 2387.33,543.318 2385.33,542.651 2383.5,541.5C 2382.56,541.608 2381.72,541.941 2381,542.5C 2378.63,538.106 2377.96,533.44 2379,528.5C 2379.71,527.619 2380.54,526.953 2381.5,526.5 Z"/></g>
<g><path style="opacity:1" fill="#fef9f8" d="M 2115.5,613.5 C 2126.41,612.744 2137.07,613.91 2147.5,617C 2158.69,622.186 2165.35,630.853 2167.5,643C 2167.25,644.326 2166.58,645.326 2165.5,646C 2158.57,647.789 2151.57,648.789 2144.5,649C 2137.86,635.45 2127.52,631.783 2113.5,638C 2107.65,641.515 2104.15,646.681 2103,653.5C 2100.39,665.941 2102.89,677.108 2110.5,687C 2121.94,694.406 2133.11,693.906 2144,685.5C 2144.5,683.19 2144.66,680.857 2144.5,678.5C 2137.47,678.83 2130.47,678.497 2123.5,677.5C 2122.17,671.167 2122.17,664.833 2123.5,658.5C 2138.16,657.334 2152.82,657.167 2167.5,658C 2168.82,671.77 2168.82,685.604 2167.5,699.5C 2150.47,712.674 2131.47,716.84 2110.5,712C 2087.91,703.88 2076.91,687.714 2077.5,663.5C 2077.19,636.721 2089.86,620.055 2115.5,613.5 Z"/></g>
<g><path style="opacity:1" fill="#fbfcfd" d="M 2299.5,613.5 C 2335.36,611.029 2354.36,627.696 2356.5,663.5C 2355.61,694.699 2339.78,711.699 2309,714.5C 2285.53,714.103 2270.19,702.77 2263,680.5C 2258.6,661.761 2261.6,644.428 2272,628.5C 2279.46,620.188 2288.63,615.188 2299.5,613.5 Z M 2302.5,635.5 C 2317.1,633.374 2326.27,639.374 2330,653.5C 2330.67,660.167 2330.67,666.833 2330,673.5C 2327.36,684.976 2320.19,691.309 2308.5,692.5C 2295.88,691.049 2288.72,684.049 2287,671.5C 2286.01,663.349 2286.68,655.349 2289,647.5C 2291.83,641.493 2296.33,637.493 2302.5,635.5 Z"/></g>
<g><path style="opacity:1" fill="#fefefe" d="M 2181.5,614.5 C 2205.17,614.333 2228.84,614.5 2252.5,615C 2253.83,622 2253.83,629 2252.5,636C 2236.5,636.5 2220.5,636.667 2204.5,636.5C 2204.5,641.167 2204.5,645.833 2204.5,650.5C 2219.5,650.333 2234.5,650.5 2249.5,651C 2250.64,657.418 2250.81,663.918 2250,670.5C 2249.5,671 2249,671.5 2248.5,672C 2233.84,672.5 2219.17,672.667 2204.5,672.5C 2204.5,678.833 2204.5,685.167 2204.5,691.5C 2221.5,691.5 2238.5,691.5 2255.5,691.5C 2255.81,698.422 2255.48,705.256 2254.5,712C 2230.17,712.667 2205.83,712.667 2181.5,712C 2181,711.5 2180.5,711 2180,710.5C 2179.33,679.5 2179.33,648.5 2180,617.5C 2180.51,616.473 2181.01,615.473 2181.5,614.5 Z"/></g>
<g><path style="opacity:1" fill="#eb9388" d="M 2113.5,616.5 C 2121.51,616.334 2129.51,616.5 2137.5,617C 2152.33,619.995 2161.33,628.828 2164.5,643.5C 2158.19,644.661 2151.86,645.661 2145.5,646.5C 2143.76,639.59 2139.42,635.09 2132.5,633C 2115.87,629.984 2105.03,636.484 2100,652.5C 2098.25,664.062 2099.92,675.062 2105,685.5C 2113.75,695.119 2124.25,697.619 2136.5,693C 2139.83,691.333 2143.17,689.667 2146.5,688C 2147.46,683.934 2147.8,679.767 2147.5,675.5C 2140.17,675.5 2132.83,675.5 2125.5,675.5C 2125.5,670.5 2125.5,665.5 2125.5,660.5C 2138.83,660.5 2152.17,660.5 2165.5,660.5C 2165.67,672.838 2165.5,685.171 2165,697.5C 2149.67,709.052 2132.5,713.219 2113.5,710C 2097.41,705.571 2086.91,695.404 2082,679.5C 2079.49,666.635 2080.15,653.968 2084,641.5C 2090.06,628.603 2099.89,620.269 2113.5,616.5 Z"/></g>
<g><path style="opacity:1" fill="#abb5ce" d="M 2250.5,633.5 C 2250.5,628.5 2250.5,623.5 2250.5,618.5C 2228.17,618.5 2205.83,618.5 2183.5,618.5C 2183.5,648.833 2183.5,679.167 2183.5,709.5C 2182.5,679.005 2182.17,648.338 2182.5,617.5C 2205.5,617.5 2228.5,617.5 2251.5,617.5C 2251.82,623.026 2251.49,628.36 2250.5,633.5 Z"/></g>
<g><path style="opacity:1" fill="#8594b8" d="M 2250.5,633.5 C 2234.17,633.5 2217.83,633.5 2201.5,633.5C 2201.5,640.167 2201.5,646.833 2201.5,653.5C 2216.83,653.5 2232.17,653.5 2247.5,653.5C 2247.5,658.833 2247.5,664.167 2247.5,669.5C 2232.17,669.5 2216.83,669.5 2201.5,669.5C 2201.5,677.5 2201.5,685.5 2201.5,693.5C 2218.5,693.5 2235.5,693.5 2252.5,693.5C 2252.5,698.833 2252.5,704.167 2252.5,709.5C 2229.5,709.5 2206.5,709.5 2183.5,709.5C 2183.5,679.167 2183.5,648.833 2183.5,618.5C 2205.83,618.5 2228.17,618.5 2250.5,618.5C 2250.5,623.5 2250.5,628.5 2250.5,633.5 Z"/></g>
<g><path style="opacity:1" fill="#d72813" d="M 2118.5,618.5 C 2129.81,617.662 2140.48,619.828 2150.5,625C 2155.78,629.059 2159.44,634.226 2161.5,640.5C 2156.92,642.487 2152.26,643.154 2147.5,642.5C 2140.76,631.801 2131.09,627.634 2118.5,630C 2106.01,633.493 2098.84,641.659 2097,654.5C 2095.32,665.387 2096.99,675.72 2102,685.5C 2111.61,697.767 2123.78,700.934 2138.5,695C 2149.13,692.026 2152.63,685.193 2149,674.5C 2142.26,673.521 2135.42,673.188 2128.5,673.5C 2128.5,669.833 2128.5,666.167 2128.5,662.5C 2140.17,662.5 2151.83,662.5 2163.5,662.5C 2163.83,673.853 2163.5,685.186 2162.5,696.5C 2142.28,710.409 2121.28,711.909 2099.5,701C 2084.48,686.932 2079.31,669.766 2084,649.5C 2089.45,632.205 2100.95,621.872 2118.5,618.5 Z"/></g>
<g><path style="opacity:1" fill="#123177" d="M 2249.5,696.5 C 2249.5,699.833 2249.5,703.167 2249.5,706.5C 2228.17,706.5 2206.83,706.5 2185.5,706.5C 2185.5,677.833 2185.5,649.167 2185.5,620.5C 2206.5,620.5 2227.5,620.5 2248.5,620.5C 2248.5,623.833 2248.5,627.167 2248.5,630.5C 2232.5,630.333 2216.5,630.5 2200.5,631C 2200,631.5 2199.5,632 2199,632.5C 2198.33,639.833 2198.33,647.167 2199,654.5C 2199.5,655 2200,655.5 2200.5,656C 2215.16,656.5 2229.83,656.667 2244.5,656.5C 2244.5,659.833 2244.5,663.167 2244.5,666.5C 2229.83,666.333 2215.16,666.5 2200.5,667C 2200,667.5 2199.5,668 2199,668.5C 2198.33,677.5 2198.33,686.5 2199,695.5C 2215.76,696.492 2232.59,696.825 2249.5,696.5 Z"/></g>
<g><path style="opacity:1" fill="#333333" d="M 1728.5,632.5 C 1731.17,632.5 1733.83,632.5 1736.5,632.5C 1736.5,651.5 1736.5,670.5 1736.5,689.5C 1734.17,689.5 1731.83,689.5 1729.5,689.5C 1730.19,683.401 1728.85,682.901 1725.5,688C 1709.29,693.641 1701.29,687.808 1701.5,670.5C 1700.8,658.188 1706.47,651.188 1718.5,649.5C 1721.97,649.6 1725.13,650.6 1728,652.5C 1728.5,645.842 1728.67,639.175 1728.5,632.5 Z M 1719.5,655.5 C 1727.81,656.328 1730.81,660.828 1728.5,669C 1730.04,679.895 1725.37,684.561 1714.5,683C 1710.59,679.783 1708.92,675.616 1709.5,670.5C 1708.67,662.435 1712.01,657.435 1719.5,655.5 Z"/></g>
<g><path style="opacity:1" fill="#333333" d="M 1892.5,632.5 C 1895.17,632.5 1897.83,632.5 1900.5,632.5C 1900.5,651.5 1900.5,670.5 1900.5,689.5C 1898.17,689.5 1895.83,689.5 1893.5,689.5C 1894.19,683.401 1892.85,682.901 1889.5,688C 1873.29,693.641 1865.29,687.808 1865.5,670.5C 1864.8,658.188 1870.47,651.188 1882.5,649.5C 1885.97,649.6 1889.13,650.6 1892,652.5C 1892.5,645.842 1892.67,639.175 1892.5,632.5 Z M 1883.5,655.5 C 1891.81,656.328 1894.81,660.828 1892.5,669C 1894.04,679.895 1889.37,684.561 1878.5,683C 1874.59,679.783 1872.92,675.616 1873.5,670.5C 1872.67,662.435 1876.01,657.435 1883.5,655.5 Z"/></g>
<g><path style="opacity:1" fill="#333333" d="M 1930.5,632.5 C 1933.17,632.5 1935.83,632.5 1938.5,632.5C 1938.33,639.841 1938.5,647.174 1939,654.5C 1951.47,645.766 1960.47,648.432 1966,662.5C 1967.23,669.85 1966.23,676.85 1963,683.5C 1955.8,691.447 1947.8,692.447 1939,686.5C 1938.63,687.416 1938.13,688.25 1937.5,689C 1935.19,689.497 1932.86,689.663 1930.5,689.5C 1930.5,670.5 1930.5,651.5 1930.5,632.5 Z M 1944.5,656.5 C 1947.19,656.336 1949.85,656.503 1952.5,657C 1954.67,657.833 1956.17,659.333 1957,661.5C 1959.92,669.682 1958.42,676.848 1952.5,683C 1947.16,684.534 1942.66,683.367 1939,679.5C 1938.33,673.5 1938.33,667.5 1939,661.5C 1940.73,659.598 1942.56,657.931 1944.5,656.5 Z"/></g>
<g><path style="opacity:1" fill="#323232" d="M 1588.5,636.5 C 1596.51,636.334 1604.51,636.5 1612.5,637C 1621.85,640.192 1625.68,646.692 1624,656.5C 1622.57,662.925 1618.74,667.092 1612.5,669C 1607.51,669.499 1602.51,669.666 1597.5,669.5C 1597.5,676.167 1597.5,682.833 1597.5,689.5C 1594.5,689.5 1591.5,689.5 1588.5,689.5C 1588.5,671.833 1588.5,654.167 1588.5,636.5 Z M 1597.5,642.5 C 1602.74,642.023 1607.74,642.856 1612.5,645C 1616.5,650.333 1616.5,655.667 1612.5,661C 1607.74,663.144 1602.74,663.977 1597.5,663.5C 1597.5,656.5 1597.5,649.5 1597.5,642.5 Z"/></g>
<g><path style="opacity:1" fill="#8a99bc" d="M 2297.5,616.5 C 2336.25,613.747 2354.75,631.747 2353,670.5C 2348.66,699.497 2331.83,712.997 2302.5,711C 2276.27,705.922 2263.6,689.922 2264.5,663C 2264.14,639.165 2275.14,623.665 2297.5,616.5 Z M 2302.5,635.5 C 2296.33,637.493 2291.83,641.493 2289,647.5C 2286.68,655.349 2286.01,663.349 2287,671.5C 2288.72,684.049 2295.88,691.049 2308.5,692.5C 2320.19,691.309 2327.36,684.976 2330,673.5C 2330.67,666.833 2330.67,660.167 2330,653.5C 2326.27,639.374 2317.1,633.374 2302.5,635.5 Z"/></g>
<g><path style="opacity:1" fill="#143278" d="M 2300.5,618.5 C 2331.48,616.493 2348.15,630.826 2350.5,661.5C 2349.87,694.963 2332.87,710.463 2299.5,708C 2279.78,703.272 2268.94,690.772 2267,670.5C 2264.09,651.835 2269.93,636.669 2284.5,625C 2289.61,621.935 2294.94,619.769 2300.5,618.5 Z M 2302.5,635.5 C 2296.33,637.493 2291.83,641.493 2289,647.5C 2286.68,655.349 2286.01,663.349 2287,671.5C 2288.72,684.049 2295.88,691.049 2308.5,692.5C 2320.19,691.309 2327.36,684.976 2330,673.5C 2330.67,666.833 2330.67,660.167 2330,653.5C 2326.27,639.374 2317.1,633.374 2302.5,635.5 Z"/></g>
<g><path style="opacity:1" fill="#8796ba" d="M 2302.5,629.5 C 2320.79,627.625 2331.95,635.625 2336,653.5C 2337.25,663.413 2336.25,673.08 2333,682.5C 2323.62,697.624 2310.79,701.457 2294.5,694C 2287.99,689.478 2283.82,683.312 2282,675.5C 2277.93,660.179 2281.09,646.679 2291.5,635C 2295.02,632.674 2298.68,630.84 2302.5,629.5 Z M 2302.5,635.5 C 2296.33,637.493 2291.83,641.493 2289,647.5C 2286.68,655.349 2286.01,663.349 2287,671.5C 2288.72,684.049 2295.88,691.049 2308.5,692.5C 2320.19,691.309 2327.36,684.976 2330,673.5C 2330.67,666.833 2330.67,660.167 2330,653.5C 2326.27,639.374 2317.1,633.374 2302.5,635.5 Z"/></g>
<g><path style="opacity:1" fill="#fbfbfd" d="M 2302.5,632.5 C 2323.95,630.949 2334.28,640.949 2333.5,662.5C 2334.26,685.575 2323.26,696.075 2300.5,694C 2290.5,689.856 2285,682.356 2284,671.5C 2282.21,660.87 2283.87,650.87 2289,641.5C 2292.87,637.331 2297.37,634.331 2302.5,632.5 Z M 2302.5,635.5 C 2296.33,637.493 2291.83,641.493 2289,647.5C 2286.68,655.349 2286.01,663.349 2287,671.5C 2288.72,684.049 2295.88,691.049 2308.5,692.5C 2320.19,691.309 2327.36,684.976 2330,673.5C 2330.67,666.833 2330.67,660.167 2330,653.5C 2326.27,639.374 2317.1,633.374 2302.5,635.5 Z"/></g>
<g><path style="opacity:1" fill="#1a357a" d="M 2626.5,647.5 C 2627.75,650.006 2628.42,652.673 2628.5,655.5C 2625.17,656.167 2621.83,656.833 2618.5,657.5C 2617.6,651.614 2614.1,648.614 2608,648.5C 2602.55,648.897 2598.55,651.564 2596,656.5C 2593.81,663.949 2594.14,671.283 2597,678.5C 2600.74,685.423 2606.24,687.256 2613.5,684C 2616.44,681.278 2618.78,678.111 2620.5,674.5C 2622.8,675.432 2625.13,676.265 2627.5,677C 2627.3,685.886 2622.63,691.219 2613.5,693C 2600.46,695.399 2591.3,690.565 2586,678.5C 2583.07,667.863 2584.4,657.863 2590,648.5C 2597.7,640.537 2606.87,638.37 2617.5,642C 2620.65,643.662 2623.65,645.495 2626.5,647.5 Z"/></g>
<g><path style="opacity:1" fill="#173479" d="M 2442.5,670.5 C 2442.5,675.167 2442.5,679.833 2442.5,684.5C 2452.17,684.5 2461.83,684.5 2471.5,684.5C 2471.5,687.167 2471.5,689.833 2471.5,692.5C 2458.5,692.5 2445.5,692.5 2432.5,692.5C 2432.5,675.5 2432.5,658.5 2432.5,641.5C 2445.17,641.5 2457.83,641.5 2470.5,641.5C 2470.5,644.167 2470.5,646.833 2470.5,649.5C 2461.17,649.5 2451.83,649.5 2442.5,649.5C 2442.5,653.5 2442.5,657.5 2442.5,661.5C 2451.17,661.5 2459.83,661.5 2468.5,661.5C 2468.5,664.167 2468.5,666.833 2468.5,669.5C 2459.65,669.174 2450.98,669.507 2442.5,670.5 Z"/></g>
<g><path style="opacity:1" fill="#c7cedf" d="M 2638.5,639.5 C 2642.5,639.5 2646.5,639.5 2650.5,639.5C 2650.5,646.5 2650.5,653.5 2650.5,660.5C 2656.83,660.5 2663.17,660.5 2669.5,660.5C 2669.5,653.5 2669.5,646.5 2669.5,639.5C 2673.5,639.5 2677.5,639.5 2681.5,639.5C 2681.5,657.833 2681.5,676.167 2681.5,694.5C 2677.5,694.5 2673.5,694.5 2669.5,694.5C 2669.5,686.833 2669.5,679.167 2669.5,671.5C 2663.17,671.5 2656.83,671.5 2650.5,671.5C 2650.5,679.167 2650.5,686.833 2650.5,694.5C 2646.5,694.5 2642.5,694.5 2638.5,694.5C 2638.5,676.167 2638.5,657.833 2638.5,639.5 Z"/></g>
<g><path style="opacity:1" fill="#163479" d="M 2671.5,692.5 C 2671.5,684.833 2671.5,677.167 2671.5,669.5C 2663.83,669.5 2656.17,669.5 2648.5,669.5C 2648.5,677.167 2648.5,684.833 2648.5,692.5C 2645.5,692.5 2642.5,692.5 2639.5,692.5C 2639.5,675.5 2639.5,658.5 2639.5,641.5C 2642.83,641.5 2646.17,641.5 2649.5,641.5C 2649.5,648.167 2649.5,654.833 2649.5,661.5C 2656.5,661.5 2663.5,661.5 2670.5,661.5C 2670.5,654.833 2670.5,648.167 2670.5,641.5C 2673.83,641.5 2677.17,641.5 2680.5,641.5C 2680.5,658.5 2680.5,675.5 2680.5,692.5C 2677.5,692.5 2674.5,692.5 2671.5,692.5 Z"/></g>
<g><path style="opacity:1" fill="#323232" d="M 1646.5,649.5 C 1653.56,648.271 1655.89,650.937 1653.5,657.5C 1647.41,656.137 1642.91,658.137 1640,663.5C 1639.5,672.16 1639.33,680.827 1639.5,689.5C 1636.83,689.5 1634.17,689.5 1631.5,689.5C 1631.5,676.5 1631.5,663.5 1631.5,650.5C 1633.83,650.5 1636.17,650.5 1638.5,650.5C 1638.34,652.527 1638.5,654.527 1639,656.5C 1640.77,653.228 1643.27,650.895 1646.5,649.5 Z"/></g>
<g><path style="opacity:1" fill="#333333" d="M 1671.5,649.5 C 1690.13,648.966 1697.96,657.966 1695,676.5C 1691.06,687.56 1683.22,692.06 1671.5,690C 1664.74,688.237 1660.24,684.07 1658,677.5C 1654.43,663.949 1658.93,654.616 1671.5,649.5 Z M 1671.5,656.5 C 1684.18,655.694 1689.35,661.694 1687,674.5C 1684.94,682.877 1679.77,685.711 1671.5,683C 1669.33,682.167 1667.83,680.667 1667,678.5C 1663.89,670.025 1665.39,662.692 1671.5,656.5 Z"/></g>
<g><path style="opacity:1" fill="#333333" d="M 1802.5,649.5 C 1808.23,648.895 1813.57,650.062 1818.5,653C 1820,655.827 1819.17,657.66 1816,658.5C 1811.99,656.728 1807.83,656.228 1803.5,657C 1800.62,658.251 1798.79,660.417 1798,663.5C 1797.33,667.833 1797.33,672.167 1798,676.5C 1801.95,684.38 1807.45,685.88 1814.5,681C 1817.53,679.925 1819.53,680.925 1820.5,684C 1814.31,690.362 1806.97,692.028 1798.5,689C 1791.59,684.654 1788.26,678.321 1788.5,670C 1788.64,659.828 1793.31,652.995 1802.5,649.5 Z"/></g>
<g><path style="opacity:1" fill="#333333" d="M 1838.5,649.5 C 1853.33,648.165 1860.49,654.832 1860,669.5C 1850.92,670.485 1841.75,670.818 1832.5,670.5C 1833.14,681.296 1838.81,685.462 1849.5,683C 1851.39,681.888 1853.39,681.054 1855.5,680.5C 1857.4,680.728 1858.73,681.728 1859.5,683.5C 1855.43,688.53 1850.09,690.863 1843.5,690.5C 1833.73,690.538 1827.57,685.871 1825,676.5C 1821.65,663.291 1826.15,654.291 1838.5,649.5 Z M 1840.5,655.5 C 1847.89,654.896 1851.89,658.229 1852.5,665.5C 1845.83,665.5 1839.17,665.5 1832.5,665.5C 1833.36,660.65 1836.02,657.317 1840.5,655.5 Z"/></g>
<g><path style="opacity:1" fill="#323232" d="M 1747.5,650.5 C 1750.17,650.5 1752.83,650.5 1755.5,650.5C 1755.33,660.172 1755.5,669.839 1756,679.5C 1757.14,682.859 1759.47,684.192 1763,683.5C 1766.6,683.573 1769.6,682.24 1772,679.5C 1772.5,669.839 1772.67,660.172 1772.5,650.5C 1775.17,650.5 1777.83,650.5 1780.5,650.5C 1780.5,663.5 1780.5,676.5 1780.5,689.5C 1778.47,689.662 1776.47,689.495 1774.5,689C 1773.81,687.933 1773.31,686.766 1773,685.5C 1764.6,692.452 1756.6,692.118 1749,684.5C 1747.57,673.244 1747.07,661.91 1747.5,650.5 Z"/></g>
<g><path style="opacity:1" fill="#333333" d="M 1968.5,650.5 C 1971.57,650.183 1974.57,650.516 1977.5,651.5C 1980.84,659.843 1984.17,668.176 1987.5,676.5C 1991.22,668.36 1994.55,660.026 1997.5,651.5C 2000.09,650.52 2002.75,650.187 2005.5,650.5C 1999.19,668.26 1992.19,685.76 1984.5,703C 1981.83,703.667 1979.17,703.667 1976.5,703C 1978.96,697.908 1981.3,692.741 1983.5,687.5C 1978.3,675.223 1973.3,662.89 1968.5,650.5 Z"/></g>
<g><path style="opacity:1" fill="#cfd5e3" d="M 2392.5,639.5 C 2399.59,639.116 2406.59,639.616 2413.5,641C 2419.72,644.27 2422.72,649.436 2422.5,656.5C 2418.18,656.927 2413.84,657.261 2409.5,657.5C 2409.17,652.336 2406.33,649.669 2401,649.5C 2399.11,649.796 2397.28,650.296 2395.5,651C 2393.79,652.133 2393.29,653.633 2394,655.5C 2399.92,658.253 2406.09,660.42 2412.5,662C 2420.23,664.304 2423.9,669.47 2423.5,677.5C 2423.73,684.54 2420.73,689.706 2414.5,693C 2406.48,696.124 2398.48,696.124 2390.5,693C 2382.26,689.187 2379.26,683.187 2381.5,675C 2384.88,674.176 2388.22,674.343 2391.5,675.5C 2395.12,684.077 2401.12,686.243 2409.5,682C 2412.37,678.949 2412.04,676.282 2408.5,674C 2401.24,672.435 2394.24,670.101 2387.5,667C 2380.99,660.749 2379.82,653.582 2384,645.5C 2386.64,643.109 2389.47,641.109 2392.5,639.5 Z"/></g>
<g><path style="opacity:1" fill="#1a357a" d="M 2394.5,640.5 C 2403.95,638.738 2412.12,641.071 2419,647.5C 2420.08,650.063 2420.58,652.729 2420.5,655.5C 2417.48,655.665 2414.48,655.498 2411.5,655C 2407.85,648.876 2402.52,646.876 2395.5,649C 2392.02,651.706 2391.69,654.706 2394.5,658C 2400.87,659.874 2407.2,661.874 2413.5,664C 2421.3,667.781 2424.14,673.947 2422,682.5C 2419.55,688.616 2415.05,692.116 2408.5,693C 2396.9,695.922 2388.07,692.422 2382,682.5C 2381.5,680.527 2381.34,678.527 2381.5,676.5C 2387.26,674.025 2391.1,675.691 2393,681.5C 2398.35,686.311 2404.18,686.811 2410.5,683C 2413.43,679.304 2413.09,675.971 2409.5,673C 2402.24,671.435 2395.24,669.101 2388.5,666C 2379.04,654.718 2381.04,646.218 2394.5,640.5 Z"/></g>
<g><path style="opacity:1" fill="#dee2ec" d="M 2626.5,647.5 C 2628.97,649.898 2630.31,652.898 2630.5,656.5C 2627.11,656.846 2623.78,657.512 2620.5,658.5C 2619.58,658.457 2618.92,658.124 2618.5,657.5C 2621.83,656.833 2625.17,656.167 2628.5,655.5C 2628.42,652.673 2627.75,650.006 2626.5,647.5 Z"/></g>
<g><path style="opacity:1" fill="#b6bfd5" d="M 2469.5,670.5 C 2460.5,670.5 2451.5,670.5 2442.5,670.5C 2450.98,669.507 2459.65,669.174 2468.5,669.5C 2468.5,666.833 2468.5,664.167 2468.5,661.5C 2459.83,661.5 2451.17,661.5 2442.5,661.5C 2442.5,657.5 2442.5,653.5 2442.5,649.5C 2451.83,649.5 2461.17,649.5 2470.5,649.5C 2470.5,646.833 2470.5,644.167 2470.5,641.5C 2457.83,641.5 2445.17,641.5 2432.5,641.5C 2432.5,658.5 2432.5,675.5 2432.5,692.5C 2445.5,692.5 2458.5,692.5 2471.5,692.5C 2458.34,693.496 2445.01,693.829 2431.5,693.5C 2431.5,675.5 2431.5,657.5 2431.5,639.5C 2444.83,639.5 2458.17,639.5 2471.5,639.5C 2471.5,643.167 2471.5,646.833 2471.5,650.5C 2462.17,650.5 2452.83,650.5 2443.5,650.5C 2443.5,653.833 2443.5,657.167 2443.5,660.5C 2452.17,660.5 2460.83,660.5 2469.5,660.5C 2469.5,663.833 2469.5,667.167 2469.5,670.5 Z"/></g>
<g><path style="opacity:1" fill="#495f96" d="M 2671.5,692.5 C 2670.51,685.352 2670.18,678.019 2670.5,670.5C 2663.5,670.5 2656.5,670.5 2649.5,670.5C 2649.82,678.019 2649.49,685.352 2648.5,692.5C 2648.5,684.833 2648.5,677.167 2648.5,669.5C 2656.17,669.5 2663.83,669.5 2671.5,669.5C 2671.5,677.167 2671.5,684.833 2671.5,692.5 Z"/></g>
<g><path style="opacity:1" fill="#cad1e0" d="M 2494.5,639.5 C 2498.77,639.203 2502.93,639.536 2507,640.5C 2514.17,658.017 2521.34,675.517 2528.5,693C 2524.35,694.595 2520.02,694.928 2515.5,694C 2513.45,690.502 2511.78,686.835 2510.5,683C 2503.84,682.5 2497.17,682.334 2490.5,682.5C 2489.86,686.578 2488.53,690.411 2486.5,694C 2481.98,694.928 2477.65,694.595 2473.5,693C 2480.6,675.194 2487.6,657.361 2494.5,639.5 Z M 2499.5,657.5 C 2500.5,657.47 2501.16,657.97 2501.5,659C 2502.98,663.098 2504.64,667.098 2506.5,671C 2502.85,671.499 2499.18,671.665 2495.5,671.5C 2497.03,666.903 2498.37,662.236 2499.5,657.5 Z"/></g>
<g><path style="opacity:1" fill="#183479" d="M 2495.5,641.5 C 2499.23,641.177 2502.89,641.511 2506.5,642.5C 2513.17,658.833 2519.83,675.167 2526.5,691.5C 2522.89,692.489 2519.23,692.823 2515.5,692.5C 2514.57,688.716 2513.24,685.049 2511.5,681.5C 2504.2,680.503 2496.86,680.169 2489.5,680.5C 2489.16,684.721 2487.82,688.554 2485.5,692C 2482.12,692.824 2478.78,692.657 2475.5,691.5C 2482.18,674.808 2488.85,658.141 2495.5,641.5 Z M 2499.5,657.5 C 2498.37,662.236 2497.03,666.903 2495.5,671.5C 2499.18,671.665 2502.85,671.499 2506.5,671C 2504.64,667.098 2502.98,663.098 2501.5,659C 2501.16,657.97 2500.5,657.47 2499.5,657.5 Z"/></g>
<g><path style="opacity:1" fill="#cdd2e2" d="M 2499.5,653.5 C 2500.75,653.577 2501.58,654.244 2502,655.5C 2504.35,661.037 2506.18,666.703 2507.5,672.5C 2502.83,672.5 2498.17,672.5 2493.5,672.5C 2495.64,666.272 2497.64,659.938 2499.5,653.5 Z M 2499.5,657.5 C 2498.37,662.236 2497.03,666.903 2495.5,671.5C 2499.18,671.665 2502.85,671.499 2506.5,671C 2504.64,667.098 2502.98,663.098 2501.5,659C 2501.16,657.97 2500.5,657.47 2499.5,657.5 Z"/></g>
<g><path style="opacity:1" fill="#cbd1e1" d="M 2626.5,647.5 C 2623.65,645.495 2620.65,643.662 2617.5,642C 2606.87,638.37 2597.7,640.537 2590,648.5C 2584.4,657.863 2583.07,667.863 2586,678.5C 2591.3,690.565 2600.46,695.399 2613.5,693C 2622.63,691.219 2627.3,685.886 2627.5,677C 2625.13,676.265 2622.8,675.432 2620.5,674.5C 2618.78,678.111 2616.44,681.278 2613.5,684C 2606.24,687.256 2600.74,685.423 2597,678.5C 2594.14,671.283 2593.81,663.949 2596,656.5C 2598.55,651.564 2602.55,648.897 2608,648.5C 2614.1,648.614 2617.6,651.614 2618.5,657.5C 2614.73,650.477 2609.06,648.644 2601.5,652C 2599.11,653.952 2597.61,656.452 2597,659.5C 2596.33,664.5 2596.33,669.5 2597,674.5C 2599.29,682.398 2604.46,685.231 2612.5,683C 2615.7,680.093 2618.04,676.593 2619.5,672.5C 2622.8,673.765 2626.13,674.932 2629.5,676C 2629.54,685.333 2624.87,691.333 2615.5,694C 2599.18,697.432 2588.68,691.266 2584,675.5C 2580.6,647.896 2592.43,636.396 2619.5,641C 2622.79,642.282 2625.12,644.448 2626.5,647.5 Z"/></g>
<g><path style="opacity:1" fill="#dbdfea" d="M 2442.5,670.5 C 2451.5,670.5 2460.5,670.5 2469.5,670.5C 2461.02,671.493 2452.35,671.826 2443.5,671.5C 2443.5,675.5 2443.5,679.5 2443.5,683.5C 2453.17,683.5 2462.83,683.5 2472.5,683.5C 2472.5,687.167 2472.5,690.833 2472.5,694.5C 2458.66,694.829 2444.99,694.496 2431.5,693.5C 2445.01,693.829 2458.34,693.496 2471.5,692.5C 2471.5,689.833 2471.5,687.167 2471.5,684.5C 2461.83,684.5 2452.17,684.5 2442.5,684.5C 2442.5,679.833 2442.5,675.167 2442.5,670.5 Z"/></g>
<g><path style="opacity:1" fill="#c7cede" d="M 2532.5,639.5 C 2543.88,639.174 2555.21,639.674 2566.5,641C 2571.24,642.068 2574.4,644.901 2576,649.5C 2578.72,659.886 2575.22,667.052 2565.5,671C 2572.42,677.825 2577.42,685.492 2580.5,694C 2575.8,694.828 2571.13,694.662 2566.5,693.5C 2561.96,686.912 2557.29,680.412 2552.5,674C 2549.99,672.748 2547.32,672.248 2544.5,672.5C 2544.5,679.833 2544.5,687.167 2544.5,694.5C 2540.5,694.5 2536.5,694.5 2532.5,694.5C 2532.5,676.167 2532.5,657.833 2532.5,639.5 Z M 2544.5,650.5 C 2549.51,650.334 2554.51,650.501 2559.5,651C 2563.93,653.549 2564.59,656.882 2561.5,661C 2555.84,661.633 2550.17,662.133 2544.5,662.5C 2544.5,658.5 2544.5,654.5 2544.5,650.5 Z"/></g>
<g><path style="opacity:1" fill="#173479" d="M 2533.5,641.5 C 2543.51,641.334 2553.51,641.5 2563.5,642C 2573.2,643.886 2577.03,649.719 2575,659.5C 2572.74,665.731 2568.24,669.231 2561.5,670C 2568.82,675.824 2574.49,682.99 2578.5,691.5C 2574.88,692.659 2571.21,692.825 2567.5,692C 2562.88,685.05 2557.88,678.384 2552.5,672C 2549.52,671.502 2546.52,671.335 2543.5,671.5C 2543.5,678.5 2543.5,685.5 2543.5,692.5C 2540.17,692.5 2536.83,692.5 2533.5,692.5C 2533.5,675.5 2533.5,658.5 2533.5,641.5 Z M 2544.5,650.5 C 2544.5,654.5 2544.5,658.5 2544.5,662.5C 2550.17,662.133 2555.84,661.633 2561.5,661C 2564.59,656.882 2563.93,653.549 2559.5,651C 2554.51,650.501 2549.51,650.334 2544.5,650.5 Z"/></g>
<g><path style="opacity:1" fill="#ced4e3" d="M 2543.5,649.5 C 2549.51,649.334 2555.51,649.501 2561.5,650C 2566.96,654.705 2566.63,659.038 2560.5,663C 2554.84,663.499 2549.18,663.666 2543.5,663.5C 2543.5,658.833 2543.5,654.167 2543.5,649.5 Z M 2544.5,650.5 C 2544.5,654.5 2544.5,658.5 2544.5,662.5C 2550.17,662.133 2555.84,661.633 2561.5,661C 2564.59,656.882 2563.93,653.549 2559.5,651C 2554.51,650.501 2549.51,650.334 2544.5,650.5 Z"/></g>
<g><path style="opacity:1" fill="#4e6599" d="M 2249.5,696.5 C 2250.48,699.962 2250.81,703.629 2250.5,707.5C 2228.66,707.831 2206.99,707.497 2185.5,706.5C 2206.83,706.5 2228.17,706.5 2249.5,706.5C 2249.5,703.167 2249.5,699.833 2249.5,696.5 Z"/></g>
</svg>
