<svg width="4382" height="626" xmlns="http://www.w3.org/2000/svg" xmlns:xlink="http://www.w3.org/1999/xlink" xml:space="preserve" overflow="hidden"><defs><clipPath id="clip0"><rect x="-46" y="986" width="4382" height="626"/></clipPath></defs><g clip-path="url(#clip0)" transform="translate(46 -986)"><path d="M-46.0001 1276.11C-46.0001 1263.9-36.1005 1254-23.8888 1254L4313.89 1254C4326.1 1254 4336 1263.9 4336 1276.11L4336 1541.89C4336 1554.1 4326.1 1564 4313.89 1564L-23.8888 1564C-36.1005 1564-46.0001 1554.1-46.0001 1541.89Z" fill="#4A71A0" fill-rule="evenodd"/><path d="M45.5985 3.32415C40.6005 8.70322 46.062 24.2941 42.4838 36.2707 34.2472 44.1396 7.81212 48.3572 3.04787 57.5789-3.25148 65.2072 1.69443 78.7179 4.6875 82.0409 4.71921 85.3641 3.92927 90.5254 13.8987 91.6011 23.8682 92.677 53.5023 91.5562 64.5039 88.4957 78.4667 82.5013 87.5987 87.3219 97.6756 83.8012 101.622 80.3497 100.781 83.0194 101.868 70.8921 103.485 52.6728 103.266 15.8304 101.868 3.99639 90.2218-6.0772 86.2643 6.35796 72.472 3.99655 59.7774 5.74292 50.5966-2.05492 45.5985 3.32415Z" stroke="#352011" stroke-width="9.16667" stroke-linecap="round" stroke-linejoin="round" stroke-miterlimit="10" fill="#632D09" fill-rule="evenodd" transform="matrix(-1 0 0 1 4308.5 1453.5)"/><path d="M4208.5 1525.5 4235.55 1529.85C4252.75 1535.44 4297.63 1543.52 4303.5 1530.47" stroke="#352011" stroke-width="9.16667" stroke-miterlimit="8" fill="none" fill-rule="evenodd"/><path d="M4103.66 1455.82C4098.71 1461.2 4104.11 1476.79 4100.57 1488.77 4092.41 1496.64 4066.24 1500.86 4061.52 1510.08 4055.28 1517.71 4060.18 1531.22 4063.14 1534.54 4063.17 1537.86 4062.39 1543.03 4072.26 1544.1 4082.14 1545.18 4111.48 1544.06 4122.38 1541 4136.21 1535 4145.25 1539.82 4155.23 1536.3 4159.14 1532.85 4158.3 1535.52 4159.38 1523.39 4160.98 1505.17 4160.76 1468.33 4159.38 1456.5 4147.85 1446.42 4143.93 1458.86 4130.27 1456.5 4117.7 1458.24 4108.61 1450.44 4103.66 1455.82Z" stroke="#352011" stroke-width="9.16667" stroke-linecap="round" stroke-linejoin="round" stroke-miterlimit="10" fill="#632D09" fill-rule="evenodd"/><path d="M0 0 22.7817 4.3494C37.2629 9.94173 75.0551 18.0194 80.0001 4.97094" stroke="#352011" stroke-width="9.16667" stroke-miterlimit="8" fill="none" fill-rule="evenodd" transform="matrix(-1 0 0 1 4144.5 1524.5)"/><path d="M4149.32 1283.5C4131.64 1287.58 4114.04 1293.87 4101.39 1300.82 4088.73 1307.78 4081.79 1318.8 4073.39 1325.24 4064.98 1331.69 4049.18 1341.2 4027.5 1359.89 4027.67 1374.33 4049.42 1401.17 4062.17 1413.91 4070.59 1409.65 4095.99 1403.29 4107.55 1398.11 4114.7 1418.15 4104.16 1430.46 4109.33 1454.42 4126.54 1455.58 4172.24 1456.7 4206.22 1452.71 4208.34 1418.92 4197.55 1313.19 4199.28 1313.05 4194.86 1279.76 4165.97 1293.35 4149.32 1283.5Z" stroke="#2F528F" stroke-width="9.16667" stroke-miterlimit="8" fill="#9DC3E6" fill-rule="evenodd"/><path d="M4236.87 1281.26C4215.88 1286.95 4191.46 1325.55 4174.65 1355.68 4176.63 1386.5 4170.24 1443.83 4180.74 1455.35 4200.86 1457.01 4248.64 1463.79 4262.07 1455.35 4276.2 1445.26 4257.68 1390.46 4258.26 1375.11 4267.59 1372.88 4286.32 1398.87 4293.37 1389.95 4300.43 1381.02 4312.23 1351.37 4300.59 1321.56 4293.14 1302.92 4257.86 1275.58 4236.87 1281.26Z" stroke="#2F528F" stroke-width="9.16667" stroke-linecap="round" stroke-linejoin="round" stroke-miterlimit="10" fill="#9DC3E6" fill-rule="evenodd"/><path d="M4280.5 1307.98C4271.2 1289.14 4259.48 1291.08 4239.15 1290.5 4222.96 1308.76 4195.74 1399.84 4188.5 1430.34 4197.8 1431.31 4214.69 1436.94 4228.81 1430.34 4244.84 1403.73 4274.3 1328.76 4280.5 1307.98Z" stroke="#7F6000" stroke-width="9.16667" stroke-miterlimit="8" fill="#FFFF00" fill-rule="evenodd"/><path d="M71.0002 15.2794C63.8204-1.18834 54.7792 0.509313 39.0901 0 26.592 15.9584 5.58428 95.5812 0 122.235 7.17979 123.084 20.2098 128.007 31.1124 122.235 43.4776 98.9765 66.2136 33.445 71.0002 15.2794Z" stroke="#7F6000" stroke-width="9.16667" stroke-miterlimit="8" fill="#FFFF00" fill-rule="evenodd" transform="matrix(-1 0 0 1 4165.5 1307.5)"/><path d="M4244.14 1443.7C4261.09 1435.4 4265.33 1443.47 4245.1 1423.37 4211.79 1424.05 4153.93 1426.78 4119.18 1420.74 4092.3 1444.4 4108.89 1436.07 4124.39 1443.48 4155.71 1447.61 4224.56 1453.54 4244.14 1443.7Z" stroke="#7F6000" stroke-width="9.16667" stroke-miterlimit="8" fill="#FFFF00" fill-rule="evenodd"/><path d="M4181.09 1352.72C4156.4 1348.65 4138.88 1359.23 4129.42 1359.17 4119.96 1359.11 4122.93 1358.98 4124.34 1352.39 4125.75 1345.8 4142.32 1320.18 4135.63 1319.05 4128.06 1318.16 4089.55 1349.76 4086.5 1339.96 4086.52 1323.71 4108.26 1273.54 4117.34 1260.25 4126.43 1246.97 4141 1260.25 4141 1260.25 4157.17 1260.45 4197.77 1261.83 4214.33 1261.43 4230.89 1261.04 4229.68 1246.41 4240.35 1257.88 4251.03 1269.36 4280.53 1325.81 4278.39 1330.27 4276.25 1334.74 4237.94 1319.8 4230.89 1325.34 4223.84 1330.88 4241 1349.31 4236.09 1363.5 4221.39 1362.37 4202.31 1348.36 4181.09 1352.72Z" stroke="#2F528F" stroke-width="9.16667" stroke-miterlimit="8" fill="#9DC3E6" fill-rule="evenodd"/><path d="M4209.72 1272.17C4189.07 1269.03 4154.98 1271.21 4140.43 1271.59 4128.7 1281.38 4134.8 1314.37 4137.62 1322.92 4140.81 1341.17 4155.83 1337.07 4180.86 1354.5 4207.23 1341.96 4223.53 1346.59 4230.57 1328.05 4233.48 1300.77 4230.38 1275.3 4209.72 1272.17Z" stroke="#2F528F" stroke-width="9.16667" stroke-miterlimit="8" fill="#FFECD9" fill-rule="evenodd"/><path d="M4054 1197.5C4054 1109.58 4109.96 1066 4179 1066 4248.04 1066 4304 1124.87 4304 1197.5 4301.09 1291.53 4248.04 1329 4179 1329 4109.96 1329 4054 1285.42 4054 1197.5Z" stroke="#2F5597" stroke-width="13.75" stroke-miterlimit="8" fill="#FFECD9" fill-rule="evenodd"/><path d="M4142.5 1220C4142.5 1212.54 4145.41 1206.5 4149 1206.5 4152.59 1206.5 4155.5 1212.54 4155.5 1220 4155.5 1227.46 4152.59 1233.5 4149 1233.5 4145.41 1233.5 4142.5 1227.46 4142.5 1220Z" stroke="#2F528F" stroke-width="4.58333" stroke-miterlimit="8" fill="#2F5597" fill-rule="evenodd"/><path d="M4191.5 1220C4191.5 1212.54 4194.41 1206.5 4198 1206.5 4201.59 1206.5 4204.5 1212.54 4204.5 1220 4204.5 1227.46 4201.59 1233.5 4198 1233.5 4194.41 1233.5 4191.5 1227.46 4191.5 1220Z" stroke="#2F528F" stroke-width="4.58333" stroke-miterlimit="8" fill="#2F5597" fill-rule="evenodd"/><path d="M4144.5 1182.13C4144.56 1173.49 4154.93 1175.46 4154.49 1183.5" stroke="#2F528F" stroke-width="6.875" stroke-miterlimit="8" fill="none" fill-rule="evenodd"/><path d="M0 5.62815C0.0696011-3.00804 11.4691-1.0351 10.9864 6.99987" stroke="#2F528F" stroke-width="6.875" stroke-miterlimit="8" fill="none" fill-rule="evenodd" transform="matrix(-1 0 0 1 4203.5 1176.5)"/><path d="M4104 1259.4C4108.5 1256.47 4112.99 1253.54 4114.35 1253.8 4115.7 1254.07 4111.15 1261 4112.13 1261 4113.12 1261 4119.03 1253.87 4120.26 1253.8 4121.49 1253.74 4118.17 1260.73 4119.52 1260.6 4120.88 1260.47 4126.91 1253.14 4128.39 1253 4129.87 1252.87 4126.79 1259.33 4128.39 1259.8 4129.99 1260.27 4138 1255.8 4138 1255.8L4138 1255.8 4137.26 1255.4" stroke="#C55A11" stroke-width="2.29167" stroke-miterlimit="8" fill="none" fill-rule="evenodd"/><path d="M4212 1259.4C4216.63 1256.47 4221.26 1253.54 4222.65 1253.8 4224.05 1254.07 4219.35 1261 4220.37 1261 4221.38 1261 4227.47 1253.87 4228.74 1253.8 4230.01 1253.74 4226.58 1260.73 4227.98 1260.6 4229.37 1260.47 4235.59 1253.14 4237.11 1253 4238.63 1252.87 4235.46 1259.33 4237.11 1259.8 4238.76 1260.27 4247 1255.8 4247 1255.8L4247 1255.8 4246.24 1255.4" stroke="#C55A11" stroke-width="2.29167" stroke-miterlimit="8" fill="none" fill-rule="evenodd"/><path d="M4192.5 1278.5C4192.26 1298.45 4158.05 1300.88 4157.5 1279.32" stroke="#2F528F" stroke-width="6.875" stroke-miterlimit="8" fill="none" fill-rule="evenodd"/><path d="M4196.31 1278.32C4194.79 1281.16 4191.05 1279.1 4190.92 1274.89" stroke="#2F528F" stroke-width="6.875" stroke-miterlimit="8" fill="none" fill-rule="evenodd"/><path d="M4289.5 1148.84C4289.54 1148.97 4291.79 1160.95 4296.32 1158.05 4298.85 1156.42 4299.95 1152.93 4301.77 1150.38 4302.23 1148.84 4302.22 1147.02 4303.14 1145.78 4305.06 1143.18 4309.39 1140.1 4312.68 1139.64 4314.94 1139.32 4317.23 1139.64 4319.5 1139.64" stroke="#2F528F" stroke-width="4.58333" stroke-linecap="round" stroke-linejoin="round" stroke-miterlimit="10" fill="none" fill-rule="evenodd"/><path d="M4289.5 1158.35C4289.54 1158.47 4291.79 1169.82 4296.32 1167.07 4298.85 1165.53 4299.95 1162.23 4301.77 1159.8 4302.23 1158.35 4302.22 1156.62 4303.14 1155.45 4305.06 1152.98 4309.39 1150.07 4312.68 1149.63 4314.94 1149.33 4317.23 1149.63 4319.5 1149.63" stroke="#2F528F" stroke-width="4.58333" stroke-linecap="round" stroke-linejoin="round" stroke-miterlimit="10" fill="none" fill-rule="evenodd"/><path d="M4297.5 1161.35C4297.54 1161.47 4299.79 1172.82 4304.32 1170.07 4306.85 1168.53 4307.95 1165.23 4309.77 1162.8 4310.23 1161.35 4310.22 1159.62 4311.14 1158.45 4313.06 1155.98 4317.39 1153.07 4320.68 1152.63 4322.94 1152.33 4325.23 1152.63 4327.5 1152.63" stroke="#2F528F" stroke-width="4.58333" stroke-linecap="round" stroke-linejoin="round" stroke-miterlimit="10" fill="none" fill-rule="evenodd"/><path d="M4289.5 1143.84C4289.54 1143.97 4291.79 1155.95 4296.32 1153.05 4298.85 1151.42 4299.95 1147.93 4301.77 1145.38 4302.23 1143.84 4302.22 1142.02 4303.14 1140.78 4305.06 1138.18 4309.39 1135.1 4312.68 1134.64 4314.94 1134.32 4317.23 1134.64 4319.5 1134.64" stroke="#2F528F" stroke-width="6.875" stroke-linecap="round" stroke-linejoin="round" stroke-miterlimit="10" fill="none" fill-rule="evenodd"/><path d="M4039.21 1127.38C4039.22 1127.47 4037.52 1135.7 4043.18 1136.79 4046.35 1137.4 4048.67 1136.08 4051.41 1135.72 4052.4 1135.12 4053 1134.07 4054.37 1133.92 4057.24 1133.61 4062.76 1134.49 4066.32 1136.22 4068.76 1137.41 4071.03 1138.99 4073.38 1140.37" stroke="#2F528F" stroke-width="4.58333" stroke-linecap="round" stroke-linejoin="round" stroke-miterlimit="10" fill="none" fill-rule="evenodd"/><path d="M4035.42 1135.24C4035.43 1135.34 4033.73 1143.56 4039.39 1144.66 4042.56 1145.26 4044.88 1143.94 4047.62 1143.59 4048.61 1142.99 4049.21 1141.94 4050.58 1141.79 4053.45 1141.47 4058.97 1142.35 4062.53 1144.09 4064.97 1145.28 4067.24 1146.86 4069.59 1148.24" stroke="#2F528F" stroke-width="4.58333" stroke-linecap="round" stroke-linejoin="round" stroke-miterlimit="10" fill="none" fill-rule="evenodd"/><path d="M4056.31 1118.28C4056.2 1118.36 4044.54 1123.91 4048.53 1126.16 4050.77 1127.41 4054.57 1127.05 4057.58 1127.5 4059.24 1127.31 4061.1 1126.7 4062.57 1126.95 4065.65 1127.46 4069.78 1129.52 4071 1131.7 4071.84 1133.19 4072.05 1134.92 4072.57 1136.53" stroke="#2F528F" stroke-width="6.875" stroke-linecap="round" stroke-linejoin="round" stroke-miterlimit="10" fill="none" fill-rule="evenodd"/><path d="M3874.45 1090.35C3896.18 1075.82 3921.2 1068.26 3944.57 1057.21 4024.84 1209 4090.52 1357.02 4159.51 1512.01 4139.43 1530.03 4112.76 1534.1 4089.38 1545.15 4015.99 1394.37 3939.12 1245.25 3874.45 1090.35Z" stroke="#2F5597" stroke-width="13.75" stroke-miterlimit="8" fill="#FFFFFF" fill-rule="evenodd"/><path d="M4053.89 1450.05 4111.22 1422.96 4139.73 1483.27 4082.4 1510.37C4065.31 1484.94 4062.84 1476.65 4053.89 1450.05Z" fill="#F4B183" fill-rule="evenodd"/><path d="M3999.31 1340.99 4061.16 1311.76 4089.67 1372.08 4027.82 1401.31C4010.41 1376.04 4008.03 1367.7 3999.31 1340.99Z" fill="#F4B183" fill-rule="evenodd"/><path d="M3936.39 1213.91 4001.15 1183.3 4029.65 1243.62 3964.89 1274.23C3947.27 1249.06 3944.95 1240.69 3936.39 1213.91Z" fill="#F4B183" fill-rule="evenodd"/><path d="M3884.95 1092.09 3942.69 1064.81 3971.19 1125.13 3913.46 1152.41C3896.34 1127 3893.88 1118.7 3884.95 1092.09Z" fill="#F4B183" fill-rule="evenodd"/><path d="M3883.17 1106.28C3885.96 1102.26 3890.88 1101.87 3895.7 1098.58" stroke="#2F528F" stroke-width="6.875" stroke-miterlimit="8" fill="none" fill-rule="evenodd"/><path d="M3893.54 1128.21C3896.32 1124.19 3901.25 1123.8 3906.06 1120.51" stroke="#2F528F" stroke-width="6.875" stroke-miterlimit="8" fill="none" fill-rule="evenodd"/><path d="M3903.88 1150.32C3906.67 1146.3 3911.59 1145.92 3916.41 1142.63" stroke="#2F528F" stroke-width="6.875" stroke-miterlimit="8" fill="none" fill-rule="evenodd"/><path d="M3914.61 1173.02C3917.39 1169 3922.32 1168.62 3927.14 1165.33" stroke="#2F528F" stroke-width="6.875" stroke-miterlimit="8" fill="none" fill-rule="evenodd"/><path d="M3924.99 1195C3927.78 1190.98 3932.71 1190.59 3937.52 1187.3" stroke="#2F528F" stroke-width="6.875" stroke-miterlimit="8" fill="none" fill-rule="evenodd"/><path d="M3935.38 1216.97C3938.17 1212.95 3943.09 1212.57 3947.91 1209.28" stroke="#2F528F" stroke-width="6.875" stroke-miterlimit="8" fill="none" fill-rule="evenodd"/><path d="M3946.14 1239.74C3948.93 1235.73 3953.85 1235.34 3958.67 1232.05" stroke="#2F528F" stroke-width="6.875" stroke-miterlimit="8" fill="none" fill-rule="evenodd"/><path d="M3956.9 1262.51C3959.69 1258.5 3964.61 1258.11 3969.43 1254.82" stroke="#2F528F" stroke-width="6.875" stroke-miterlimit="8" fill="none" fill-rule="evenodd"/><path d="M3967.66 1285.28C3970.45 1281.27 3975.37 1280.88 3980.19 1277.59" stroke="#2F528F" stroke-width="6.875" stroke-miterlimit="8" fill="none" fill-rule="evenodd"/><path d="M3978.08 1307.33C3980.87 1303.31 3985.79 1302.93 3990.61 1299.64" stroke="#2F528F" stroke-width="6.875" stroke-miterlimit="8" fill="none" fill-rule="evenodd"/><path d="M3987.8 1328.82C3990.58 1324.81 3995.51 1324.42 4000.33 1321.13" stroke="#2F528F" stroke-width="6.875" stroke-miterlimit="8" fill="none" fill-rule="evenodd"/><path d="M3998.53 1351.52C4001.31 1347.51 4006.24 1347.12 4011.05 1343.83" stroke="#2F528F" stroke-width="6.875" stroke-miterlimit="8" fill="none" fill-rule="evenodd"/><path d="M4008.91 1373.5C4011.7 1369.48 4016.62 1369.1 4021.44 1365.81" stroke="#2F528F" stroke-width="6.875" stroke-miterlimit="8" fill="none" fill-rule="evenodd"/><path d="M4019.36 1395.62C4022.15 1391.6 4027.07 1391.21 4031.89 1387.92" stroke="#2F528F" stroke-width="6.875" stroke-miterlimit="8" fill="none" fill-rule="evenodd"/><path d="M4029.78 1417.66C4032.57 1413.65 4037.49 1413.26 4042.31 1409.97" stroke="#2F528F" stroke-width="6.875" stroke-miterlimit="8" fill="none" fill-rule="evenodd"/><path d="M4040.19 1437.55C4042.98 1433.53 4047.91 1433.15 4052.72 1429.86" stroke="#2F528F" stroke-width="6.875" stroke-miterlimit="8" fill="none" fill-rule="evenodd"/><path d="M4048.57 1457.41C4051.35 1453.39 4056.28 1453.01 4061.1 1449.72" stroke="#2F528F" stroke-width="6.875" stroke-miterlimit="8" fill="none" fill-rule="evenodd"/><path d="M4058.99 1479.46C4061.77 1475.44 4066.7 1475.05 4071.51 1471.77" stroke="#2F528F" stroke-width="6.875" stroke-miterlimit="8" fill="none" fill-rule="evenodd"/><path d="M4069.06 1500.78C4071.85 1496.76 4076.77 1496.38 4081.59 1493.09" stroke="#2F528F" stroke-width="6.875" stroke-miterlimit="8" fill="none" fill-rule="evenodd"/><path d="M4079.14 1522.1C4081.92 1518.09 4086.85 1517.7 4091.67 1514.41" stroke="#2F528F" stroke-width="6.875" stroke-miterlimit="8" fill="none" fill-rule="evenodd"/><path d="M3941.16 1080.84C3943.94 1076.82 3948.87 1076.43 3953.68 1073.14" stroke="#2F528F" stroke-width="6.875" stroke-miterlimit="8" fill="none" fill-rule="evenodd"/><path d="M3951.52 1102.76C3954.3 1098.75 3959.23 1098.36 3964.05 1095.07" stroke="#2F528F" stroke-width="6.875" stroke-miterlimit="8" fill="none" fill-rule="evenodd"/><path d="M3961.86 1124.88C3964.65 1120.86 3969.57 1120.47 3974.39 1117.19" stroke="#2F528F" stroke-width="6.875" stroke-miterlimit="8" fill="none" fill-rule="evenodd"/><path d="M3972.59 1147.58C3975.38 1143.56 3980.3 1143.17 3985.12 1139.89" stroke="#2F528F" stroke-width="6.875" stroke-miterlimit="8" fill="none" fill-rule="evenodd"/><path d="M3982.98 1169.55C3985.76 1165.54 3990.69 1165.15 3995.51 1161.86" stroke="#2F528F" stroke-width="6.875" stroke-miterlimit="8" fill="none" fill-rule="evenodd"/><path d="M3993.36 1191.53C3996.15 1187.51 4001.07 1187.13 4005.89 1183.84" stroke="#2F528F" stroke-width="6.875" stroke-miterlimit="8" fill="none" fill-rule="evenodd"/><path d="M4004.12 1214.3C4006.91 1210.28 4011.84 1209.9 4016.65 1206.61" stroke="#2F528F" stroke-width="6.875" stroke-miterlimit="8" fill="none" fill-rule="evenodd"/><path d="M4014.89 1237.07C4017.67 1233.05 4022.6 1232.67 4027.41 1229.38" stroke="#2F528F" stroke-width="6.875" stroke-miterlimit="8" fill="none" fill-rule="evenodd"/><path d="M4025.65 1259.84C4028.43 1255.83 4033.36 1255.44 4038.17 1252.15" stroke="#2F528F" stroke-width="6.875" stroke-miterlimit="8" fill="none" fill-rule="evenodd"/><path d="M4036.07 1281.89C4038.85 1277.87 4043.78 1277.49 4048.59 1274.2" stroke="#2F528F" stroke-width="6.875" stroke-miterlimit="8" fill="none" fill-rule="evenodd"/><path d="M4045.78 1303.38C4048.57 1299.36 4053.49 1298.98 4058.31 1295.69" stroke="#2F528F" stroke-width="6.875" stroke-miterlimit="8" fill="none" fill-rule="evenodd"/><path d="M4056.51 1326.08C4059.29 1322.06 4064.22 1321.68 4069.04 1318.39" stroke="#2F528F" stroke-width="6.875" stroke-miterlimit="8" fill="none" fill-rule="evenodd"/><path d="M4066.89 1348.06C4069.68 1344.04 4074.61 1343.65 4079.42 1340.36" stroke="#2F528F" stroke-width="6.875" stroke-miterlimit="8" fill="none" fill-rule="evenodd"/><path d="M4077.35 1370.17C4080.13 1366.16 4085.06 1365.77 4089.87 1362.48" stroke="#2F528F" stroke-width="6.875" stroke-miterlimit="8" fill="none" fill-rule="evenodd"/><path d="M4087.77 1392.22C4090.55 1388.2 4095.48 1387.82 4100.29 1384.53" stroke="#2F528F" stroke-width="6.875" stroke-miterlimit="8" fill="none" fill-rule="evenodd"/><path d="M4098.18 1412.11C4100.96 1408.09 4105.89 1407.71 4110.71 1404.42" stroke="#2F528F" stroke-width="6.875" stroke-miterlimit="8" fill="none" fill-rule="evenodd"/><path d="M4106.55 1431.97C4109.34 1427.95 4114.26 1427.57 4119.08 1424.28" stroke="#2F528F" stroke-width="6.875" stroke-miterlimit="8" fill="none" fill-rule="evenodd"/><path d="M4116.97 1454.02C4119.75 1450 4124.68 1449.61 4129.5 1446.32" stroke="#2F528F" stroke-width="6.875" stroke-miterlimit="8" fill="none" fill-rule="evenodd"/><path d="M4127.05 1475.34C4129.83 1471.32 4134.76 1470.93 4139.57 1467.65" stroke="#2F528F" stroke-width="6.875" stroke-miterlimit="8" fill="none" fill-rule="evenodd"/><path d="M4137.12 1496.66C4139.91 1492.64 4144.83 1492.26 4149.65 1488.97" stroke="#2F528F" stroke-width="6.875" stroke-miterlimit="8" fill="none" fill-rule="evenodd"/><path d="M3957.33 1334.73C3955.02 1328.94 3952.71 1323.15 3955 1317.73 3957.3 1312.32 3965.16 1304.97 3971.11 1302.24 3977.05 1299.51 3987.53 1299.94 3990.66 1301.34 3993.79 1302.73 3991.35 1308.14 3989.91 1310.61 3988.47 1313.09 3985.25 1314.64 3982.03 1316.2" stroke="#2F5597" stroke-width="11.4583" stroke-linecap="round" stroke-linejoin="round" stroke-miterlimit="10" fill="#FFECD9" fill-rule="evenodd"/><path d="M3964.46 1345.32C3963.08 1339.43 3961.71 1333.55 3964.58 1328.59 3967.45 1323.64 3975.78 1317.51 3981.69 1315.61 3987.6 1313.7 3997.32 1315.43 4000.05 1317.17 4002.79 1318.91 3999.77 1323.83 3998.1 1326.05 3996.42 1328.26 3993.21 1329.37 3990 1330.47" stroke="#2F5597" stroke-width="11.4583" stroke-linecap="round" stroke-linejoin="round" stroke-miterlimit="10" fill="#FFECD9" fill-rule="evenodd"/><path d="M3973.44 1363.63C3972.07 1357.74 3970.7 1351.85 3973.57 1346.9 3976.44 1341.95 3984.77 1335.82 3990.68 1333.91 3996.59 1332.01 4006.3 1333.74 4009.04 1335.48 4011.77 1337.22 4008.76 1342.14 4007.08 1344.35 4005.41 1346.57 4002.19 1347.67 3998.98 1348.78" stroke="#2F5597" stroke-width="11.4583" stroke-linecap="round" stroke-linejoin="round" stroke-miterlimit="10" fill="#FFECD9" fill-rule="evenodd"/><path d="M4000.19 1379.01C3972.17 1377.69 3979.9 1368.92 3981.23 1362.56 3982.56 1356.19 3990.96 1354.14 3996.2 1352.8 4001.44 1351.45 4010.17 1353.05 4012.66 1354.49 4015.15 1355.92 4012.58 1359.71 4011.13 1361.41 4009.69 1363.1 4006.85 1363.89 4004 1364.67" stroke="#2F5597" stroke-width="11.4583" stroke-linecap="round" stroke-linejoin="round" stroke-miterlimit="10" fill="#FFECD9" fill-rule="evenodd"/><path d="M4032.87 1146.23C4032.9 1146.32 4033.61 1154.69 4039.35 1154.13 4042.55 1153.82 4044.4 1151.89 4046.93 1150.78 4047.71 1149.92 4047.99 1148.74 4049.26 1148.21 4051.92 1147.1 4057.46 1146.37 4061.37 1147.03 4064.05 1147.48 4066.67 1148.34 4069.32 1149" stroke="#2F528F" stroke-width="4.58333" stroke-linecap="round" stroke-linejoin="round" stroke-miterlimit="10" fill="none" fill-rule="evenodd"/><path d="M4031.47 1154.85C4031.5 1154.94 4032.2 1163.31 4037.94 1162.75 4041.15 1162.44 4043 1160.51 4045.53 1159.39 4046.31 1158.54 4046.59 1157.36 4047.86 1156.83 4050.52 1155.71 4056.06 1154.99 4059.97 1155.65 4062.65 1156.09 4065.27 1156.96 4067.92 1157.62" stroke="#2F528F" stroke-width="4.58333" stroke-linecap="round" stroke-linejoin="round" stroke-miterlimit="10" fill="none" fill-rule="evenodd"/><path d="M4046.69 1132.66C4046.6 1132.76 4036.99 1141.39 4041.46 1142.42 4043.96 1142.99 4047.5 1141.56 4050.52 1141.14 4052.06 1140.49 4053.66 1139.38 4055.15 1139.2 4058.25 1138.81 4062.78 1139.62 4064.58 1141.36 4065.81 1142.55 4066.5 1144.15 4067.46 1145.55" stroke="#2F528F" stroke-width="6.875" stroke-linecap="round" stroke-linejoin="round" stroke-miterlimit="10" fill="none" fill-rule="evenodd"/><path d="M0 6.19731C0.0360838 6.27949 1.8804 14.2298 5.58858 12.3012 7.65997 11.224 8.5691 8.9101 10.0594 7.21462 10.4321 6.19731 10.4229 4.98646 11.1772 4.16267 12.7555 2.43884 16.3063 0.400038 19.0012 0.093401 20.8497-0.116951 22.727 0.093401 24.5898 0.093401" stroke="#2F528F" stroke-width="4.58333" stroke-linecap="round" stroke-linejoin="round" stroke-miterlimit="10" fill="none" fill-rule="evenodd" transform="matrix(-0.862196 0.506575 0.506575 0.862196 4318.69 1155.13)"/><path d="M0 6.19731C0.0360838 6.27949 1.8804 14.2298 5.58858 12.3012 7.65997 11.224 8.5691 8.9101 10.0594 7.21462 10.4321 6.19731 10.4229 4.98646 11.1772 4.16267 12.7555 2.43884 16.3063 0.400038 19.0012 0.093401 20.8497-0.116951 22.727 0.093401 24.5898 0.093401" stroke="#2F528F" stroke-width="6.875" stroke-linecap="round" stroke-linejoin="round" stroke-miterlimit="10" fill="none" fill-rule="evenodd" transform="matrix(-0.862196 0.506575 0.506575 0.862196 4321.27 1162.99)"/><path d="M0 6.80886C0.0328422 6.89915 1.71148 15.634 5.08653 13.5151 6.97183 12.3316 7.7993 9.78935 9.15576 7.92656 9.49491 6.80886 9.48658 5.47852 10.1731 4.57344 11.6096 2.6795 14.8415 0.439514 17.2942 0.102618 18.9767-0.128492 20.6853 0.102618 22.3807 0.102618" stroke="#2F528F" stroke-width="4.58333" stroke-linecap="round" stroke-linejoin="round" stroke-miterlimit="10" fill="none" fill-rule="evenodd" transform="matrix(-0.30881 0.951124 0.951124 0.30881 4304.8 1146.39)"/><path d="M4103.81 1409.78C4167.36 1404.59 4225.66 1406.32 4291.84 1409.78 4296.21 1455.34 4294.46 1499.17 4291.84 1543.87 4235.28 1549.92 4167.36 1547.33 4103.81 1543.87 4100.31 1497.44 4101.18 1457.93 4103.81 1409.78Z" stroke="#7F7F7F" stroke-width="9.16667" stroke-miterlimit="8" fill="#385723" fill-rule="evenodd"/><path d="M4106.5 1435.5C4169.2 1425.43 4228.23 1424.25 4284.5 1435.5" stroke="#FFFFFF" stroke-width="4.58333" stroke-miterlimit="8" fill="none" fill-rule="evenodd"/><path d="M4105.5 1470.5C4171.32 1459.68 4229.75 1462.77 4284.5 1470.5" stroke="#FFFFFF" stroke-width="4.58333" stroke-miterlimit="8" fill="none" fill-rule="evenodd"/><path d="M4141 1507.67C4153.18 1493.03 4165.35 1478.4 4167.56 1481.39 4169.78 1484.39 4155.1 1517.92 4154.28 1525.64 4153.47 1533.36 4156.96 1534.05 4162.67 1527.71 4168.38 1521.38 4183.06 1494.3 4188.54 1487.62 4194.01 1480.93 4196.11 1483.35 4195.53 1487.62 4194.94 1491.88 4186.21 1508.13 4185.04 1513.2 4183.88 1518.27 4183.76 1521.26 4188.54 1518.04 4193.31 1514.81 4210.21 1494.64 4213.7 1493.84 4217.2 1493.03 4208.93 1509.62 4209.51 1513.2 4210.09 1516.77 4210.91 1518.38 4217.2 1515.27 4223.49 1512.16 4242.6 1493.15 4247.26 1494.53 4249.7 1498.33 4241.55 1522.3 4245.16 1523.57 4249.7 1522.18 4262.05 1504.67 4268.93 1502.13 4284.19 1491.99 4282.15 1506.74 4278.02 1513.2" stroke="#FFFFFF" stroke-width="2.29167" stroke-miterlimit="8" fill="none" fill-rule="evenodd"/><path d="M4155.5 1466.5C4148.62 1458.37 4151.97 1433.2 4155.5 1412.5" stroke="#FFFFFF" stroke-width="4.58333" stroke-miterlimit="8" fill="none" fill-rule="evenodd"/><path d="M4279.5 1357.65C4274.74 1352.25 4274.06 1345.82 4271.34 1340.23 4268.62 1334.63 4263.85 1330.88 4263.17 1324.09 4262.49 1317.3 4269.13 1305.07 4267.26 1299.48 4265.38 1293.88 4256.71 1290.77 4251.95 1290.53 4247.19 1290.28 4241.92 1291.77 4238.69 1297.98 4235.45 1304.2 4233.07 1318.74 4232.56 1327.82 4232.05 1336.89 4234.77 1347.83 4235.62 1352.43 4236.47 1357.03 4237.67 1355.42 4237.67 1355.42L4261.13 1399.5" stroke="#2F528F" stroke-width="11.4583" stroke-linecap="round" stroke-linejoin="round" stroke-miterlimit="10" fill="#FFECD9" fill-rule="evenodd"/><path d="M4272.66 1343.5C4283.32 1347.72 4293.98 1351.93 4299.76 1359.26 4305.55 1366.58 4308.09 1375.56 4307.39 1387.45 4306.68 1399.34 4301.88 1421.03 4295.53 1430.57 4289.18 1440.11 4277.18 1442.04 4269.28 1444.67 4261.37 1447.29 4248.11 1446.33 4248.11 1446.33L4248.11 1446.33C4245 1443.98 4232.58 1436.38 4229.48 1432.23 4226.37 1428.08 4227.36 1423.52 4229.48 1421.45 4231.59 1419.38 4239.07 1419.79 4242.18 1419.79 4245.28 1419.79 4246.69 1420.62 4248.11 1421.45" stroke="#2F5597" stroke-width="11.4583" stroke-linecap="round" stroke-linejoin="round" stroke-miterlimit="10" fill="#FFECD9" fill-rule="evenodd"/><path d="M4278.5 1425.8C4269.34 1428.83 4260.17 1431.87 4251.01 1429.84 4241.84 1427.82 4228.78 1419.9 4223.52 1413.66 4218.26 1407.42 4217.58 1395.96 4219.44 1392.42 4221.31 1388.88 4230.47 1391.07 4234.72 1392.42 4238.96 1393.77 4241.93 1397.14 4244.9 1400.51" stroke="#2F5597" stroke-width="11.4583" stroke-linecap="round" stroke-linejoin="round" stroke-miterlimit="10" fill="#FFECD9" fill-rule="evenodd"/><path d="M4277.5 1407.8C4268.34 1410.83 4259.17 1413.87 4250.01 1411.84 4240.84 1409.82 4227.78 1401.9 4222.52 1395.66 4217.26 1389.42 4216.58 1377.96 4218.44 1374.42 4220.31 1370.88 4229.47 1373.07 4233.72 1374.42 4237.96 1375.77 4240.93 1379.14 4243.9 1382.51" stroke="#2F5597" stroke-width="11.4583" stroke-linecap="round" stroke-linejoin="round" stroke-miterlimit="10" fill="#FFECD9" fill-rule="evenodd"/><path d="M4275.5 1388.93C4264.35 1395.95 4256.86 1395.12 4248.04 1392.98 4239.22 1390.85 4226.95 1382.03 4222.58 1376.12 4218.22 1370.21 4214.1 1365.36 4221.84 1357.51 4229.59 1349.66 4232.86 1359.48 4237.1 1360.83 4241.33 1362.18 4246.09 1363.29 4249.06 1366.66" stroke="#2F5597" stroke-width="11.4583" stroke-linecap="round" stroke-linejoin="round" stroke-miterlimit="10" fill="#FFECD9" fill-rule="evenodd"/><path d="M4085.96 1134.45C4106.14 1137.63 4156.29 1148.33 4190.31 1148.96 4224.33 1149.6 4272.45 1141.96 4290.09 1138.27 4307.74 1134.57 4296.49 1131.46 4296.19 1126.8 4295.88 1122.15 4291.21 1114.59 4288.25 1110.33 4285.3 1106.07 4288.1 1110.25 4283.02 1096.66 4277.94 1083.07 4274.62 1047.69 4257.77 1028.79 4240.92 1009.88 4223.09 994.661 4181.93 993.093 4140.77 991.525 4122.57 1010.16 4105.76 1025.95 4088.95 1041.74 4081.44 1069.75 4081.06 1087.84 4076.87 1096.75 4079.94 1093.19 4076.82 1098.53 4073.7 1103.88 4064 1115.34 4062.35 1119.93 4060.7 1124.51 4065.27 1127.44 4069.2 1129.86 4073.14 1132.28 4065.77 1131.26 4085.96 1134.45Z" stroke="#7F6000" stroke-width="13.75" stroke-linecap="round" stroke-linejoin="round" stroke-miterlimit="10" fill="#FFCC00" fill-rule="evenodd"/><path d="M4128.56 1064.63C4125.04 1074.37 4121.52 1084.12 4123.62 1087.65 4125.72 1091.18 4141.17 1085.8 4141.17 1085.8L4141.17 1085.8 4141.17 1085.8" stroke="#2F528F" stroke-width="4.58333" stroke-linecap="round" stroke-linejoin="round" stroke-miterlimit="10" fill="none" fill-rule="evenodd"/><path d="M4164.24 1069.06C4156.97 1072.83 4149.7 1076.59 4149.39 1080.48 4149.08 1084.38 4155.72 1088.39 4162.37 1092.4" stroke="#2F528F" stroke-width="4.58333" stroke-linecap="round" stroke-linejoin="round" stroke-miterlimit="10" fill="none" fill-rule="evenodd"/><path d="M4171.98 1074.05C4183.47 1073.26 4194.97 1072.48 4197.84 1075.57 4200.71 1078.67 4194.96 1085.65 4189.2 1092.62" stroke="#2F528F" stroke-width="4.58333" stroke-linecap="round" stroke-linejoin="round" stroke-miterlimit="10" fill="none" fill-rule="evenodd"/><path d="M4214.55 1069.81C4223.15 1068.61 4231.74 1067.41 4235.03 1069.52 4238.32 1071.62 4237.3 1080.19 4234.27 1082.45 4231.24 1084.71 4224.05 1083.89 4216.85 1083.07" stroke="#2F528F" stroke-width="4.58333" stroke-linecap="round" stroke-linejoin="round" stroke-miterlimit="10" fill="none" fill-rule="evenodd"/><path d="M4206.22 1078.21 4228.67 1076.89C4235.2 1076.66 4240.3 1076.74 4245.4 1076.82" stroke="#2F528F" stroke-width="4.58333" stroke-linecap="round" stroke-linejoin="round" stroke-miterlimit="10" fill="none" fill-rule="evenodd"/><path d="M4221.55 1068.08C4221.08 1077.84 4220.6 1087.6 4219.55 1092.65 4218.49 1097.7 4216.85 1098.04 4215.22 1098.38" stroke="#2F528F" stroke-width="4.58333" stroke-linecap="round" stroke-linejoin="round" stroke-miterlimit="10" fill="none" fill-rule="evenodd"/><path d="M4222.03 1089C4224.27 1087.38 4235.29 1086.69 4237.61 1088.18 4239.93 1089.67 4238.19 1096.3 4235.95 1097.92 4233.71 1099.54 4226.25 1098.84 4224.18 1097.9 4222.11 1096.96 4219.79 1090.62 4222.03 1089Z" stroke="#2F528F" stroke-width="4.58333" stroke-linecap="round" stroke-linejoin="round" stroke-miterlimit="10" fill="none" fill-rule="evenodd"/><path d="M4142.09 1119.3 4132.99 1118.98 4123.95 1117.91 4115.43 1116.11 4107.55 1113.95 4100.34 1111.42 4093.95 1108.7 4088.45 1106.05 4084.09 1103.62 4088.11 1096.41 4092.26 1098.73 4097.36 1101.19 4103.32 1103.73 4110 1106.07 4117.37 1108.09 4125.29 1109.76 4133.62 1110.75 4142.38 1111.06ZM4142.48 1108.31 4133.84 1108 4125.74 1107.04 4118.02 1105.41 4110.82 1103.44 4104.32 1101.16 4098.49 1098.68 4093.52 1096.28 4089.45 1094.01 4090.79 1091.61 4094.79 1093.84 4099.63 1096.18 4105.31 1098.6 4111.64 1100.82 4118.67 1102.74 4126.19 1104.33 4134.05 1105.26 4142.58 1105.56Z" fill="#2F528F"/><path d="M4280.11 1109.38 4272.1 1114.17 4263.56 1117.92 4255.01 1120.58 4246.73 1122.21 4238.92 1123.09 4231.61 1123.27 4225.12 1122.93 4219.84 1122.28 4220.86 1114.09 4225.85 1114.71 4231.73 1115.02 4238.35 1114.85 4245.47 1114.05 4252.98 1112.57 4260.67 1110.18 4268.31 1106.82 4275.88 1102.3ZM4274.47 1099.94 4267.05 1104.37 4259.7 1107.6 4252.31 1109.91 4245.05 1111.33 4238.16 1112.11 4231.77 1112.27 4226.09 1111.97 4221.2 1111.36 4221.54 1108.63 4226.33 1109.23 4231.8 1109.51 4237.98 1109.36 4244.63 1108.61 4251.63 1107.24 4258.74 1105.02 4265.78 1101.93 4273.06 1097.58Z" fill="#2F528F"/><path d="M4224 1136.99C4229.67 1128.99 4235.33 1121 4237.33 1121 4239.33 1121 4234.33 1136.55 4236 1136.99 4237.67 1137.43 4245.22 1124.22 4247.33 1123.66 4249.44 1123.11 4246.22 1133.77 4248.67 1133.66 4251.11 1133.55 4259.67 1123.22 4262 1123 4264.33 1122.78 4260.89 1132.1 4262.67 1132.33 4264.44 1132.55 4270.33 1124.78 4272.67 1124.33 4275 1123.89 4275.11 1129.55 4276.67 1129.66 4278.22 1129.77 4282 1125 4282 1125L4282 1125" stroke="#7F6000" stroke-width="2.29167" stroke-miterlimit="8" fill="none" fill-rule="evenodd"/><text fill="#FFFFFF" font-family="Meiryo,Meiryo_MSFontService,sans-serif" font-weight="700" font-size="165" transform="matrix(1 0 0 1 144.514 1455)">掘削状況</text><text fill="#FFFFFF" font-family="Meiryo,Meiryo_MSFontService,sans-serif" font-weight="700" font-size="165" transform="matrix(1 0 0 1 804.514 1455)">3D</text><text fill="#FFFFFF" font-family="Meiryo,Meiryo_MSFontService,sans-serif" font-weight="700" font-size="165" transform="matrix(1 0 0 1 1046.86 1455)">管理アプリ</text><text fill="#FFFFFF" font-family="Meiryo,Meiryo_MSFontService,sans-serif" font-weight="700" font-size="165" transform="matrix(1 0 0 1 2036.86 1455)">ちかデジ</text><path d="M3591.97 1461.29 3583.08 1485.73 3601.05 1485.73ZM3645.48 1457.07 3645.48 1473.78 3655.32 1473.78C3661.7 1473.78 3665.68 1473.51 3667.27 1472.97 3668.86 1472.43 3670.1 1471.5 3671 1470.18 3671.9 1468.86 3672.35 1467.22 3672.35 1465.24 3672.35 1463.02 3671.76 1461.24 3670.57 1459.87 3669.39 1458.51 3667.72 1457.65 3665.56 1457.29 3664.49 1457.14 3661.25 1457.07 3655.86 1457.07ZM3765.19 1445.92 3778.48 1445.92 3778.48 1471.84 3804.54 1471.84 3804.54 1445.92 3817.84 1445.92 3817.84 1511.78 3804.54 1511.78 3804.54 1482.99 3778.48 1482.99 3778.48 1511.78 3765.19 1511.78ZM3632.19 1445.92 3660.17 1445.92C3667.21 1445.92 3672.32 1446.52 3675.51 1447.7 3678.7 1448.88 3681.26 1450.99 3683.17 1454.01 3685.09 1457.04 3686.05 1460.49 3686.05 1464.39 3686.05 1469.33 3684.6 1473.41 3681.69 1476.63 3678.79 1479.85 3674.44 1481.88 3668.66 1482.72 3671.54 1484.39 3673.91 1486.23 3675.78 1488.24 3677.66 1490.25 3680.18 1493.81 3683.35 1498.93L3691.39 1511.78 3675.49 1511.78 3665.88 1497.45C3662.46 1492.33 3660.13 1489.1 3658.87 1487.77 3657.61 1486.44 3656.28 1485.52 3654.87 1485.03 3653.47 1484.54 3651.23 1484.29 3648.18 1484.29L3645.48 1484.29 3645.48 1511.78 3632.19 1511.78ZM3585.1 1445.92 3599.16 1445.92 3625.53 1511.78 3611.06 1511.78 3605.31 1496.82 3578.99 1496.82 3573.55 1511.78 3559.45 1511.78ZM3504.14 1445.92 3552.97 1445.92 3552.97 1457.07 3517.44 1457.07 3517.44 1471.66 3550.5 1471.66 3550.5 1482.76 3517.44 1482.76 3517.44 1500.68 3554.23 1500.68 3554.23 1511.78 3504.14 1511.78ZM3727.62 1444.8C3735.68 1444.8 3742.22 1447.18 3747.25 1451.94 3750.25 1454.76 3752.49 1458.8 3753.99 1464.07L3740.83 1467.22C3740.05 1463.8 3738.43 1461.11 3735.96 1459.13 3733.49 1457.16 3730.48 1456.17 3726.95 1456.17 3722.07 1456.17 3718.11 1457.92 3715.07 1461.42 3712.03 1464.93 3710.51 1470.6 3710.51 1478.45 3710.51 1486.77 3712 1492.7 3715 1496.24 3717.99 1499.77 3721.89 1501.54 3726.68 1501.54 3730.21 1501.54 3733.25 1500.41 3735.8 1498.17 3738.34 1495.92 3740.17 1492.39 3741.28 1487.57L3754.17 1491.66C3752.2 1498.84 3748.91 1504.18 3744.31 1507.67 3739.71 1511.16 3733.88 1512.9 3726.81 1512.9 3718.07 1512.9 3710.88 1509.92 3705.25 1503.94 3699.62 1497.97 3696.81 1489.8 3696.81 1479.44 3696.81 1468.48 3699.64 1459.96 3705.3 1453.9 3710.96 1447.83 3718.4 1444.8 3727.62 1444.8ZM3466.19 1444.8C3474.45 1444.8 3480.67 1446.61 3484.85 1450.24 3489.03 1453.86 3491.22 1458.7 3491.43 1464.75L3478.14 1465.33C3477.57 1461.95 3476.35 1459.51 3474.48 1458.03 3472.6 1456.55 3469.8 1455.81 3466.05 1455.81 3462.19 1455.81 3459.16 1456.6 3456.98 1458.19 3455.57 1459.21 3454.87 1460.57 3454.87 1462.28 3454.87 1463.83 3455.53 1465.17 3456.84 1466.27 3458.52 1467.68 3462.59 1469.15 3469.06 1470.68 3475.53 1472.2 3480.32 1473.78 3483.41 1475.42 3486.51 1477.05 3488.94 1479.28 3490.69 1482.11 3492.44 1484.94 3493.32 1488.44 3493.32 1492.6 3493.32 1496.37 3492.27 1499.91 3490.18 1503.2 3488.08 1506.49 3485.11 1508.94 3481.28 1510.54 3477.45 1512.15 3472.67 1512.95 3466.95 1512.95 3458.63 1512.95 3452.23 1511.02 3447.77 1507.18 3443.31 1503.33 3440.64 1497.72 3439.77 1490.35L3452.71 1489.09C3453.49 1493.44 3455.07 1496.63 3457.45 1498.66 3459.83 1500.7 3463.04 1501.72 3467.09 1501.72 3471.37 1501.72 3474.6 1500.81 3476.77 1499 3478.94 1497.19 3480.02 1495.07 3480.02 1492.64 3480.02 1491.09 3479.57 1489.76 3478.65 1488.67 3477.74 1487.57 3476.15 1486.62 3473.87 1485.82 3472.31 1485.28 3468.76 1484.32 3463.22 1482.94 3456.09 1481.17 3451.09 1479 3448.22 1476.43 3444.18 1472.8 3442.15 1468.39 3442.15 1463.17 3442.15 1459.82 3443.1 1456.68 3445.01 1453.76 3446.91 1450.84 3449.65 1448.62 3453.23 1447.09 3456.81 1445.57 3461.13 1444.8 3466.19 1444.8Z" stroke="#FFFFFF" stroke-linejoin="round" stroke-miterlimit="10" stroke-opacity="0.501961" fill="#123177" fill-rule="evenodd"/><text fill="#000000" fill-opacity="0" font-family="Arial,Arial_MSFontService,sans-serif" font-size="68.1465" x="3439.77" y="1504.43">SEARCH</text><path d="M3106.19 1393C3120.85 1393 3132.3 1396.07 3140.55 1402.22 3148.79 1408.37 3154.1 1416.87 3156.46 1427.72L3132.77 1432.15C3131.11 1426.35 3127.98 1421.77 3123.39 1418.41 3118.8 1415.06 3113.06 1413.38 3106.19 1413.38 3095.77 1413.38 3087.48 1416.68 3081.33 1423.29 3075.18 1429.9 3072.11 1439.7 3072.11 1452.7 3072.11 1466.71 3075.22 1477.23 3081.45 1484.24 3087.68 1491.25 3095.85 1494.75 3105.95 1494.75 3110.94 1494.75 3115.95 1493.77 3120.97 1491.81 3125.99 1489.85 3130.3 1487.47 3133.9 1484.68L3133.9 1469.69 3106.59 1469.69 3106.59 1449.8 3157.99 1449.8 3157.99 1496.85C3153 1501.68 3145.76 1505.94 3136.28 1509.62 3126.8 1513.29 3117.2 1515.13 3107.48 1515.13 3095.12 1515.13 3084.35 1512.54 3075.17 1507.36 3065.99 1502.18 3059.08 1494.76 3054.46 1485.12 3049.84 1475.48 3047.54 1465 3047.54 1453.66 3047.54 1441.36 3050.11 1430.43 3055.27 1420.87 3060.43 1411.31 3067.97 1403.98 3077.91 1398.88 3085.48 1394.96 3094.91 1393 3106.19 1393Z" stroke="#FFFFFF" stroke-width="5" stroke-linejoin="round" stroke-miterlimit="10" stroke-opacity="0.501961" fill="#D72510" fill-rule="evenodd"/><text fill="#000000" fill-opacity="0" font-family="Arial,Arial_MSFontService,sans-serif" font-size="122.139" x="3047.54" y="1499.87">G</text><path d="M3342.51 1413.38C3332.68 1413.38 3324.76 1416.75 3318.74 1423.49 3312.72 1430.23 3309.72 1440.4 3309.72 1453.98 3309.72 1467.36 3312.8 1477.5 3318.98 1484.4 3325.16 1491.3 3333 1494.75 3342.51 1494.75 3352.01 1494.75 3359.82 1491.33 3365.91 1484.48 3372.01 1477.63 3375.06 1467.36 3375.06 1453.66 3375.06 1440.13 3372.09 1430.03 3366.15 1423.37 3360.22 1416.71 3352.34 1413.38 3342.51 1413.38ZM3179.98 1395.01 3267.55 1395.01 3267.55 1414.99 3203.83 1414.99 3203.83 1441.17 3263.12 1441.17 3263.12 1461.07 3203.83 1461.07 3203.83 1493.22 3269.81 1493.22 3269.81 1513.12 3179.98 1513.12ZM3342.27 1393C3359.67 1393 3373.59 1398.39 3384.04 1409.19 3394.49 1419.99 3399.71 1435 3399.71 1454.23 3399.71 1473.29 3394.53 1488.21 3384.16 1498.98 3373.79 1509.75 3359.94 1515.13 3342.59 1515.13 3325.02 1515.13 3311.06 1509.78 3300.69 1499.06 3290.33 1488.35 3285.14 1473.59 3285.14 1454.79 3285.14 1442.76 3286.94 1432.66 3290.54 1424.5 3293.23 1418.48 3296.89 1413.08 3301.54 1408.3 3306.18 1403.52 3311.27 1399.98 3316.81 1397.67 3324.16 1394.55 3332.65 1393 3342.27 1393Z" stroke="#FFFFFF" stroke-width="5" stroke-linejoin="round" stroke-miterlimit="10" stroke-opacity="0.501961" fill="#123177" fill-rule="evenodd"/><text fill="#000000" fill-opacity="0" font-family="Arial,Arial_MSFontService,sans-serif" font-size="122.139" x="3179.98" y="1499.87">EO</text></g></svg>